<svg id="Layer_1" data-name="Layer 1" xmlns="http://www.w3.org/2000/svg" viewBox="0 0 216 96.18"><defs><style>.cls-1{fill:#fff;}</style></defs><title>si_logo-primary-white</title><path class="cls-1" d="M14.65,74c-.78-2.79-1.9-5.81-5.68-5.81A4.57,4.57,0,0,0,4.16,73c0,3.19,2.08,4.67,5.51,6.46s7.5,3.8,7.5,8.7c0,4.58-3.86,8.25-9.63,8.25a15.18,15.18,0,0,1-4.24-.65,14,14,0,0,1-2.13-.92A53.53,53.53,0,0,1,0,88.06l1.26-.31C2,90.42,3.9,94.83,8.37,94.83a4.84,4.84,0,0,0,5.2-5.24c0-3.23-2.38-4.76-5.64-6.51C5.16,81.59.78,79.41.78,74.47c0-4.19,3.34-7.77,8.93-7.77a17.91,17.91,0,0,1,5.46,1c.18,1.57.4,3.28.74,6Z" transform="translate(0 -0.22)"/><path class="cls-1" d="M43.75,95.75V94.61c2.55-.26,3-.43,3-3.54V83.78c0-3.1-1.08-5.07-3.81-5.07A8,8,0,0,0,38.11,81a10.1,10.1,0,0,1,.13,1.84v8.52c0,2.75.39,3,2.78,3.27v1.14H31.74V94.61c2.68-.26,3.08-.48,3.08-3.36V83.73c0-3.23-1.13-5-3.78-5-1.73,0-3.42,1.18-4.72,2.27V91.25c0,2.84.34,3.1,2.47,3.36v1.14H19.64V94.61c2.86-.26,3.25-.52,3.25-3.36v-9c0-2.8-.13-3-2.64-3.41v-1a25.83,25.83,0,0,0,6-1.79v3.54c.91-.61,1.87-1.4,3.17-2.23A6.42,6.42,0,0,1,33,76.13a5.18,5.18,0,0,1,4.82,3.59,36.14,36.14,0,0,1,3.6-2.45,6,6,0,0,1,3.25-1.14c3.38,0,5.5,2.41,5.5,6.69v8.43c0,2.93.35,3.1,2.82,3.36v1.14Z" transform="translate(0 -0.22)"/><path class="cls-1" d="M57.66,70.1a2.24,2.24,0,0,1,2.22-2.27A2.17,2.17,0,0,1,62,70.1a2.23,2.23,0,0,1-2.21,2.23,2.28,2.28,0,0,1-2.17-2.23M55.37,95.75V94.61c2.73-.26,3-.52,3-3.49v-9c0-2.71-.13-2.89-2.73-3.32v-1a27.62,27.62,0,0,0,6.16-1.7V91.12c0,3,.3,3.23,3.07,3.49v1.14Z" transform="translate(0 -0.22)"/><path class="cls-1" d="M75.05,95.71a4.39,4.39,0,0,1-1.82.56c-2.73,0-4.25-1.74-4.25-5.2V78.36H66l-.18-.44L67,76.66h2V73.47l2.82-2.89.6.09v6h4.9a1.25,1.25,0,0,1-.26,1.7H72.4V89.59c0,3.54,1.44,4.19,2.52,4.19A6.15,6.15,0,0,0,77.61,93L78,94.18Z" transform="translate(0 -0.22)"/><path class="cls-1" d="M91.65,95.75V94.61c2.52-.26,2.87-.52,2.87-3.36V84c0-3.59-1.35-5.38-4.25-5.38a6.08,6.08,0,0,0-4.51,2.23v10.4c0,2.8.21,3.1,2.77,3.36v1.14H79.34V94.61c2.6-.21,3-.48,3-3.36V70.41c0-2.75-.08-3-3-3.23v-1a45.27,45.27,0,0,0,6.38-1.53V79.32c1.52-1.57,3.86-3.19,6.2-3.19,3.51,0,6,2.23,6,7.47v7.65c0,2.88.3,3.15,2.86,3.36v1.14Z" transform="translate(0 -0.22)"/><path class="cls-1" d="M114.11,81.81c-.82-2.58-2.34-4.32-4.46-4.32a2.84,2.84,0,0,0-2.82,3c0,2,1.73,3,3.68,3.8,3.26,1.36,5.47,2.93,5.47,5.94,0,4-3.69,6-7.16,6a8.68,8.68,0,0,1-5-1.48,20.38,20.38,0,0,1-.7-5.16l1.13-.22c.78,2.89,2.73,5.42,5.33,5.42a3,3,0,0,0,3.08-3.06c0-1.92-1.25-3-3.42-4-2.6-1.23-5.42-2.67-5.42-6,0-3.06,2.6-5.64,6.59-5.64a10,10,0,0,1,3.86.75,33.88,33.88,0,0,1,.95,4.67Z" transform="translate(0 -0.22)"/><path class="cls-1" d="M123.26,85.22c0,5.51,2.38,9.61,5.94,9.61,2.69,0,4.9-2,4.9-8,0-5.12-2-9.27-5.81-9.27-2.69,0-5,2.71-5,7.65m14.87.66c0,7-5.11,10.39-9.41,10.39a9.42,9.42,0,0,1-9.49-9.65c0-7.21,5.55-10.49,9.49-10.49a9.45,9.45,0,0,1,9.41,9.75" transform="translate(0 -0.22)"/><path class="cls-1" d="M152.87,95.75V94.61c2.56-.26,2.87-.61,2.87-3.62v-7.3c0-3-1.05-5-4-5a7.73,7.73,0,0,0-4.73,2.23V91.21c0,3,.26,3.14,2.82,3.4v1.14h-9.41V94.61c2.95-.3,3.17-.52,3.17-3.4v-9c0-2.79-.26-2.93-2.6-3.36v-1a25.33,25.33,0,0,0,6-1.79v3.5c.87-.66,1.82-1.31,2.91-2.06a6.65,6.65,0,0,1,3.6-1.31c3.42,0,5.59,2.41,5.59,6.64v8.44c0,3,.22,3.14,2.73,3.4v1.14Z" transform="translate(0 -0.22)"/><path class="cls-1" d="M166.62,70.1a2.24,2.24,0,0,1,2.21-2.27A2.18,2.18,0,0,1,171,70.1a2.24,2.24,0,0,1-2.22,2.23,2.28,2.28,0,0,1-2.16-2.23m-2.3,25.65V94.61c2.73-.26,3-.52,3-3.49v-9c0-2.71-.13-2.89-2.73-3.32v-1a27.62,27.62,0,0,0,6.16-1.7V91.12c0,3,.3,3.23,3.08,3.49v1.14Z" transform="translate(0 -0.22)"/><path class="cls-1" d="M186.6,85.26c-.91.48-3,1.4-3.9,1.84-1.69.79-2.64,1.61-2.64,3.19a3.18,3.18,0,0,0,3.08,3.36,6.11,6.11,0,0,0,3.46-1.57Zm3.17,11a3.52,3.52,0,0,1-2-.83,4.61,4.61,0,0,1-1-2c-1.73,1.18-3.82,2.79-5.12,2.79a5.25,5.25,0,0,1-5.2-5.33c0-2.14,1.13-3.49,3.51-4.32,2.6-.88,5.77-2.06,6.72-2.84V83c0-3.14-1.47-4.94-3.64-4.94a2.41,2.41,0,0,0-2,.88,6.45,6.45,0,0,0-1.3,2.88,1.21,1.21,0,0,1-1.26,1,2.12,2.12,0,0,1-1.9-1.88c0-.66.56-1.14,1.38-1.75a19.37,19.37,0,0,1,6.51-3.06A5.64,5.64,0,0,1,188,77.31c1.52,1.27,1.95,3.06,1.95,5.33v8.13c0,2,.78,2.62,1.52,2.62a3.28,3.28,0,0,0,1.56-.48l.43,1.14Z" transform="translate(0 -0.22)"/><path class="cls-1" d="M207,95.75V94.61c2.56-.26,2.86-.61,2.86-3.62v-7.3c0-3-1-5-3.94-5a7.71,7.71,0,0,0-4.73,2.23V91.21c0,3,.26,3.14,2.82,3.4v1.14h-9.41V94.61c2.95-.3,3.17-.52,3.17-3.4v-9c0-2.79-.26-2.93-2.6-3.36v-1a25.47,25.47,0,0,0,6-1.79v3.5c.87-.66,1.82-1.31,2.91-2.06a6.65,6.65,0,0,1,3.59-1.31c3.43,0,5.6,2.41,5.6,6.64v8.44c0,3,.21,3.14,2.73,3.4v1.14Z" transform="translate(0 -0.22)"/><path class="cls-1" d="M127.05,33.87a6.61,6.61,0,0,0-5.68-3.57h0L135,27.43l-13.63-2.86h0A11.08,11.08,0,0,1,128.14,22c3,0,5.59-3.74,3.93-6.58,0,0-.49,4.46-6.08,3a6.59,6.59,0,0,0-6.52,1.52h0l7.62-11.74-11.64,7.69h0a11.07,11.07,0,0,1,3-6.62c2.09-2.17,1.33-6.64-1.83-7.47,0,0,2.78,3.51-2.22,6.44A6.69,6.69,0,0,0,110.85,14h0L108,.22,105.16,14h0a11.07,11.07,0,0,1-2.53-6.81c0-3-3.72-5.64-6.53-4,0,0,4.43.5,3,6.13a6.68,6.68,0,0,0,1.51,6.57h0L88.91,8.19l6.22,9.56,1.41,2.17h0a11,11,0,0,1-6.57-3c-2.15-2.11-6.58-1.34-7.4,1.85C82.56,18.76,86,16,89,21a6.6,6.6,0,0,0,5.68,3.57h0L81,27.43l13.63,2.86h0a11,11,0,0,1-6.77,2.55c-3,0-5.59,3.74-3.94,6.58,0,0,.49-4.46,6.09-3a6.59,6.59,0,0,0,6.52-1.52h0L88.91,46.67,100.55,39a11.12,11.12,0,0,1-3,6.63c-2.08,2.16-1.32,6.62,1.84,7.46,0,0-2.79-3.51,2.21-6.44a6.69,6.69,0,0,0,3.55-5.73h0L108,54.64l2.84-13.73h0a11.13,11.13,0,0,1,2.53,6.81c0,3,3.71,5.64,6.53,4,0,0-4.43-.49-3-6.13A6.7,6.7,0,0,0,115.44,39h0l11.64,7.69-4-6.2-3.6-5.54A11,11,0,0,1,126,38c2.16,2.1,6.59,1.33,7.41-1.85,0,0-3.48,2.8-6.39-2.24" transform="translate(0 -0.22)"/></svg>