<svg id="Layer_1" data-name="Layer 1" xmlns="http://www.w3.org/2000/svg" viewBox="0 0 215.24 28.35"><defs><style>.cls-1{fill:#fff;}.cls-2{fill:#ffcd00;}</style></defs><title>si_logo-primary-white-yellow</title><path class="cls-1" d="M122.05,173.8c-.64-2.28-1.56-4.74-4.67-4.74a3.74,3.74,0,0,0-3.95,3.92c0,2.61,1.71,3.82,4.52,5.28s6.17,3.1,6.17,7.09c0,3.75-3.17,6.74-7.91,6.74a12.53,12.53,0,0,1-3.5-.53,11.7,11.7,0,0,1-1.74-.75,44.1,44.1,0,0,1-1-5.53l1-.25c.57,2.18,2.17,5.78,5.85,5.78a4,4,0,0,0,4.27-4.28c0-2.64-2-3.89-4.63-5.31-2.28-1.21-5.88-3-5.88-7,0-3.43,2.74-6.35,7.34-6.35a14.69,14.69,0,0,1,4.49.82c.15,1.28.32,2.67.61,4.92Z" transform="translate(-72.38 -165.83)"/><path class="cls-1" d="M146,191.56v-.93c2.1-.21,2.49-.36,2.49-2.89v-6c0-2.53-.89-4.14-3.13-4.14a6.6,6.6,0,0,0-4,1.86,8.45,8.45,0,0,1,.11,1.5v7c0,2.24.32,2.46,2.28,2.67v.93H136.1v-.93c2.21-.21,2.53-.39,2.53-2.74v-6.14c0-2.63-.92-4.1-3.1-4.1a6.62,6.62,0,0,0-3.88,1.86v8.38c0,2.31.28,2.53,2,2.74v.93h-7.53v-.93c2.36-.21,2.68-.43,2.68-2.74v-7.38c0-2.29-.11-2.46-2.18-2.78v-.83a21.18,21.18,0,0,0,5-1.46v2.89c.75-.5,1.53-1.14,2.6-1.82a5.31,5.31,0,0,1,2.93-1,4.25,4.25,0,0,1,4,2.92,34.18,34.18,0,0,1,3-2,4.94,4.94,0,0,1,2.68-.93c2.78,0,4.52,2,4.52,5.46v6.88c0,2.38.29,2.53,2.32,2.74v.93Z" transform="translate(-72.38 -165.83)"/><path class="cls-1" d="M155.53,191.56v-.93c2.25-.21,2.5-.43,2.5-2.85v-7.35c0-2.21-.11-2.35-2.25-2.7v-.86a22.65,22.65,0,0,0,5.06-1.39v12.3c0,2.42.25,2.64,2.54,2.85v.93Zm1.89-20.93a1.83,1.83,0,0,1,1.82-1.85,1.78,1.78,0,0,1,1.78,1.85,1.83,1.83,0,0,1-1.82,1.82A1.87,1.87,0,0,1,157.42,170.63Z" transform="translate(-72.38 -165.83)"/><path class="cls-1" d="M171.72,191.52a3.69,3.69,0,0,1-1.5.47c-2.25,0-3.49-1.43-3.49-4.25V177.37h-2.46l-.15-.36,1-1h1.64v-2.6L169,171l.5.07V176h4a1,1,0,0,1-.21,1.39h-3.82v9.16c0,2.89,1.18,3.42,2.07,3.42a5.1,5.1,0,0,0,2.21-.6l.32.92Z" transform="translate(-72.38 -165.83)"/><path class="cls-1" d="M185.37,191.56v-.93c2.07-.21,2.35-.43,2.35-2.74V182c0-2.93-1.1-4.39-3.49-4.39a5,5,0,0,0-3.71,1.82v8.49c0,2.28.18,2.53,2.28,2.74v.93h-7.55v-.93c2.14-.18,2.46-.39,2.46-2.74v-17c0-2.25-.07-2.42-2.43-2.64v-.82a38.79,38.79,0,0,0,5.24-1.25v12c1.25-1.28,3.18-2.6,5.1-2.6,2.89,0,4.92,1.82,4.92,6.1v6.24c0,2.35.25,2.56,2.35,2.74v.93Z" transform="translate(-72.38 -165.83)"/><path class="cls-1" d="M203.84,180.18c-.68-2.1-1.93-3.52-3.67-3.52a2.33,2.33,0,0,0-2.32,2.46c0,1.6,1.43,2.42,3,3.1,2.67,1.1,4.49,2.39,4.49,4.85,0,3.24-3,4.92-5.88,4.92a7.1,7.1,0,0,1-4.1-1.22,16.76,16.76,0,0,1-.57-4.2l.93-.18c.64,2.35,2.24,4.42,4.38,4.42a2.49,2.49,0,0,0,2.53-2.5c0-1.56-1-2.42-2.81-3.24-2.14-1-4.46-2.18-4.46-4.92,0-2.5,2.14-4.6,5.42-4.6a8.19,8.19,0,0,1,3.17.61,26.53,26.53,0,0,1,.79,3.81Z" transform="translate(-72.38 -165.83)"/><path class="cls-1" d="M223.59,183.5c0,5.74-4.21,8.49-7.74,8.49a7.72,7.72,0,0,1-7.8-7.88,8.12,8.12,0,0,1,7.8-8.56A7.74,7.74,0,0,1,223.59,183.5ZM211.36,183c0,4.49,2,7.84,4.89,7.84,2.21,0,4-1.64,4-6.53,0-4.17-1.67-7.55-4.77-7.55C213.29,176.73,211.36,178.94,211.36,183Z" transform="translate(-72.38 -165.83)"/><path class="cls-1" d="M235.71,191.56v-.93c2.11-.21,2.36-.5,2.36-3v-5.95c0-2.46-.86-4.07-3.25-4.07a6.42,6.42,0,0,0-3.89,1.82v8.38c0,2.42.22,2.57,2.32,2.78v.93h-7.73v-.93c2.42-.25,2.6-.43,2.6-2.78v-7.38c0-2.28-.22-2.39-2.14-2.74v-.83a20.92,20.92,0,0,0,5-1.46v2.86c.72-.54,1.5-1.07,2.39-1.68a5.5,5.5,0,0,1,3-1.07c2.82,0,4.6,2,4.6,5.42v6.88c0,2.42.18,2.57,2.25,2.78v.93Z" transform="translate(-72.38 -165.83)"/><path class="cls-1" d="M245.12,191.56v-.93c2.25-.21,2.5-.43,2.5-2.85v-7.35c0-2.21-.11-2.35-2.25-2.7v-.86a22.89,22.89,0,0,0,5.07-1.39v12.3c0,2.42.25,2.64,2.53,2.85v.93ZM247,170.63a1.83,1.83,0,0,1,1.82-1.85,1.78,1.78,0,0,1,1.78,1.85,1.82,1.82,0,0,1-1.81,1.82A1.88,1.88,0,0,1,247,170.63Z" transform="translate(-72.38 -165.83)"/><path class="cls-1" d="M266.05,192a3,3,0,0,1-1.67-.68,3.67,3.67,0,0,1-.86-1.61c-1.43,1-3.14,2.29-4.21,2.29a4.31,4.31,0,0,1-4.28-4.35c0-1.75.93-2.86,2.89-3.53a26.14,26.14,0,0,0,5.53-2.32v-.64c0-2.57-1.21-4-3-4a2,2,0,0,0-1.6.71,5.2,5.2,0,0,0-1.07,2.35,1,1,0,0,1-1,.83,1.74,1.74,0,0,1-1.57-1.54c0-.53.46-.92,1.14-1.42a15.7,15.7,0,0,1,5.35-2.5,4.66,4.66,0,0,1,2.92,1c1.25,1,1.6,2.5,1.6,4.35v6.63c0,1.61.65,2.14,1.25,2.14a2.78,2.78,0,0,0,1.29-.39l.35.93Zm-2.6-9c-.75.39-2.46,1.14-3.21,1.5-1.39.64-2.18,1.32-2.18,2.6a2.61,2.61,0,0,0,2.54,2.75,5.11,5.11,0,0,0,2.85-1.29Z" transform="translate(-72.38 -165.83)"/><path class="cls-1" d="M280.21,191.56v-.93c2.1-.21,2.35-.5,2.35-3v-5.95c0-2.46-.86-4.07-3.25-4.07a6.42,6.42,0,0,0-3.88,1.82v8.38c0,2.42.21,2.57,2.32,2.78v.93H270v-.93c2.42-.25,2.6-.43,2.6-2.78v-7.38c0-2.28-.21-2.39-2.14-2.74v-.83a21.13,21.13,0,0,0,5-1.46v2.86c.71-.54,1.5-1.07,2.39-1.68a5.44,5.44,0,0,1,3-1.07c2.81,0,4.59,2,4.59,5.42v6.88c0,2.42.18,2.57,2.25,2.78v.93Z" transform="translate(-72.38 -165.83)"/><path class="cls-2" d="M96.55,183.36a3.44,3.44,0,0,0-3-1.86h0l7.16-1.49-7.16-1.49h0a5.79,5.79,0,0,1,3.55-1.33,2.41,2.41,0,0,0,2.07-3.43s-.26,2.33-3.19,1.55a3.51,3.51,0,0,0-3.43.79h0l4-6.11-6.12,4h0A5.86,5.86,0,0,1,92,170.53a2.4,2.4,0,0,0-1-3.88s1.46,1.82-1.16,3.35a3.45,3.45,0,0,0-1.86,3h0l-1.49-7.15L85.06,173h0a5.81,5.81,0,0,1-1.33-3.55,2.41,2.41,0,0,0-3.43-2.07s2.33.26,1.55,3.2a3.47,3.47,0,0,0,.8,3.42h0l-6.11-4h0l3.26,5,.75,1.13h0a5.75,5.75,0,0,1-3.45-1.57,2.4,2.4,0,0,0-3.88,1S75,174,76.55,176.65a3.49,3.49,0,0,0,3,1.86h0L72.38,180l7.15,1.49h0A5.68,5.68,0,0,1,76,182.82a2.41,2.41,0,0,0-2.07,3.43s.26-2.33,3.2-1.55a3.46,3.46,0,0,0,3.42-.79h0l-4,6.11,6.11-4a5.73,5.73,0,0,1-1.57,3.45,2.41,2.41,0,0,0,1,3.89s-1.46-1.83,1.17-3.36a3.49,3.49,0,0,0,1.86-3h0l1.49,7.15L88,187h0a5.75,5.75,0,0,1,1.33,3.55,2.41,2.41,0,0,0,3.43,2.07s-2.33-.26-1.55-3.19a3.47,3.47,0,0,0-.79-3.43h0l6.12,4-2.12-3.22-1.89-2.89h0A5.72,5.72,0,0,1,96,185.48a2.41,2.41,0,0,0,3.89-1S98.08,186,96.55,183.36Z" transform="translate(-72.38 -165.83)"/></svg>