<?xml version="1.0" encoding="utf-8"?>
<!-- Generator: Adobe Illustrator 22.1.0, SVG Export Plug-In . SVG Version: 6.00 Build 0)  -->
<svg version="1.1" id="Layer_1" xmlns="http://www.w3.org/2000/svg" xmlns:xlink="http://www.w3.org/1999/xlink" x="0px" y="0px"
	 viewBox="0 0 451.9 360" style="enable-background:new 0 0 451.9 360;" xml:space="preserve">
<style type="text/css">
	.st0{fill:#101820;}
	.st1{fill:#FFFFFF;}
</style>
<g>
	<path class="st0" d="M141.8,165.3c-0.6-2.3-1.6-4.8-4.7-4.8c-2.8,0-4,2-4,3.9c0,2.6,1.7,3.8,4.5,5.3c2.8,1.4,6.2,3.1,6.2,7.1
		c0,3.8-3.2,6.8-7.9,6.8c-1.5,0-2.6-0.3-3.5-0.5c-0.9-0.3-1.4-0.6-1.8-0.8c-0.3-0.8-0.8-3.8-1-5.5l1-0.2c0.6,2.2,2.2,5.8,5.9,5.8
		c2.7,0,4.3-1.7,4.3-4.3c0-2.6-2-3.9-4.7-5.3c-2.3-1.2-5.9-3-5.9-7c0-3.4,2.8-6.4,7.4-6.4c1.6,0,3.1,0.4,4.5,0.8
		c0.1,1.3,0.3,2.7,0.6,4.9L141.8,165.3z"/>
	<path class="st0" d="M165.8,183.1v-0.9c2.1-0.2,2.5-0.4,2.5-2.9v-6c0-2.5-0.9-4.2-3.1-4.2c-1.3,0-2.6,0.7-4,1.9
		c0.1,0.4,0.1,0.8,0.1,1.5v7c0,2.3,0.3,2.5,2.3,2.7v0.9h-7.7v-0.9c2.2-0.2,2.5-0.4,2.5-2.8v-6.2c0-2.6-0.9-4.1-3.1-4.1
		c-1.4,0-2.8,1-3.9,1.9v8.4c0,2.3,0.3,2.5,2,2.8v0.9h-7.5v-0.9c2.4-0.2,2.7-0.4,2.7-2.8V172c0-2.3-0.1-2.5-2.2-2.8v-0.8
		c1.6-0.3,3.4-0.8,5-1.5v2.9c0.8-0.5,1.5-1.1,2.6-1.8c0.9-0.6,1.8-1,2.9-1c1.7,0,3.3,1.1,4,2.9c1-0.8,2.1-1.5,3-2
		c0.8-0.5,1.7-0.9,2.7-0.9c2.8,0,4.5,2,4.5,5.5v6.9c0,2.4,0.3,2.5,2.3,2.8v0.9H165.8z"/>
	<path class="st0" d="M175.4,183.1v-0.9c2.3-0.2,2.5-0.4,2.5-2.9v-7.4c0-2.2-0.1-2.4-2.3-2.7v-0.9c1.8-0.3,3.5-0.8,5.1-1.4v12.3
		c0,2.4,0.3,2.6,2.5,2.9v0.9H175.4z M177.3,162.1c0-1.1,0.9-1.9,1.8-1.9c1,0,1.8,0.8,1.8,1.9c0,1-0.8,1.8-1.8,1.8
		C178.2,163.9,177.3,163,177.3,162.1z"/>
	<path class="st0" d="M191.6,183c-0.6,0.3-1.2,0.5-1.5,0.5c-2.3,0-3.5-1.4-3.5-4.3v-10.4h-2.5l-0.1-0.4l1-1h1.6v-2.6l2.3-2.4
		l0.5,0.1v4.9h4c0.3,0.4,0.2,1.1-0.2,1.4h-3.8v9.2c0,2.9,1.2,3.4,2.1,3.4s1.7-0.4,2.2-0.6l0.3,0.9L191.6,183z"/>
	<path class="st0" d="M205.3,183.1v-0.9c2.1-0.2,2.4-0.4,2.4-2.8v-5.9c0-2.9-1.1-4.4-3.5-4.4c-1.4,0-2.7,0.7-3.7,1.8v8.5
		c0,2.3,0.2,2.5,2.3,2.8v0.9h-7.6v-0.9c2.1-0.2,2.5-0.4,2.5-2.8v-17.1c0-2.3-0.1-2.4-2.4-2.6v-0.8c1.7-0.2,3.9-0.8,5.3-1.3v12
		c1.3-1.3,3.2-2.6,5.1-2.6c2.9,0,4.9,1.8,4.9,6.1v6.3c0,2.4,0.3,2.6,2.4,2.8v0.9H205.3z"/>
	<path class="st0" d="M223.9,171.7c-0.7-2.1-1.9-3.5-3.7-3.5c-1.4,0-2.3,1.1-2.3,2.5c0,1.6,1.4,2.4,3,3.1c2.7,1.1,4.5,2.4,4.5,4.9
		c0,3.3-3,4.9-5.9,4.9c-1.8,0-3.5-0.7-4.1-1.2c-0.3-0.5-0.6-2.9-0.6-4.2l0.9-0.2c0.6,2.4,2.3,4.4,4.4,4.4c1.3,0,2.5-1,2.5-2.5
		c0-1.6-1-2.4-2.8-3.3c-2.1-1-4.5-2.2-4.5-4.9c0-2.5,2.1-4.6,5.4-4.6c1.5,0,2.4,0.3,3.2,0.6c0.3,0.8,0.7,2.9,0.8,3.8L223.9,171.7z"
		/>
	<path class="st0" d="M243.7,175c0,5.8-4.2,8.5-7.8,8.5c-4.9,0-7.8-3.9-7.8-7.9c0-5.9,4.6-8.6,7.8-8.6
		C240.4,167,243.7,170.5,243.7,175z M231.4,174.5c0,4.5,2,7.9,4.9,7.9c2.2,0,4-1.6,4-6.5c0-4.2-1.7-7.6-4.8-7.6
		C233.4,168.2,231.4,170.4,231.4,174.5z"/>
	<path class="st0" d="M255.9,183.1v-0.9c2.1-0.2,2.4-0.5,2.4-3v-6c0-2.5-0.9-4.1-3.3-4.1c-1.4,0-2.8,0.9-3.9,1.8v8.4
		c0,2.4,0.2,2.6,2.3,2.8v0.9h-7.8v-0.9c2.4-0.2,2.6-0.4,2.6-2.8v-7.4c0-2.3-0.2-2.4-2.1-2.8v-0.8c1.7-0.3,3.4-0.8,5-1.5v2.9
		c0.7-0.5,1.5-1.1,2.4-1.7c1-0.6,1.9-1.1,3-1.1c2.8,0,4.6,2,4.6,5.4v6.9c0,2.4,0.2,2.6,2.3,2.8v0.9H255.9z"/>
	<path class="st0" d="M265.3,183.1v-0.9c2.3-0.2,2.5-0.4,2.5-2.9v-7.4c0-2.2-0.1-2.4-2.3-2.7v-0.9c1.8-0.3,3.5-0.8,5.1-1.4v12.3
		c0,2.4,0.3,2.6,2.5,2.9v0.9H265.3z M267.2,162.1c0-1.1,0.9-1.9,1.8-1.9c1,0,1.8,0.8,1.8,1.9c0,1-0.8,1.8-1.8,1.8
		C268.1,163.9,267.2,163,267.2,162.1z"/>
	<path class="st0" d="M286.3,183.5c-0.5,0-1.3-0.3-1.7-0.7c-0.5-0.5-0.7-1-0.9-1.6c-1.4,1-3.1,2.3-4.2,2.3c-2.5,0-4.3-2.1-4.3-4.4
		c0-1.8,0.9-2.9,2.9-3.5c2.1-0.7,4.8-1.7,5.5-2.3v-0.6c0-2.6-1.2-4-3-4c-0.7,0-1.3,0.3-1.6,0.7c-0.5,0.5-0.8,1.3-1.1,2.4
		c-0.1,0.6-0.5,0.8-1,0.8c-0.6,0-1.6-0.7-1.6-1.5c0-0.5,0.5-0.9,1.1-1.4c1-0.7,3.3-2.1,5.4-2.5c1.1,0,2.1,0.3,2.9,1
		c1.3,1,1.6,2.5,1.6,4.4v6.7c0,1.6,0.6,2.1,1.3,2.1c0.4,0,0.9-0.2,1.3-0.4l0.4,0.9L286.3,183.5z M283.7,174.5
		c-0.8,0.4-2.5,1.1-3.2,1.5c-1.4,0.6-2.2,1.3-2.2,2.6c0,1.9,1.4,2.8,2.5,2.8c0.9,0,2.2-0.6,2.9-1.3V174.5z"/>
	<path class="st0" d="M300.5,183.1v-0.9c2.1-0.2,2.4-0.5,2.4-3v-6c0-2.5-0.9-4.1-3.3-4.1c-1.4,0-2.8,0.9-3.9,1.8v8.4
		c0,2.4,0.2,2.6,2.3,2.8v0.9h-7.8v-0.9c2.4-0.2,2.6-0.4,2.6-2.8v-7.4c0-2.3-0.2-2.4-2.1-2.8v-0.8c1.7-0.3,3.4-0.8,5-1.5v2.9
		c0.7-0.5,1.5-1.1,2.4-1.7c1-0.6,1.9-1.1,3-1.1c2.8,0,4.6,2,4.6,5.4v6.9c0,2.4,0.2,2.6,2.3,2.8v0.9H300.5z"/>
	<path class="st0" d="M144.2,218.3v-1c2.9-0.2,3.2-0.4,3.2-3.5v-14.3c0-3-0.3-3.3-3.2-3.5v-1h9.5v1c-2.9,0.2-3.2,0.4-3.2,3.5v14.3
		c0,3.1,0.3,3.3,3.2,3.5v1H144.2z"/>
	<path class="st0" d="M165.8,218.3v-0.9c2.1-0.2,2.4-0.5,2.4-3v-6c0-2.5-0.9-4.1-3.3-4.1c-1.4,0-2.8,0.9-3.9,1.8v8.4
		c0,2.4,0.2,2.6,2.3,2.8v0.9h-7.8v-0.9c2.4-0.2,2.6-0.4,2.6-2.8v-7.4c0-2.3-0.2-2.4-2.1-2.8v-0.8c1.7-0.3,3.4-0.8,5-1.5v2.9
		c0.7-0.5,1.5-1.1,2.4-1.7c1-0.6,1.9-1.1,3-1.1c2.8,0,4.6,2,4.6,5.4v6.9c0,2.4,0.2,2.6,2.3,2.8v0.9H165.8z"/>
	<path class="st0" d="M184.3,206.9c-0.7-2.1-1.9-3.5-3.7-3.5c-1.4,0-2.3,1.1-2.3,2.5c0,1.6,1.4,2.4,3,3.1c2.7,1.1,4.5,2.4,4.5,4.9
		c0,3.3-3,4.9-5.9,4.9c-1.8,0-3.5-0.7-4.1-1.2c-0.3-0.5-0.6-2.9-0.6-4.2l0.9-0.2c0.6,2.4,2.3,4.4,4.4,4.4c1.3,0,2.5-1,2.5-2.5
		c0-1.6-1-2.4-2.8-3.3c-2.1-1-4.5-2.2-4.5-4.9c0-2.5,2.1-4.6,5.4-4.6c1.5,0,2.4,0.3,3.2,0.6c0.3,0.8,0.7,2.9,0.8,3.8L184.3,206.9z"
		/>
	<path class="st0" d="M195,218.2c-0.6,0.3-1.2,0.5-1.5,0.5c-2.3,0-3.5-1.4-3.5-4.3V204h-2.5l-0.1-0.4l1-1h1.6V200l2.3-2.4l0.5,0.1
		v4.9h4c0.3,0.4,0.2,1.1-0.2,1.4h-3.8v9.2c0,2.9,1.2,3.4,2.1,3.4s1.7-0.4,2.2-0.6l0.3,0.9L195,218.2z"/>
	<path class="st0" d="M199,218.3v-0.9c2.3-0.2,2.5-0.4,2.5-2.9v-7.4c0-2.2-0.1-2.4-2.3-2.7v-0.9c1.8-0.3,3.5-0.8,5.1-1.4v12.3
		c0,2.4,0.3,2.6,2.5,2.9v0.9H199z M200.9,197.3c0-1.1,0.9-1.9,1.8-1.9c1,0,1.8,0.8,1.8,1.9c0,1-0.8,1.8-1.8,1.8
		C201.7,199.1,200.9,198.2,200.9,197.3z"/>
	<path class="st0" d="M215.2,218.2c-0.6,0.3-1.2,0.5-1.5,0.5c-2.3,0-3.5-1.4-3.5-4.3V204h-2.5l-0.1-0.4l1-1h1.6V200l2.3-2.4l0.5,0.1
		v4.9h4c0.3,0.4,0.2,1.1-0.2,1.4H213v9.2c0,2.9,1.2,3.4,2.1,3.4s1.7-0.4,2.2-0.6l0.3,0.9L215.2,218.2z"/>
	<path class="st0" d="M236.1,217.4c-1.6,0.2-3.5,0.8-5.3,1.3l-0.2-0.2v-2.5c-0.8,0.6-1.6,1.3-2.6,1.9c-1,0.6-1.8,0.9-2.8,0.9
		c-2.4,0-4.4-1.5-4.4-5.3v-7c0-2-0.1-2.1-2.2-2.5V203c1.7-0.1,3.4-0.3,5.1-0.6c-0.1,1.1-0.1,2.8-0.1,5.2v4.8c0,3.2,1.5,4,3.1,4
		c1.3,0,2.6-0.5,3.9-1.7v-8.3c0-2-0.2-2.2-2.8-2.5V203c1.9-0.1,3.7-0.2,5.6-0.6v12c0,1.8,0.3,2,1.6,2.1l1,0.1V217.4z"/>
	<path class="st0" d="M244.3,218.2c-0.6,0.3-1.2,0.5-1.5,0.5c-2.3,0-3.5-1.4-3.5-4.3V204h-2.5l-0.1-0.4l1-1h1.6V200l2.3-2.4l0.5,0.1
		v4.9h4c0.3,0.4,0.2,1.1-0.2,1.4h-3.8v9.2c0,2.9,1.2,3.4,2.1,3.4s1.7-0.4,2.2-0.6l0.3,0.9L244.3,218.2z"/>
	<path class="st0" d="M248.3,218.3v-0.9c2.3-0.2,2.5-0.4,2.5-2.9v-7.4c0-2.2-0.1-2.4-2.3-2.7v-0.9c1.8-0.3,3.5-0.8,5.1-1.4v12.3
		c0,2.4,0.3,2.6,2.5,2.9v0.9H248.3z M250.2,197.3c0-1.1,0.9-1.9,1.8-1.9c1,0,1.8,0.8,1.8,1.9c0,1-0.8,1.8-1.8,1.8
		C251.1,199.1,250.2,198.2,250.2,197.3z"/>
	<path class="st0" d="M273.7,210.2c0,5.8-4.2,8.5-7.8,8.5c-4.9,0-7.8-3.9-7.8-7.9c0-5.9,4.6-8.6,7.8-8.6
		C270.4,202.2,273.7,205.8,273.7,210.2z M261.4,209.7c0,4.5,2,7.9,4.9,7.9c2.2,0,4-1.6,4-6.5c0-4.2-1.7-7.6-4.8-7.6
		C263.4,203.4,261.4,205.6,261.4,209.7z"/>
	<path class="st0" d="M285.9,218.3v-0.9c2.1-0.2,2.4-0.5,2.4-3v-6c0-2.5-0.9-4.1-3.3-4.1c-1.4,0-2.8,0.9-3.9,1.8v8.4
		c0,2.4,0.2,2.6,2.3,2.8v0.9h-7.8v-0.9c2.4-0.2,2.6-0.4,2.6-2.8v-7.4c0-2.3-0.2-2.4-2.1-2.8v-0.8c1.7-0.3,3.4-0.8,5-1.5v2.9
		c0.7-0.5,1.5-1.1,2.4-1.7c1-0.6,1.9-1.1,3-1.1c2.8,0,4.6,2,4.6,5.4v6.9c0,2.4,0.2,2.6,2.3,2.8v0.9H285.9z"/>
</g>
<g>
	<circle class="st0" cx="218.8" cy="118.9" r="28.5"/>
	<path class="st1" d="M236,124.7c-1.8-3.2-4.7-3.2-5.1-3.2c0,0,0,0,0,0l12.3-2.5l-12.3-2.6l0,0c0.1-0.1,2.5-2.2,6.1-2.3
		c2.7,0,5-3.3,3.6-5.9c0,0-0.5,4-5.5,2.7c-3.5-0.9-5.6,1.1-5.9,1.3l0,0l6.9-10.5l-10.5,6.9c0,0,0,0,0,0c0-0.2,0.2-3.3,2.7-5.9
		c1.9-1.9,1.2-5.9-1.6-6.7c0,0,2.5,3.1-2,5.8c-3.2,1.8-3.2,4.7-3.2,5.1l0,0l-2.5-12.3l-2.6,12.3c0,0,0,0,0,0
		c-0.1-0.1-2.2-2.5-2.3-6.1c0-2.7-3.3-5-5.9-3.6c0,0,4,0.5,2.7,5.5c-0.9,3.6,1.1,5.6,1.3,5.9l0,0l-10.5-6.9l0,0l0,0l5.6,8.6l1.3,1.9
		c0,0,0,0,0,0c-0.1,0-3.3-0.2-5.9-2.7c-1.9-1.9-5.9-1.2-6.7,1.6c0,0,3.1-2.5,5.8,2c1.8,3.2,4.8,3.2,5.1,3.2c0,0,0,0,0,0l-12.3,2.5
		l12.3,2.6v0c-0.1,0.1-2.5,2.2-6.1,2.3c-2.7,0-5,3.3-3.6,5.9c0,0,0.5-4,5.5-2.7c3.6,0.9,5.6-1.1,5.9-1.3c0,0,0,0,0,0l-6.9,10.5
		l10.5-6.9c0,0.1-0.2,3.3-2.7,5.9c-1.9,1.9-1.2,5.9,1.6,6.7c0,0-2.5-3.1,2-5.8c3.2-1.8,3.2-4.8,3.2-5.1c0,0,0,0,0,0l2.5,12.3
		l2.6-12.3l0,0c0.1,0.1,2.2,2.5,2.3,6.1c0,2.7,3.3,5,5.9,3.6c0,0-4-0.4-2.7-5.5c0.9-3.6-1.1-5.6-1.3-5.9c0,0,0,0,0,0l10.5,6.9
		l-3.6-5.5l-3.2-5l0,0c0.1,0,3.3,0.2,5.9,2.7c1.9,1.9,5.9,1.2,6.7-1.6C241.7,126.7,238.6,129.2,236,124.7z"/>
</g>
</svg>
