<?xml version="1.0" encoding="utf-8"?>
<!-- Generator: Adobe Illustrator 22.1.0, SVG Export Plug-In . SVG Version: 6.00 Build 0)  -->
<svg version="1.1" id="Layer_1" xmlns="http://www.w3.org/2000/svg" xmlns:xlink="http://www.w3.org/1999/xlink" x="0px" y="0px"
	 viewBox="0 0 360 360" style="enable-background:new 0 0 360 360;" xml:space="preserve">
<style type="text/css">
	.st0{fill:#FFFFFF;}
</style>
<g>
	<path class="st0" d="M122.1,173.8c-0.6-2.3-1.6-4.7-4.7-4.7c-2.7,0-4,2-4,3.9c0,2.6,1.7,3.8,4.5,5.3c2.8,1.4,6.2,3.1,6.2,7.1
		c0,3.7-3.2,6.7-7.9,6.7c-1.5,0-2.6-0.3-3.5-0.5c-0.9-0.3-1.4-0.6-1.7-0.7c-0.3-0.7-0.7-3.8-1-5.5l1-0.2c0.6,2.2,2.2,5.8,5.8,5.8
		c2.7,0,4.3-1.7,4.3-4.3s-2-3.9-4.6-5.3c-2.3-1.2-5.9-3-5.9-7c0-3.4,2.7-6.3,7.3-6.3c1.6,0,3.1,0.4,4.5,0.8c0.1,1.3,0.3,2.7,0.6,4.9
		H122.1z"/>
	<path class="st0" d="M146,191.6v-0.9c2.1-0.2,2.5-0.4,2.5-2.9v-6c0-2.5-0.9-4.1-3.1-4.1c-1.3,0-2.6,0.7-4,1.9
		c0.1,0.4,0.1,0.8,0.1,1.5v7c0,2.2,0.3,2.5,2.3,2.7v0.9h-7.6v-0.9c2.2-0.2,2.5-0.4,2.5-2.7V182c0-2.6-0.9-4.1-3.1-4.1
		c-1.4,0-2.8,1-3.9,1.9v8.4c0,2.3,0.3,2.5,2,2.7v0.9h-7.5v-0.9c2.4-0.2,2.7-0.4,2.7-2.7v-7.4c0-2.3-0.1-2.5-2.2-2.8v-0.8
		c1.6-0.3,3.4-0.7,5-1.5v2.9c0.7-0.5,1.5-1.1,2.6-1.8c0.9-0.6,1.8-1,2.9-1c1.7,0,3.2,1.1,4,2.9c1-0.8,2.1-1.5,3-2
		c0.7-0.5,1.7-0.9,2.7-0.9c2.8,0,4.5,2,4.5,5.5v6.9c0,2.4,0.3,2.5,2.3,2.7v0.9H146V191.6z"/>
	<path class="st0" d="M155.5,191.6v-0.9c2.2-0.2,2.5-0.4,2.5-2.9v-7.3c0-2.2-0.1-2.4-2.2-2.7v-0.9c1.8-0.3,3.5-0.7,5.1-1.4v12.3
		c0,2.4,0.2,2.6,2.5,2.9v0.9L155.5,191.6L155.5,191.6z M157.4,170.6c0-1.1,0.9-1.9,1.8-1.9c1,0,1.8,0.8,1.8,1.9c0,1-0.8,1.8-1.8,1.8
		C158.3,172.4,157.4,171.6,157.4,170.6z"/>
	<path class="st0" d="M171.7,191.5c-0.6,0.3-1.2,0.5-1.5,0.5c-2.2,0-3.5-1.4-3.5-4.2v-10.4h-2.5l-0.1-0.4l1-1h1.6v-2.6l2.3-2.4
		l0.5,0.1v4.9h4c0.3,0.4,0.2,1.1-0.2,1.4h-3.8v9.2c0,2.9,1.2,3.4,2.1,3.4c0.9,0,1.7-0.4,2.2-0.6l0.3,0.9L171.7,191.5z"/>
	<path class="st0" d="M185.4,191.6v-0.9c2.1-0.2,2.4-0.4,2.4-2.7v-6c0-2.9-1.1-4.4-3.5-4.4c-1.4,0-2.7,0.7-3.7,1.8v8.5
		c0,2.3,0.2,2.5,2.3,2.7v0.9h-7.6v-0.9c2.1-0.2,2.5-0.4,2.5-2.7v-17c0-2.2-0.1-2.4-2.4-2.6v-0.8c1.7-0.2,3.9-0.8,5.2-1.2v12
		c1.2-1.3,3.2-2.6,5.1-2.6c2.9,0,4.9,1.8,4.9,6.1v6.2c0,2.4,0.2,2.6,2.4,2.7v0.9L185.4,191.6L185.4,191.6z"/>
	<path class="st0" d="M203.8,180.2c-0.7-2.1-1.9-3.5-3.7-3.5c-1.4,0-2.3,1.1-2.3,2.5c0,1.6,1.4,2.4,3,3.1c2.7,1.1,4.5,2.4,4.5,4.8
		c0,3.2-3,4.9-5.9,4.9c-1.8,0-3.5-0.7-4.1-1.2c-0.2-0.5-0.6-2.9-0.6-4.2l0.9-0.2c0.6,2.4,2.2,4.4,4.4,4.4c1.3,0,2.5-1,2.5-2.5
		c0-1.6-1-2.4-2.8-3.2c-2.1-1-4.5-2.2-4.5-4.9c0-2.5,2.1-4.6,5.4-4.6c1.5,0,2.4,0.3,3.2,0.6c0.3,0.8,0.7,2.9,0.8,3.8L203.8,180.2z"
		/>
	<path class="st0" d="M223.6,183.5c0,5.7-4.2,8.5-7.7,8.5c-4.9,0-7.8-3.9-7.8-7.9c0-5.9,4.6-8.6,7.8-8.6
		C220.3,175.6,223.6,179.1,223.6,183.5z M211.4,183c0,4.5,2,7.8,4.9,7.8c2.2,0,4-1.6,4-6.5c0-4.2-1.7-7.6-4.8-7.6
		C213.3,176.7,211.4,178.9,211.4,183z"/>
	<path class="st0" d="M235.7,191.6v-0.9c2.1-0.2,2.4-0.5,2.4-3v-6c0-2.5-0.9-4.1-3.2-4.1c-1.4,0-2.8,0.9-3.9,1.8v8.4
		c0,2.4,0.2,2.6,2.3,2.8v0.9h-7.7v-0.9c2.4-0.2,2.6-0.4,2.6-2.8v-7.4c0-2.3-0.2-2.4-2.1-2.7v-0.8c1.7-0.3,3.4-0.7,5-1.5v2.9
		c0.7-0.5,1.5-1.1,2.4-1.7c1-0.6,1.9-1.1,3-1.1c2.8,0,4.6,2,4.6,5.4v6.9c0,2.4,0.2,2.6,2.2,2.8v0.9h-7.6V191.6z"/>
	<path class="st0" d="M245.1,191.6v-0.9c2.2-0.2,2.5-0.4,2.5-2.9v-7.3c0-2.2-0.1-2.4-2.2-2.7v-0.9c1.8-0.3,3.5-0.7,5.1-1.4v12.3
		c0,2.4,0.2,2.6,2.5,2.9v0.9L245.1,191.6L245.1,191.6z M247,170.6c0-1.1,0.9-1.9,1.8-1.9c1,0,1.8,0.8,1.8,1.9c0,1-0.8,1.8-1.8,1.8
		C247.9,172.4,247,171.6,247,170.6z"/>
	<path class="st0" d="M266.1,192c-0.5,0-1.3-0.3-1.7-0.7c-0.5-0.5-0.7-1-0.9-1.6c-1.4,1-3.1,2.3-4.2,2.3c-2.5,0-4.3-2.1-4.3-4.3
		c0-1.7,0.9-2.9,2.9-3.5c2.1-0.7,4.7-1.7,5.5-2.3v-0.6c0-2.6-1.2-4-3-4c-0.7,0-1.2,0.3-1.6,0.7c-0.5,0.5-0.8,1.2-1.1,2.4
		c-0.1,0.6-0.5,0.8-1,0.8c-0.6,0-1.6-0.7-1.6-1.5c0-0.5,0.5-0.9,1.1-1.4c1-0.7,3.3-2.1,5.3-2.5c1.1,0,2.1,0.3,2.9,1
		c1.2,1,1.6,2.5,1.6,4.3v6.6c0,1.6,0.6,2.1,1.2,2.1c0.4,0,0.9-0.2,1.3-0.4l0.4,0.9L266.1,192z M263.4,183c-0.7,0.4-2.5,1.1-3.2,1.5
		c-1.4,0.6-2.2,1.3-2.2,2.6c0,1.9,1.4,2.7,2.5,2.7c0.9,0,2.2-0.6,2.9-1.3L263.4,183L263.4,183z"/>
	<path class="st0" d="M280.2,191.6v-0.9c2.1-0.2,2.4-0.5,2.4-3v-6c0-2.5-0.9-4.1-3.2-4.1c-1.4,0-2.8,0.9-3.9,1.8v8.4
		c0,2.4,0.2,2.6,2.3,2.8v0.9H270v-0.9c2.4-0.2,2.6-0.4,2.6-2.8v-7.4c0-2.3-0.2-2.4-2.1-2.7v-0.8c1.7-0.3,3.4-0.7,5-1.5v2.9
		c0.7-0.5,1.5-1.1,2.4-1.7c1-0.6,1.9-1.1,3-1.1c2.8,0,4.6,2,4.6,5.4v6.9c0,2.4,0.2,2.6,2.2,2.8v0.9h-7.5V191.6z"/>
</g>
<g>
	<path class="st0" d="M96.6,183.4c-1.1-1.8-2.8-1.9-3-1.9l0,0l7.2-1.5l-7.2-1.5l0,0c0.1-0.1,1.5-1.3,3.6-1.3c1.6,0,2.9-1.9,2.1-3.4
		c0,0-0.3,2.3-3.2,1.6c-2.1-0.5-3.3,0.6-3.4,0.8l0,0l4-6.1l-6.1,4l0,0c0-0.1,0.1-1.9,1.6-3.4c1.1-1.1,0.7-3.5-1-3.9
		c0,0,1.5,1.8-1.2,3.4c-1.8,1.1-1.9,2.8-1.9,3l0,0l-1.5-7.2l-1.5,7.2l0,0c-0.1-0.1-1.3-1.5-1.3-3.6c0-1.6-1.9-2.9-3.4-2.1
		c0,0,2.3,0.3,1.6,3.2c-0.5,2.1,0.6,3.3,0.8,3.4l0,0l-6.1-4l0,0l0,0l3.3,5l0.7,1.1l0,0c-0.1,0-1.9-0.1-3.5-1.6
		c-1.1-1.1-3.5-0.7-3.9,1c0,0,1.8-1.5,3.4,1.2c1.1,1.9,2.8,1.9,3,1.9l0,0l-7.2,1.5l7.2,1.5l0,0c0,0-1.4,1.3-3.6,1.3
		c-1.6,0-2.9,1.9-2.1,3.4c0,0,0.3-2.3,3.2-1.6c2.1,0.5,3.3-0.6,3.4-0.8l0,0l-4,6.1l6.1-4c0,0.1-0.1,1.9-1.6,3.5
		c-1.1,1.1-0.7,3.5,1,3.9c0,0-1.5-1.8,1.2-3.4c1.8-1.1,1.9-2.8,1.9-3l0,0l1.5,7.2L88,187l0,0c0.1,0.1,1.3,1.5,1.3,3.6
		c0,1.6,1.9,2.9,3.4,2.1c0,0-2.3-0.3-1.6-3.2c0.5-2.1-0.6-3.3-0.8-3.4l0,0l6.1,4l-2.1-3.2l-1.9-2.9l0,0c0.1,0,1.9,0.1,3.4,1.6
		c1.1,1.1,3.5,0.7,3.9-1C99.9,184.5,98.1,186,96.6,183.4z"/>
</g>
</svg>
