<svg xmlns="http://www.w3.org/2000/svg" viewBox="0 0 100 38" fill="#fff" height="30">
  <path d="M98.71 33.87l-.3.33c-.4.46-.82.81-1.24 1.06-.39.23-.91.35-1.53.35-1.5 0-1.76-.68-1.84-.91-.28-.73-.42-1.6-.42-2.58V11.91c0-2.34-.41-4.31-1.23-5.86-.81-1.55-1.93-2.79-3.31-3.7-1.37-.9-3.01-1.52-4.87-1.85-1.83-.33-3.8-.5-5.88-.5-1.81 0-3.57.2-5.25.58-1.68.39-3.21.96-4.54 1.71-1.35.76-2.45 1.74-3.26 2.89-.83 1.18-1.26 2.54-1.26 4.03 0 .99.17 1.8.5 2.4.33.6.74 1.07 1.23 1.41.48.33 1.05.55 1.68.64.59.08 1.17.13 1.72.13.38 0 .87-.01 1.44-.04.61-.03 1.21-.16 1.77-.4a3.83 3.83 0 0 0 1.5-1.14c.44-.54.66-1.27.66-2.18 0-.18-.03-.47-.08-.95-.05-.43-.11-.89-.16-1.38-.06-.49-.11-.94-.16-1.35-.07-.5-.08-.71-.08-.8 0-1.38.39-2.29 1.18-2.78.85-.53 1.87-.79 3.03-.79 1.81 0 2.99.52 3.62 1.59.66 1.13 1 2.4 1 3.78v4.97c0 .97-.14 1.76-.41 2.35-.27.58-.75 1.11-1.44 1.58-.73.49-1.77.97-3.11 1.42-1.35.45-3.17 1.01-5.4 1.67-1.35.43-2.68.89-3.96 1.35-1.31.47-2.49 1.1-3.52 1.85-.67.49-1.26 1.07-1.77 1.7-.27-1.96-1.02-3.65-2.26-5.03-1.56-1.73-3.86-3.14-6.84-4.19l-6.9-2.36c-1.32-.48-2.39-.97-3.17-1.47-.77-.49-1.33-.97-1.67-1.44-.34-.46-.56-.92-.66-1.35-.1-.45-.15-.86-.15-1.21 0-1.71.67-2.97 2.04-3.84 1.41-.9 2.99-1.36 4.69-1.36 1.61 0 2.97.25 4.05.74 1.08.49 2 1.17 2.74 2.01.76.86 1.42 1.88 1.97 3.04.56 1.17 1.11 2.43 1.66 3.73l.11.26h1.76V.98h-1.84l-.11.27c-.09.24-.21.45-.35.64 0 .01-.12.16-.8.16-.19 0-.55-.05-1.19-.3-.57-.22-1.23-.45-1.97-.7-.73-.24-1.56-.48-2.47-.7C50.74.11 49.74 0 48.68 0c-1.99 0-3.86.32-5.55.96-1.69.64-3.16 1.52-4.36 2.61a11.83 11.83 0 0 0-2.82 3.84c-.48 1.05-.79 2.16-.93 3.3-.21-.69-.45-1.35-.75-1.97-1-2.03-2.29-3.7-3.85-4.99A15.716 15.716 0 0 0 25.16.9c-4.64-1.46-9.4-1.14-13.42.71-2.34 1.07-4.4 2.5-6.13 4.24A19.952 19.952 0 0 0 1.5 11.9C.5 14.18 0 16.54 0 18.92c0 2.98.53 5.68 1.58 8.03 1.05 2.35 2.52 4.38 4.37 6.01s4.04 2.89 6.52 3.75c2.47.85 5.17 1.29 8.02 1.29 2.42 0 4.52-.36 6.25-1.05 2.23-.89 3.8-2.21 5.43-3.99.81-.89 1.64-2.22 2.28-3.33v7.31h1.85l.1-.27c.18-.48.33-.66.41-.73.06-.05.23-.14.66-.14.45 0 1.1.11 1.93.31.86.22 1.82.47 2.87.77 1.06.3 2.18.56 3.33.78 1.16.22 2.25.33 3.25.33 1.82 0 3.61-.28 5.33-.83 1.72-.56 3.25-1.36 4.56-2.39 1.11-.88 2.04-1.93 2.79-3.14.19.73.47 1.39.86 1.98.74 1.11 1.72 2 2.92 2.62 1.16.61 2.46 1.06 3.85 1.34 1.37.29 2.74.43 4.06.43 2.92 0 5.2-.4 6.77-1.19 1.38-.69 2.52-1.94 3.38-3.72a6.541 6.541 0 0 0 2.4 3.36c1.39 1.03 3.54 1.55 6.38 1.55 1.26 0 2.63-.11 4.08-.33 1.55-.24 2.75-.98 3.58-2.22l.19-.29-1.29-1.29zM12.09 10.52c.13-1.5.44-2.92.91-4.21.46-1.26 1.17-2.31 2.11-3.13.92-.8 2.26-1.2 3.99-1.2 1.19 0 2.13.27 2.78.8.67.55 1.16 1.23 1.46 2.02.31.83.49 1.66.54 2.49.05.88.08 1.59.08 2.17v5.04H11.83c.05-1.26.14-2.6.26-3.98zm42.46 23.12c-.52.78-1.16 1.36-1.88 1.74-.73.38-1.48.6-2.23.65-.79.05-1.44.08-1.92.08-1.82 0-3.37-.33-4.6-.97-1.25-.65-2.32-1.51-3.21-2.55-.89-1.05-1.68-2.28-2.34-3.66-.67-1.39-1.33-2.86-1.98-4.38l-.11-.26h-1.83v.04l-.06.49c-.03.31-.16 1.02-.71 2.25-.44.99-1.27 2.63-2.07 3.75-1.61 2.22-3.19 3.44-4.62 4.12-1.47.69-3.2 1.17-5.28 1.17-2.33 0-4.16-.49-5.43-1.46a9.474 9.474 0 0 1-2.96-3.79c-.68-1.55-1.11-3.31-1.27-5.24a72.55 72.55 0 0 1-.24-5.87V16.5h23.97v-.31c.49 1.04 1.11 1.95 1.84 2.71.76.79 1.6 1.43 2.5 1.91.88.47 1.72.85 2.49 1.12l6.58 2.44c1.43.53 2.57 1.05 3.38 1.55.79.49 1.4.99 1.8 1.49.39.49.65.98.77 1.43.13.48.19.95.19 1.4 0 1.49-.26 2.63-.78 3.4zm28.08-6.57c0 1.53-.16 2.85-.47 3.92-.31 1.06-.72 1.91-1.23 2.54-.5.63-1.06 1.09-1.68 1.39-.62.3-1.25.45-1.89.45-1.14 0-2.04-.26-2.66-.76a4.9 4.9 0 0 1-1.46-1.92c-.33-.77-.54-1.57-.62-2.4-.08-.85-.12-1.6-.12-2.24 0-1.56.24-2.84.73-3.8.49-.98 1.12-1.81 1.89-2.48.78-.68 1.67-1.24 2.66-1.69 1.03-.46 2.06-.94 3.1-1.43.8-.4 1.36-.76 1.69-1.1.02-.02.04-.04.05-.06v9.58z"></path>
</svg>