<?xml version="1.0" encoding="utf-8"?>
<!-- Generator: Adobe Illustrator 22.0.1, SVG Export Plug-In . SVG Version: 6.00 Build 0)  -->
<svg version="1.1" id="Layer_1" xmlns="http://www.w3.org/2000/svg" xmlns:xlink="http://www.w3.org/1999/xlink" x="0px" y="0px"
	 viewBox="0 0 451.9 360" style="enable-background:new 0 0 451.9 360;" xml:space="preserve">
<style type="text/css">
	.st0{fill:#FFFFFF;}
</style>
<g>
	<g>
		<path class="st0" d="M68.7,191.7c-2.2-3.7-5.6-3.8-6-3.8c0,0,0,0,0,0l14.4-3l-14.4-3l0,0c0.2-0.1,3-2.6,7.1-2.7
			c3.2,0,5.9-3.9,4.2-6.9c0,0-0.5,4.7-6.4,3.1c-4.2-1.1-6.6,1.3-6.9,1.6l0,0l8.1-12.3l-12.3,8c0,0,0,0,0,0c0-0.2,0.2-3.9,3.2-6.9
			c2.2-2.3,1.4-6.9-1.9-7.8c0,0,2.9,3.7-2.4,6.7c-3.7,2.2-3.8,5.6-3.8,6l0,0l-3-14.4l-3,14.4c0,0,0,0,0,0c-0.1-0.1-2.6-2.9-2.7-7.1
			c0-3.2-3.9-5.9-6.9-4.2c0,0,4.7,0.5,3.1,6.4c-1.1,4.2,1.3,6.6,1.6,6.9l0,0l-12.3-8.1l0,0l0,0l6.5,10l1.5,2.3c0,0,0,0,0,0
			c-0.1,0-3.9-0.2-6.9-3.2c-2.3-2.2-6.9-1.4-7.8,1.9c0,0,3.7-2.9,6.7,2.4c2.2,3.7,5.6,3.8,6,3.8c0,0,0,0,0,0l-14.4,3l14.4,3l0,0
			c-0.1,0.1-2.9,2.6-7.2,2.7c-3.2,0-5.9,3.9-4.2,6.9c0,0,0.5-4.7,6.4-3.1c4.2,1.1,6.6-1.3,6.9-1.6c0,0,0,0,0,0L28.4,205l12.3-8
			c0,0.1-0.2,3.9-3.2,6.9c-2.2,2.3-1.4,6.9,1.9,7.8c0,0-2.9-3.7,2.4-6.7c3.7-2.2,3.8-5.6,3.8-6c0,0,0,0,0,0l3,14.4l3-14.4l0,0
			c0.1,0.1,2.6,2.9,2.7,7.2c0,3.2,3.9,5.9,6.9,4.2c0,0-4.7-0.5-3.1-6.4c1.1-4.2-1.3-6.6-1.6-6.9c0,0,0,0,0,0l12.3,8.1l-4.2-6.5
			l-3.8-5.8l0,0c0.2,0,3.9,0.2,6.9,3.2c2.3,2.2,6.9,1.4,7.8-1.9C75.4,194,71.7,196.9,68.7,191.7z"/>
	</g>
	<g>
		<path class="st0" d="M103.8,178.8c-0.6-2.3-1.6-4.8-4.7-4.8c-2.8,0-4,2-4,3.9c0,2.6,1.7,3.8,4.5,5.3c2.8,1.4,6.2,3.1,6.2,7.1
			c0,3.8-3.2,6.8-7.9,6.8c-1.5,0-2.6-0.3-3.5-0.5c-0.9-0.3-1.4-0.6-1.8-0.8c-0.3-0.8-0.8-3.8-1-5.5l1-0.2c0.6,2.2,2.2,5.8,5.9,5.8
			c2.7,0,4.3-1.7,4.3-4.3c0-2.6-2-3.9-4.7-5.3c-2.3-1.2-5.9-3-5.9-7c0-3.4,2.8-6.4,7.4-6.4c1.6,0,3.1,0.4,4.5,0.8
			c0.1,1.3,0.3,2.7,0.6,4.9L103.8,178.8z"/>
		<path class="st0" d="M127.8,196.6v-0.9c2.1-0.2,2.5-0.4,2.5-2.9v-6c0-2.5-0.9-4.2-3.1-4.2c-1.3,0-2.6,0.7-4,1.9
			c0.1,0.4,0.1,0.8,0.1,1.5v7c0,2.3,0.3,2.5,2.3,2.7v0.9h-7.7v-0.9c2.2-0.2,2.5-0.4,2.5-2.8v-6.2c0-2.6-0.9-4.1-3.1-4.1
			c-1.4,0-2.8,1-3.9,1.9v8.4c0,2.3,0.3,2.5,2,2.8v0.9h-7.5v-0.9c2.4-0.2,2.7-0.4,2.7-2.8v-7.4c0-2.3-0.1-2.5-2.2-2.8v-0.8
			c1.6-0.3,3.4-0.8,5-1.5v2.9c0.8-0.5,1.5-1.1,2.6-1.8c0.9-0.6,1.8-1,2.9-1c1.7,0,3.3,1.1,4,2.9c1-0.8,2.1-1.5,3-2
			c0.8-0.5,1.7-0.9,2.7-0.9c2.8,0,4.5,2,4.5,5.5v6.9c0,2.4,0.3,2.5,2.3,2.8v0.9H127.8z"/>
		<path class="st0" d="M137.4,196.6v-0.9c2.3-0.2,2.5-0.4,2.5-2.9v-7.4c0-2.2-0.1-2.4-2.3-2.7v-0.9c1.8-0.3,3.5-0.8,5.1-1.4v12.3
			c0,2.4,0.3,2.6,2.5,2.9v0.9H137.4z M139.3,175.6c0-1.1,0.9-1.9,1.8-1.9c1,0,1.8,0.8,1.8,1.9c0,1-0.8,1.8-1.8,1.8
			C140.1,177.5,139.3,176.6,139.3,175.6z"/>
		<path class="st0" d="M153.6,196.6c-0.6,0.3-1.2,0.5-1.5,0.5c-2.3,0-3.5-1.4-3.5-4.3v-10.4h-2.5L146,182l1-1h1.6v-2.6l2.3-2.4
			l0.5,0.1v4.9h4c0.3,0.4,0.2,1.1-0.2,1.4h-3.8v9.2c0,2.9,1.2,3.4,2.1,3.4s1.7-0.4,2.2-0.6l0.3,0.9L153.6,196.6z"/>
		<path class="st0" d="M167.3,196.6v-0.9c2.1-0.2,2.4-0.4,2.4-2.8V187c0-2.9-1.1-4.4-3.5-4.4c-1.4,0-2.7,0.7-3.7,1.8v8.5
			c0,2.3,0.2,2.5,2.3,2.8v0.9h-7.6v-0.9c2.1-0.2,2.5-0.4,2.5-2.8v-17.1c0-2.3-0.1-2.4-2.4-2.6v-0.8c1.7-0.2,3.9-0.8,5.3-1.3v12
			c1.3-1.3,3.2-2.6,5.1-2.6c2.9,0,4.9,1.8,4.9,6.1v6.3c0,2.4,0.3,2.6,2.4,2.8v0.9H167.3z"/>
		<path class="st0" d="M185.9,185.2c-0.7-2.1-1.9-3.5-3.7-3.5c-1.4,0-2.3,1.1-2.3,2.5c0,1.6,1.4,2.4,3,3.1c2.7,1.1,4.5,2.4,4.5,4.9
			c0,3.3-3,4.9-5.9,4.9c-1.8,0-3.5-0.7-4.1-1.2c-0.3-0.5-0.6-2.9-0.6-4.2l0.9-0.2c0.6,2.4,2.3,4.4,4.4,4.4c1.3,0,2.5-1,2.5-2.5
			c0-1.6-1-2.4-2.8-3.3c-2.1-1-4.5-2.2-4.5-4.9c0-2.5,2.1-4.6,5.4-4.6c1.5,0,2.4,0.3,3.2,0.6c0.3,0.8,0.7,2.9,0.8,3.8L185.9,185.2z"
			/>
		<path class="st0" d="M205.7,188.5c0,5.8-4.2,8.5-7.8,8.5c-4.9,0-7.8-3.9-7.8-7.9c0-5.9,4.6-8.6,7.8-8.6
			C202.4,180.6,205.7,184.1,205.7,188.5z M193.4,188c0,4.5,2,7.9,4.9,7.9c2.2,0,4-1.6,4-6.5c0-4.2-1.7-7.6-4.8-7.6
			C195.3,181.7,193.4,184,193.4,188z"/>
		<path class="st0" d="M217.8,196.6v-0.9c2.1-0.2,2.4-0.5,2.4-3v-6c0-2.5-0.9-4.1-3.3-4.1c-1.4,0-2.8,0.9-3.9,1.8v8.4
			c0,2.4,0.2,2.6,2.3,2.8v0.9h-7.8v-0.9c2.4-0.2,2.6-0.4,2.6-2.8v-7.4c0-2.3-0.2-2.4-2.1-2.8v-0.8c1.7-0.3,3.4-0.8,5-1.5v2.9
			c0.7-0.5,1.5-1.1,2.4-1.7c1-0.6,1.9-1.1,3-1.1c2.8,0,4.6,2,4.6,5.4v6.9c0,2.4,0.2,2.6,2.3,2.8v0.9H217.8z"/>
		<path class="st0" d="M227.3,196.6v-0.9c2.3-0.2,2.5-0.4,2.5-2.9v-7.4c0-2.2-0.1-2.4-2.3-2.7v-0.9c1.8-0.3,3.5-0.8,5.1-1.4v12.3
			c0,2.4,0.3,2.6,2.5,2.9v0.9H227.3z M229.2,175.6c0-1.1,0.9-1.9,1.8-1.9c1,0,1.8,0.8,1.8,1.9c0,1-0.8,1.8-1.8,1.8
			C230,177.5,229.2,176.6,229.2,175.6z"/>
		<path class="st0" d="M248.3,197.1c-0.5,0-1.3-0.3-1.7-0.7c-0.5-0.5-0.7-1-0.9-1.6c-1.4,1-3.1,2.3-4.2,2.3c-2.5,0-4.3-2.1-4.3-4.4
			c0-1.8,0.9-2.9,2.9-3.5c2.1-0.7,4.8-1.7,5.5-2.3v-0.6c0-2.6-1.2-4-3-4c-0.7,0-1.3,0.3-1.6,0.7c-0.5,0.5-0.8,1.3-1.1,2.4
			c-0.1,0.6-0.5,0.8-1,0.8c-0.6,0-1.6-0.7-1.6-1.5c0-0.5,0.5-0.9,1.1-1.4c1-0.7,3.3-2.1,5.4-2.5c1.1,0,2.1,0.3,2.9,1
			c1.3,1,1.6,2.5,1.6,4.4v6.7c0,1.6,0.6,2.1,1.3,2.1c0.4,0,0.9-0.2,1.3-0.4l0.4,0.9L248.3,197.1z M245.7,188
			c-0.8,0.4-2.5,1.1-3.2,1.5c-1.4,0.6-2.2,1.3-2.2,2.6c0,1.9,1.4,2.8,2.5,2.8c0.9,0,2.2-0.6,2.9-1.3V188z"/>
		<path class="st0" d="M262.5,196.6v-0.9c2.1-0.2,2.4-0.5,2.4-3v-6c0-2.5-0.9-4.1-3.3-4.1c-1.4,0-2.8,0.9-3.9,1.8v8.4
			c0,2.4,0.2,2.6,2.3,2.8v0.9h-7.8v-0.9c2.4-0.2,2.6-0.4,2.6-2.8v-7.4c0-2.3-0.2-2.4-2.1-2.8v-0.8c1.7-0.3,3.4-0.8,5-1.5v2.9
			c0.7-0.5,1.5-1.1,2.4-1.7c1-0.6,1.9-1.1,3-1.1c2.8,0,4.6,2,4.6,5.4v6.9c0,2.4,0.2,2.6,2.3,2.8v0.9H262.5z"/>
		<path class="st0" d="M280.3,196.6v-1c2.9-0.2,3.2-0.4,3.2-3.5v-14.3c0-3-0.3-3.3-3.2-3.5v-1h9.5v1c-2.9,0.2-3.2,0.4-3.2,3.5v14.3
			c0,3.1,0.3,3.3,3.2,3.5v1H280.3z"/>
		<path class="st0" d="M301.8,196.6v-0.9c2.1-0.2,2.4-0.5,2.4-3v-6c0-2.5-0.9-4.1-3.3-4.1c-1.4,0-2.8,0.9-3.9,1.8v8.4
			c0,2.4,0.2,2.6,2.3,2.8v0.9h-7.8v-0.9c2.4-0.2,2.6-0.4,2.6-2.8v-7.4c0-2.3-0.2-2.4-2.1-2.8v-0.8c1.7-0.3,3.4-0.8,5-1.5v2.9
			c0.7-0.5,1.5-1.1,2.4-1.7c1-0.6,1.9-1.1,3-1.1c2.8,0,4.6,2,4.6,5.4v6.9c0,2.4,0.2,2.6,2.3,2.8v0.9H301.8z"/>
		<path class="st0" d="M320.3,185.2c-0.7-2.1-1.9-3.5-3.7-3.5c-1.4,0-2.3,1.1-2.3,2.5c0,1.6,1.4,2.4,3,3.1c2.7,1.1,4.5,2.4,4.5,4.9
			c0,3.3-3,4.9-5.9,4.9c-1.8,0-3.5-0.7-4.1-1.2c-0.2-0.5-0.6-2.9-0.6-4.2l0.9-0.2c0.6,2.4,2.3,4.4,4.4,4.4c1.3,0,2.5-1,2.5-2.5
			c0-1.6-1-2.4-2.8-3.3c-2.1-1-4.5-2.2-4.5-4.9c0-2.5,2.1-4.6,5.4-4.6c1.5,0,2.4,0.3,3.2,0.6c0.3,0.8,0.7,2.9,0.8,3.8L320.3,185.2z"
			/>
		<path class="st0" d="M331,196.6c-0.6,0.3-1.2,0.5-1.5,0.5c-2.3,0-3.5-1.4-3.5-4.3v-10.4h-2.5l-0.1-0.4l1-1h1.6v-2.6l2.3-2.4
			l0.5,0.1v4.9h4c0.3,0.4,0.2,1.1-0.2,1.4h-3.8v9.2c0,2.9,1.2,3.4,2.1,3.4s1.7-0.4,2.2-0.6l0.3,0.9L331,196.6z"/>
		<path class="st0" d="M335,196.6v-0.9c2.3-0.2,2.5-0.4,2.5-2.9v-7.4c0-2.2-0.1-2.4-2.3-2.7v-0.9c1.8-0.3,3.5-0.8,5.1-1.4v12.3
			c0,2.4,0.3,2.6,2.5,2.9v0.9H335z M336.9,175.6c0-1.1,0.9-1.9,1.8-1.9c1,0,1.8,0.8,1.8,1.9c0,1-0.8,1.8-1.8,1.8
			C337.8,177.5,336.9,176.6,336.9,175.6z"/>
		<path class="st0" d="M351.2,196.6c-0.6,0.3-1.2,0.5-1.5,0.5c-2.3,0-3.5-1.4-3.5-4.3v-10.4h-2.5l-0.1-0.4l1-1h1.6v-2.6l2.3-2.4
			l0.5,0.1v4.9h4c0.3,0.4,0.2,1.1-0.2,1.4h-3.8v9.2c0,2.9,1.2,3.4,2.1,3.4s1.7-0.4,2.2-0.6l0.3,0.9L351.2,196.6z"/>
		<path class="st0" d="M372.1,195.8c-1.6,0.2-3.5,0.8-5.3,1.3l-0.2-0.2v-2.5c-0.8,0.6-1.6,1.3-2.6,1.9c-1,0.6-1.8,0.9-2.8,0.9
			c-2.4,0-4.4-1.5-4.4-5.3v-7c0-2-0.1-2.1-2.2-2.5v-0.8c1.7-0.1,3.4-0.3,5.1-0.6c-0.1,1.1-0.1,2.8-0.1,5.2v4.8c0,3.2,1.5,4,3.1,4
			c1.3,0,2.6-0.5,3.9-1.7v-8.3c0-2-0.2-2.2-2.8-2.5v-0.8c1.9-0.1,3.7-0.2,5.6-0.6v12c0,1.8,0.3,2,1.6,2.1l1,0.1V195.8z"/>
		<path class="st0" d="M380.4,196.6c-0.6,0.3-1.2,0.5-1.5,0.5c-2.3,0-3.5-1.4-3.5-4.3v-10.4h-2.5l-0.1-0.4l1-1h1.6v-2.6l2.3-2.4
			l0.5,0.1v4.9h4c0.3,0.4,0.2,1.1-0.2,1.4h-3.8v9.2c0,2.9,1.2,3.4,2.1,3.4s1.7-0.4,2.2-0.6l0.3,0.9L380.4,196.6z"/>
		<path class="st0" d="M384.4,196.6v-0.9c2.3-0.2,2.5-0.4,2.5-2.9v-7.4c0-2.2-0.1-2.4-2.3-2.7v-0.9c1.8-0.3,3.5-0.8,5.1-1.4v12.3
			c0,2.4,0.2,2.6,2.5,2.9v0.9H384.4z M386.3,175.6c0-1.1,0.9-1.9,1.8-1.9c1,0,1.8,0.8,1.8,1.9c0,1-0.8,1.8-1.8,1.8
			C387.1,177.5,386.3,176.6,386.3,175.6z"/>
		<path class="st0" d="M409.7,188.5c0,5.8-4.2,8.5-7.8,8.5c-4.9,0-7.8-3.9-7.8-7.9c0-5.9,4.6-8.6,7.8-8.6
			C406.4,180.6,409.7,184.1,409.7,188.5z M397.5,188c0,4.5,2,7.9,4.9,7.9c2.2,0,4-1.6,4-6.5c0-4.2-1.7-7.6-4.8-7.6
			C399.4,181.7,397.5,184,397.5,188z"/>
		<path class="st0" d="M421.9,196.6v-0.9c2.1-0.2,2.4-0.5,2.4-3v-6c0-2.5-0.9-4.1-3.3-4.1c-1.4,0-2.8,0.9-3.9,1.8v8.4
			c0,2.4,0.2,2.6,2.3,2.8v0.9h-7.8v-0.9c2.4-0.2,2.6-0.4,2.6-2.8v-7.4c0-2.3-0.2-2.4-2.1-2.8v-0.8c1.7-0.3,3.4-0.8,5-1.5v2.9
			c0.7-0.5,1.5-1.1,2.4-1.7c1-0.6,1.9-1.1,3-1.1c2.8,0,4.6,2,4.6,5.4v6.9c0,2.4,0.2,2.6,2.3,2.8v0.9H421.9z"/>
	</g>
</g>
</svg>
