<?xml version="1.0" encoding="UTF-8"?>
<svg id="Layer_1" xmlns="http://www.w3.org/2000/svg" version="1.1" viewBox="0 0 360 59.8">
  <!-- Generator: Adobe Illustrator 29.1.0, SVG Export Plug-In . SVG Version: 2.1.0 Build 142)  -->
  <defs>
    <style>
      .st0 {
        fill: #00a564;
      }

      .st0, .st1 {
        fill-rule: evenodd;
      }

      .st1, .st2 {
        fill: #21428f;
      }
    </style>
  </defs>
  <path class="st1" d="M192.9,9.6h1.3l4.3,6.7,4.5-6.7h1.3v11h-1.3v-8.6l-4.5,6.5-4.3-6.5v8.6h-1.3v-11Z"/>
  <path class="st2" d="M208.6,12h-1.3v8.6h1.3v-8.6Z"/>
  <path class="st1" d="M213,13.3v6.1h2.4c2.1,0,3.2-1.3,3.2-3s-1.3-3-3.2-3h-2.4ZM220.1,16.3c0,2.4-1.6,4.1-4.6,4.1h-3.8v-8.4h3.8c2.9,0,4.6,1.9,4.6,4.3Z"/>
  <path class="st2" d="M225.5,14.5h-4.3v1.3h4.3v-1.3Z"/>
  <path class="st1" d="M234.4,16.3l-2.4-4.9-2.4,4.9h4.8ZM231.4,9.6h1.1l5.4,11h-1.4l-1.4-3h-6.1l-1.4,3h-1.4l5.3-11Z"/>
  <path class="st1" d="M240.6,13.3h-3.5v-1.3h8.4v1.3h-3.7v7.3h-1.3v-7.3Z"/>
  <path class="st1" d="M246.8,12h1.4v7.3h6.2v1.3h-7.7v-8.6Z"/>
  <path class="st1" d="M260.9,17.2l-1.6-3.2-1.6,3.2h3.2ZM258.8,12h.8l4.3,8.4h-1.4l-1.1-2.2h-4.5l-1.1,2.2h-1.4l4.5-8.4Z"/>
  <path class="st1" d="M265.2,12h.8l5.4,6.1v-6.1h1.3v8.6h-.8l-5.4-6.1v6.1h-1.3v-8.6Z"/>
  <path class="st1" d="M277.6,13.3h-3.7v-1.3h8.6v1.3h-3.7v7.3h-1.3v-7.3Z"/>
  <path class="st2" d="M285.1,12h-1.3v8.6h1.3v-8.6Z"/>
  <path class="st1" d="M292.5,20.8c-3,0-5.1-1.9-5.1-4.5s2.1-4.5,5.1-4.5,3.5.8,4.3,2.1l-1.1.8c-.6-1-1.9-1.4-3.3-1.4-2.2,0-3.8,1.4-3.8,3.2s1.6,3.2,3.8,3.2,2.7-.6,3.5-1.9l1.1.8c-.8,1.4-2.4,2.2-4.5,2.2Z"/>
  <path class="st1" d="M202.8,31.8c0-2.6-1.8-4.5-4.3-4.5s-4.3,1.9-4.3,4.5,1.9,4.5,4.3,4.5,4.3-1.8,4.3-4.5ZM192.9,31.8c0-3.3,2.4-5.7,5.7-5.7s5.7,2.4,5.7,5.7-2.4,5.7-5.7,5.7c-3.3.2-5.7-2.4-5.7-5.7Z"/>
  <path class="st1" d="M210.9,37.6c-3,0-5.1-1.9-5.1-4.5s2.1-4.5,5.1-4.5,3.5.8,4.3,2.1l-1.1.8c-.6-1-1.9-1.4-3.3-1.4-2.2,0-3.8,1.4-3.8,3.2s1.6,3.2,3.8,3.2,2.7-.6,3.5-1.9l1.1.8c-1,1.4-2.6,2.2-4.5,2.2Z"/>
  <path class="st1" d="M217.6,28.8h8.1v1.3h-6.7v2.1h4.3v1.3h-4.3v2.7h7v1.3h-8.5v-8.6Z"/>
  <path class="st1" d="M232.8,34l-1.6-3.2-1.6,3.2h3.2ZM230.7,28.8h.8l4.3,8.4h-1.4l-1.1-2.2h-4.5l-1.1,2.2h-1.4l4.5-8.4Z"/>
  <path class="st1" d="M237.1,28.8h.8l5.4,6.1v-6.1h1.3v8.6h-.8l-5.4-6.1v6.1h-1.3v-8.6Z"/>
  <path class="st1" d="M253.4,27.7v8.4h3.3c2.9,0,4.3-1.8,4.3-4.1s-1.6-4.3-4.3-4.3h-3.3ZM262.5,31.8c0,3.2-2.1,5.4-5.7,5.4h-4.8v-11h4.8c3.7.2,5.7,2.6,5.7,5.6Z"/>
  <path class="st1" d="M269.5,34.1l-1.6-3.2-1.6,3.2h3.2ZM267.5,28.8h.8l4.3,8.4h-1.4l-1.1-2.2h-4.5l-1.1,2.2h-1.4l4.5-8.4Z"/>
  <path class="st1" d="M275.3,30.1h-3.7v-1.3h8.5v1.3h-3.5v7.3h-1.3v-7.3Z"/>
  <path class="st1" d="M285.5,34.1l-1.6-3.2-1.8,3.2h3.3ZM283.4,28.8h.8l4.3,8.4h-1.4l-1.1-2.2h-4.5l-1.1,2.2h-1.4l4.5-8.4Z"/>
  <path class="st1" d="M300.8,31.2c1.4,0,2.1-.6,2.1-1.8s-.6-1.9-2.1-1.9h-4.9v3.7h4.9ZM294.6,26.2h6.4c2.2,0,3.5,1.1,3.5,3s-1.3,3.2-3.2,3.2h-5.1v4.8h-1.4v-11h-.2Z"/>
  <path class="st1" d="M314.4,32.9c0-1.8-1.4-3.2-3.8-3.2s-3.8,1.4-3.8,3.2,1.4,3.2,3.8,3.2c2.2.2,3.8-1.3,3.8-3.2ZM305.3,32.9c0-2.6,2.1-4.5,5.3-4.5s5.3,1.9,5.3,4.5-2.1,4.5-5.3,4.5-5.3-1.9-5.3-4.5Z"/>
  <path class="st1" d="M323.8,32.3c1,0,1.4-.5,1.4-1.1s-.5-1.1-1.4-1.1h-4.6v2.2h4.6ZM319.2,37.2h-1.3v-8.4h5.9c1.8,0,2.7,1,2.7,2.4s-.8,2.2-2.1,2.4l2.4,3.7h-1.4l-2.4-3.7h-3.8v3.7Z"/>
  <path class="st1" d="M331,29.9h-3.7v-1.3h8.6v1.3h-3.7v7.3h-1.3v-7.3Z"/>
  <path class="st1" d="M341.2,33.9l-1.6-3.2-1.8,3.2h3.3ZM339.1,28.6h.8l4.3,8.4h-1.4l-1.1-2.2h-4.5l-1.1,2.2h-1.4l4.5-8.4Z"/>
  <path class="st1" d="M345.6,28.6h1.3v7.3h6.4v1.3h-7.7v-8.6Z"/>
  <path class="st1" d="M6.7,7.2h3.8l13.2,20.1,13.4-20.1h3.8v32.8h-4.1V14.4l-13.1,19.4L10.9,14.4v25.7h-4.1V7.2Z"/>
  <path class="st1" d="M67.6,27.3l-7.3-14.5-7.2,14.5h14.5ZM58.7,7.2h3.3l16.3,32.8h-4.5l-4.5-8.9h-18l-4.3,8.9h-4.5L58.7,7.2Z"/>
  <path class="st1" d="M98.9,21.9c4.1,0,6.2-1.9,6.2-5.4s-2.1-5.4-6.1-5.4h-14.7v10.8h14.5ZM80.2,7.2h18.8c6.5,0,10.4,3.3,10.4,9.1s-3,8.4-7.8,9.2l8.3,14.5h-4.5l-8.3-14.3h-12.8v14.3h-4.1V7.2Z"/>
  <path class="st1" d="M143.4,31.9c-3,5.7-8.5,8.9-15.1,8.9-9.9,0-17.1-7.2-17.1-17.2s7.2-17.2,17.1-17.2,11.3,2.9,14.4,7.7l-3.3,2.4c-2.1-4-6.2-6.2-11-6.2-7.3,0-12.8,5.6-12.8,13.4s5.4,13.4,12.8,13.4,9.2-2.6,11.8-7.5l3.3,2.4Z"/>
  <path class="st0" d="M179.4,23.7c0-9.6-7.8-17.4-17.4-17.4s-17.4,7.8-17.4,17.4,5.1,14.3,12.3,16.6l5.3,13.2,5.6-13.4c6.7-2.4,11.6-8.9,11.6-16.4ZM162.2,36.1c-7,0-12.6-5.6-12.6-12.6s5.6-12.6,12.6-12.6,12.6,5.6,12.6,12.6-5.7,12.6-12.6,12.6Z"/>
</svg>