<svg id="Layer_1" data-name="Layer 1" xmlns="http://www.w3.org/2000/svg" viewBox="0 0 409.22 56.91"><defs><style>.cls-1{fill:#009cde;}.cls-2{fill:#ffcd00;}.cls-3{fill:#101820;}</style></defs><title>si-institution_logo-horizontal-clr</title><circle class="cls-1" cx="28.46" cy="28.46" r="28.46"/><path class="cls-2" d="M65.73,190.66a6,6,0,0,0-5.1-3.21h0l12.28-2.53-12.27-2.58h0a10,10,0,0,1,6.1-2.26c2.7,0,5-3.34,3.56-5.88,0,0-.46,4-5.49,2.65a6,6,0,0,0-5.88,1.35h0l6.89-10.48-10.51,6.86h0A10,10,0,0,1,58,168.63c1.89-1.94,1.21-5.93-1.64-6.68,0,0,2.5,3.14-2,5.76a6,6,0,0,0-3.2,5.11h0l-2.53-12.29-2.58,12.28h0a10,10,0,0,1-2.27-6.1c0-2.71-3.33-5.05-5.88-3.56,0,0,4,.45,2.66,5.49a6,6,0,0,0,1.34,5.88h0l-10.48-6.9h0L37,176.19l1.27,1.94h0a9.88,9.88,0,0,1-5.92-2.71c-1.93-1.88-5.93-1.21-6.67,1.64,0,0,3.14-2.5,5.75,2a6,6,0,0,0,5.11,3.2h0l-12.28,2.54,12.27,2.58h0a9.94,9.94,0,0,1-6.1,2.27c-2.7,0-5.05,3.33-3.56,5.88,0,0,.45-4,5.49-2.65a6,6,0,0,0,5.88-1.35h0L31.34,202l10.51-6.86a10,10,0,0,1-2.71,5.92c-1.89,1.94-1.21,5.93,1.64,6.67,0,0-2.51-3.14,2-5.75A6,6,0,0,0,46,196.91h0l2.53,12.28,2.59-12.27h0a9.9,9.9,0,0,1,2.26,6.1c0,2.7,3.34,5,5.88,3.56,0,0-4-.45-2.65-5.49a6,6,0,0,0-1.34-5.88h0l10.48,6.89-3.61-5.55-3.24-5h0a10,10,0,0,1,5.92,2.72c1.93,1.88,5.92,1.21,6.67-1.64C71.49,192.67,68.35,195.17,65.73,190.66Z" transform="translate(-20.12 -156.41)"/><path class="cls-3" d="M103.8,178.81c-.64-2.29-1.57-4.76-4.69-4.76a3.76,3.76,0,0,0-4,3.94c0,2.61,1.72,3.83,4.55,5.29s6.19,3.12,6.19,7.13c0,3.75-3.19,6.76-7.95,6.76a12.43,12.43,0,0,1-3.5-.54,11.74,11.74,0,0,1-1.76-.75,44.46,44.46,0,0,1-1-5.55l1-.25c.58,2.19,2.19,5.8,5.87,5.8a4,4,0,0,0,4.3-4.29c0-2.65-2-3.9-4.66-5.34-2.29-1.21-5.9-3-5.9-7,0-3.44,2.76-6.37,7.37-6.37a14.82,14.82,0,0,1,4.51.82c.14,1.29.32,2.68.61,4.94Z" transform="translate(-20.12 -156.41)"/><path class="cls-3" d="M127.81,196.63v-.93c2.11-.21,2.5-.36,2.5-2.9v-6c0-2.54-.89-4.15-3.15-4.15a6.52,6.52,0,0,0-4,1.86,8.6,8.6,0,0,1,.1,1.5v7c0,2.25.32,2.47,2.29,2.68v.93H117.9v-.93c2.21-.21,2.54-.39,2.54-2.75v-6.16c0-2.65-.93-4.11-3.12-4.11a6.64,6.64,0,0,0-3.9,1.86V193c0,2.32.29,2.54,2,2.75v.93h-7.55v-.93c2.36-.21,2.69-.43,2.69-2.75v-7.41c0-2.29-.11-2.47-2.19-2.79v-.82a22.38,22.38,0,0,0,5-1.47v2.9c.75-.51,1.54-1.15,2.61-1.83a5.34,5.34,0,0,1,2.93-1,4.27,4.27,0,0,1,4,2.94,32.33,32.33,0,0,1,3-2,4.93,4.93,0,0,1,2.69-.94c2.79,0,4.54,2,4.54,5.48V193c0,2.39.29,2.54,2.33,2.75v.93Z" transform="translate(-20.12 -156.41)"/><path class="cls-3" d="M137.39,196.63v-.93c2.25-.21,2.5-.43,2.5-2.86v-7.37c0-2.22-.1-2.36-2.25-2.72v-.86a22.45,22.45,0,0,0,5.08-1.4v12.35c0,2.43.25,2.65,2.54,2.86v.93Zm1.9-21a1.83,1.83,0,0,1,1.82-1.86,1.79,1.79,0,0,1,1.79,1.86,1.84,1.84,0,0,1-1.83,1.82A1.87,1.87,0,0,1,139.29,175.63Z" transform="translate(-20.12 -156.41)"/><path class="cls-3" d="M153.63,196.59a3.54,3.54,0,0,1-1.5.47c-2.25,0-3.51-1.43-3.51-4.26V182.39h-2.47L146,182l1-1h1.64v-2.61L151,176l.5.07V181h4a1,1,0,0,1-.21,1.4h-3.83v9.2c0,2.89,1.18,3.43,2.08,3.43a5.1,5.1,0,0,0,2.21-.61l.33.93Z" transform="translate(-20.12 -156.41)"/><path class="cls-3" d="M167.33,196.63v-.93c2.08-.21,2.37-.43,2.37-2.75V187c0-2.94-1.11-4.41-3.51-4.41a5,5,0,0,0-3.72,1.83V193c0,2.29.18,2.54,2.29,2.75v.93h-7.59v-.93c2.15-.18,2.47-.39,2.47-2.75V175.88c0-2.26-.07-2.44-2.43-2.65v-.82a39.06,39.06,0,0,0,5.26-1.26v12c1.25-1.29,3.18-2.62,5.11-2.62,2.9,0,4.94,1.83,4.94,6.12V193c0,2.36.25,2.57,2.36,2.75v.93Z" transform="translate(-20.12 -156.41)"/><path class="cls-3" d="M185.87,185.22c-.68-2.11-1.94-3.55-3.69-3.55a2.34,2.34,0,0,0-2.33,2.47c0,1.61,1.44,2.44,3.05,3.12,2.68,1.11,4.5,2.39,4.5,4.86,0,3.26-3,4.94-5.9,4.94a7.14,7.14,0,0,1-4.11-1.22,16.35,16.35,0,0,1-.58-4.22l.93-.18c.65,2.36,2.26,4.44,4.4,4.44a2.49,2.49,0,0,0,2.54-2.5c0-1.58-1-2.44-2.82-3.26-2.15-1-4.47-2.18-4.47-4.94,0-2.5,2.14-4.62,5.43-4.62a8.46,8.46,0,0,1,3.19.61,28.57,28.57,0,0,1,.79,3.83Z" transform="translate(-20.12 -156.41)"/><path class="cls-3" d="M205.68,188.54c0,5.76-4.22,8.52-7.76,8.52a7.76,7.76,0,0,1-7.84-7.91,8.16,8.16,0,0,1,7.84-8.59A7.76,7.76,0,0,1,205.68,188.54ZM193.41,188c0,4.51,2,7.87,4.9,7.87,2.22,0,4.05-1.65,4.05-6.55,0-4.19-1.68-7.58-4.8-7.58C195.34,181.75,193.41,184,193.41,188Z" transform="translate(-20.12 -156.41)"/><path class="cls-3" d="M217.85,196.63v-.93c2.11-.21,2.36-.5,2.36-3v-6c0-2.47-.86-4.08-3.26-4.08a6.42,6.42,0,0,0-3.9,1.82v8.41c0,2.43.22,2.58,2.33,2.79v.93h-7.77v-.93c2.44-.25,2.62-.43,2.62-2.79V185.5c0-2.29-.22-2.39-2.15-2.75v-.82a22.08,22.08,0,0,0,5-1.47v2.86c.72-.54,1.5-1.07,2.4-1.68a5.44,5.44,0,0,1,3-1.08c2.83,0,4.61,2,4.61,5.44v6.91c0,2.43.18,2.58,2.26,2.79v.93Z" transform="translate(-20.12 -156.41)"/><path class="cls-3" d="M227.29,196.63v-.93c2.25-.21,2.5-.43,2.5-2.86v-7.37c0-2.22-.1-2.36-2.25-2.72v-.86a22.45,22.45,0,0,0,5.08-1.4v12.35c0,2.43.25,2.65,2.54,2.86v.93Zm1.9-21a1.83,1.83,0,0,1,1.82-1.86,1.79,1.79,0,0,1,1.79,1.86,1.84,1.84,0,0,1-1.83,1.82A1.87,1.87,0,0,1,229.19,175.63Z" transform="translate(-20.12 -156.41)"/><path class="cls-3" d="M248.29,197.06a2.88,2.88,0,0,1-1.68-.68,3.67,3.67,0,0,1-.86-1.61c-1.43,1-3.15,2.29-4.22,2.29a4.32,4.32,0,0,1-4.3-4.36c0-1.76.93-2.87,2.9-3.55a25.65,25.65,0,0,0,5.55-2.32v-.65c0-2.57-1.22-4-3-4a2.06,2.06,0,0,0-1.61.71,5.35,5.35,0,0,0-1.07,2.37,1,1,0,0,1-1,.82,1.75,1.75,0,0,1-1.57-1.54c0-.54.46-.93,1.14-1.43a16,16,0,0,1,5.37-2.51,4.67,4.67,0,0,1,2.93,1c1.26,1,1.61,2.51,1.61,4.37v6.65c0,1.61.65,2.15,1.26,2.15a2.61,2.61,0,0,0,1.28-.4l.36.94Zm-2.61-9c-.75.4-2.47,1.15-3.22,1.51-1.4.64-2.18,1.32-2.18,2.61a2.61,2.61,0,0,0,2.54,2.75,5.09,5.09,0,0,0,2.86-1.28Z" transform="translate(-20.12 -156.41)"/><path class="cls-3" d="M262.49,196.63v-.93c2.11-.21,2.36-.5,2.36-3v-6c0-2.47-.85-4.08-3.25-4.08a6.39,6.39,0,0,0-3.9,1.82v8.41c0,2.43.21,2.58,2.32,2.79v.93h-7.76v-.93c2.43-.25,2.61-.43,2.61-2.79V185.5c0-2.29-.21-2.39-2.15-2.75v-.82a22.32,22.32,0,0,0,5-1.47v2.86c.71-.54,1.5-1.07,2.4-1.68a5.44,5.44,0,0,1,3-1.08c2.82,0,4.61,2,4.61,5.44v6.91c0,2.43.18,2.58,2.26,2.79v.93Z" transform="translate(-20.12 -156.41)"/><path class="cls-3" d="M280.27,196.63v-1c2.93-.22,3.22-.43,3.22-3.47V177.85c0-3-.29-3.26-3.22-3.47v-1h9.48v1c-2.93.21-3.22.42-3.22,3.47v14.31c0,3.08.29,3.25,3.22,3.47v1Z" transform="translate(-20.12 -156.41)"/><path class="cls-3" d="M301.81,196.63v-.93c2.11-.21,2.36-.5,2.36-3v-6c0-2.47-.86-4.08-3.26-4.08a6.42,6.42,0,0,0-3.9,1.82v8.41c0,2.43.22,2.58,2.33,2.79v.93h-7.77v-.93c2.44-.25,2.62-.43,2.62-2.79V185.5c0-2.29-.22-2.39-2.15-2.75v-.82a22.08,22.08,0,0,0,5-1.47v2.86c.72-.54,1.51-1.07,2.4-1.68a5.44,5.44,0,0,1,3-1.08c2.83,0,4.62,2,4.62,5.44v6.91c0,2.43.18,2.58,2.25,2.79v.93Z" transform="translate(-20.12 -156.41)"/><path class="cls-3" d="M320.34,185.22c-.68-2.11-1.93-3.55-3.69-3.55a2.33,2.33,0,0,0-2.32,2.47c0,1.61,1.43,2.44,3,3.12,2.68,1.11,4.51,2.39,4.51,4.86,0,3.26-3,4.94-5.91,4.94a7.14,7.14,0,0,1-4.11-1.22,16.87,16.87,0,0,1-.57-4.22l.93-.18c.64,2.36,2.25,4.44,4.4,4.44a2.5,2.5,0,0,0,2.54-2.5c0-1.58-1-2.44-2.83-3.26-2.15-1-4.47-2.18-4.47-4.94,0-2.5,2.15-4.62,5.44-4.62a8.44,8.44,0,0,1,3.18.61,27.09,27.09,0,0,1,.79,3.83Z" transform="translate(-20.12 -156.41)"/><path class="cls-3" d="M331,196.59a3.54,3.54,0,0,1-1.5.47c-2.26,0-3.51-1.43-3.51-4.26V182.39h-2.47l-.14-.36,1-1H326v-2.61l2.33-2.36.5.07V181h4a1,1,0,0,1-.21,1.4h-3.83v9.2c0,2.89,1.18,3.43,2.07,3.43a5.1,5.1,0,0,0,2.22-.61l.32.93Z" transform="translate(-20.12 -156.41)"/><path class="cls-3" d="M335,196.63v-.93c2.26-.21,2.51-.43,2.51-2.86v-7.37c0-2.22-.11-2.36-2.26-2.72v-.86a22.54,22.54,0,0,0,5.09-1.4v12.35c0,2.43.25,2.65,2.54,2.86v.93Zm1.9-21a1.84,1.84,0,0,1,1.82-1.86,1.78,1.78,0,0,1,1.79,1.86,1.83,1.83,0,0,1-1.82,1.82A1.88,1.88,0,0,1,336.9,175.63Z" transform="translate(-20.12 -156.41)"/><path class="cls-3" d="M351.25,196.59a3.53,3.53,0,0,1-1.51.47c-2.25,0-3.5-1.43-3.5-4.26V182.39h-2.47l-.14-.36,1-1h1.65v-2.61l2.32-2.36.5.07V181h4.05a1,1,0,0,1-.22,1.4h-3.83v9.2c0,2.89,1.19,3.43,2.08,3.43a5.14,5.14,0,0,0,2.22-.61l.32.93Z" transform="translate(-20.12 -156.41)"/><path class="cls-3" d="M372.11,195.77a39.52,39.52,0,0,0-5.27,1.29l-.21-.21V194.3c-.82.61-1.65,1.26-2.65,1.87a5.15,5.15,0,0,1-2.75.89c-2.4,0-4.44-1.47-4.44-5.33v-7c0-2-.14-2.12-2.18-2.51v-.82a41.28,41.28,0,0,0,5.11-.65c-.1,1.11-.1,2.8-.1,5.23v4.79c0,3.19,1.54,4.05,3.15,4.05a5.58,5.58,0,0,0,3.86-1.72v-8.34c0-2-.21-2.18-2.79-2.54v-.82a37.68,37.68,0,0,0,5.62-.65v12c0,1.78.28,2,1.64,2.11l1,.07Z" transform="translate(-20.12 -156.41)"/><path class="cls-3" d="M380.37,196.59a3.53,3.53,0,0,1-1.51.47c-2.25,0-3.5-1.43-3.5-4.26V182.39h-2.47l-.14-.36,1-1h1.65v-2.61l2.32-2.36.5.07V181h4.05a1,1,0,0,1-.22,1.4h-3.83v9.2c0,2.89,1.19,3.43,2.08,3.43a5.14,5.14,0,0,0,2.22-.61l.32.93Z" transform="translate(-20.12 -156.41)"/><path class="cls-3" d="M384.37,196.63v-.93c2.26-.21,2.51-.43,2.51-2.86v-7.37c0-2.22-.11-2.36-2.26-2.72v-.86a22.31,22.31,0,0,0,5.08-1.4v12.35c0,2.43.25,2.65,2.54,2.86v.93Zm1.9-21a1.84,1.84,0,0,1,1.82-1.86,1.79,1.79,0,0,1,1.79,1.86,1.83,1.83,0,0,1-1.82,1.82A1.88,1.88,0,0,1,386.27,175.63Z" transform="translate(-20.12 -156.41)"/><path class="cls-3" d="M409.74,188.54c0,5.76-4.22,8.52-7.77,8.52a7.75,7.75,0,0,1-7.83-7.91,8.16,8.16,0,0,1,7.83-8.59A7.77,7.77,0,0,1,409.74,188.54ZM397.47,188c0,4.51,2,7.87,4.9,7.87,2.22,0,4-1.65,4-6.55,0-4.19-1.68-7.58-4.79-7.58C399.4,181.75,397.47,184,397.47,188Z" transform="translate(-20.12 -156.41)"/><path class="cls-3" d="M421.9,196.63v-.93c2.11-.21,2.36-.5,2.36-3v-6c0-2.47-.86-4.08-3.25-4.08a6.37,6.37,0,0,0-3.9,1.82v8.41c0,2.43.21,2.58,2.32,2.79v.93h-7.76v-.93c2.43-.25,2.61-.43,2.61-2.79V185.5c0-2.29-.22-2.39-2.15-2.75v-.82a22.32,22.32,0,0,0,5-1.47v2.86c.71-.54,1.5-1.07,2.39-1.68a5.49,5.49,0,0,1,3-1.08c2.83,0,4.62,2,4.62,5.44v6.91c0,2.43.18,2.58,2.25,2.79v.93Z" transform="translate(-20.12 -156.41)"/></svg>