<?xml version="1.0" encoding="UTF-8" standalone="no"?>
<!-- Generator: Adobe Illustrator 24.0.0, SVG Export Plug-In . SVG Version: 6.00 Build 0)  -->

<svg
   version="1.0"
   id="Layer_1"
   x="0px"
   y="0px"
   viewBox="0 0 1500.9886 528.79993"
   enable-background="new 0 0 1807.64 758.19"
   xml:space="preserve"
   sodipodi:docname="elter.svg"
   width="1500.9886"
   height="528.79993"
   inkscape:version="1.2.2 (b0a84865, 2022-12-01)"
   xmlns:inkscape="http://www.inkscape.org/namespaces/inkscape"
   xmlns:sodipodi="http://sodipodi.sourceforge.net/DTD/sodipodi-0.dtd"
   xmlns="http://www.w3.org/2000/svg"
   xmlns:svg="http://www.w3.org/2000/svg"
   xmlns:rdf="http://www.w3.org/1999/02/22-rdf-syntax-ns#"
   xmlns:dc="http://purl.org/dc/elements/1.1/"
   xmlns:x="adobe:ns:meta/"
   xmlns:xmp="http://ns.adobe.com/xap/1.0/"
   xmlns:xmpGImg="http://ns.adobe.com/xap/1.0/g/img/"
   xmlns:xmpMM="http://ns.adobe.com/xap/1.0/mm/"
   xmlns:stRef="http://ns.adobe.com/xap/1.0/sType/ResourceRef#"
   xmlns:stEvt="http://ns.adobe.com/xap/1.0/sType/ResourceEvent#"
   xmlns:illustrator="http://ns.adobe.com/illustrator/1.0/"
   xmlns:pdf="http://ns.adobe.com/pdf/1.3/"
   xmlns:xmpTPg="http://ns.adobe.com/xap/1.0/t/pg/"
   xmlns:stDim="http://ns.adobe.com/xap/1.0/sType/Dimensions#"
   xmlns:xmpG="http://ns.adobe.com/xap/1.0/g/"
   xmlns:ns="&amp;ns_sfw;"><defs
   id="defs7751" /><sodipodi:namedview
   id="namedview7749"
   pagecolor="#505050"
   bordercolor="#eeeeee"
   borderopacity="1"
   inkscape:showpageshadow="0"
   inkscape:pageopacity="0"
   inkscape:pagecheckerboard="0"
   inkscape:deskcolor="#505050"
   showgrid="false"
   inkscape:zoom="0.68929654"
   inkscape:cx="518.64471"
   inkscape:cy="279.27023"
   inkscape:window-width="1390"
   inkscape:window-height="1205"
   inkscape:window-x="0"
   inkscape:window-y="25"
   inkscape:window-maximized="0"
   inkscape:current-layer="Layer_1" />
<metadata
   id="metadata7704">
	<x:xmpmeta>
		<rdf:RDF>
			
				<rdf:Description
   rdf:about="">
				<dc:format>image/svg+xml</dc:format>
				<dc:title>
					<rdf:Alt>
						<rdf:li>elter logo_RI</rdf:li>
					</rdf:Alt>
				</dc:title>
				<xmp:MetadataDate>2020-03-27T16:21:52+02:00</xmp:MetadataDate>
				<xmp:ModifyDate>2020-03-27T16:21:52+02:00</xmp:ModifyDate>
				<xmp:CreateDate>2020-03-27T16:21:52+02:00</xmp:CreateDate>
				<xmp:CreatorTool>Adobe Illustrator 24.0 (Macintosh)</xmp:CreatorTool>
				<xmp:Thumbnails>
					<rdf:Alt>
						<rdf:li
   rdf:parseType="Resource">
							<xmpGImg:width>256</xmpGImg:width>
							<xmpGImg:height>128</xmpGImg:height>
							<xmpGImg:format>JPEG</xmpGImg:format>
							<xmpGImg:image>/9j/4AAQSkZJRgABAgEBLAEsAAD/7QAsUGhvdG9zaG9wIDMuMAA4QklNA+0AAAAAABABLAAAAAEA
AQEsAAAAAQAB/+4ADkFkb2JlAGTAAAAAAf/bAIQABgQEBAUEBgUFBgkGBQYJCwgGBggLDAoKCwoK
DBAMDAwMDAwQDA4PEA8ODBMTFBQTExwbGxscHx8fHx8fHx8fHwEHBwcNDA0YEBAYGhURFRofHx8f
Hx8fHx8fHx8fHx8fHx8fHx8fHx8fHx8fHx8fHx8fHx8fHx8fHx8fHx8fHx8f/8AAEQgAgAEAAwER
AAIRAQMRAf/EAaIAAAAHAQEBAQEAAAAAAAAAAAQFAwIGAQAHCAkKCwEAAgIDAQEBAQEAAAAAAAAA
AQACAwQFBgcICQoLEAACAQMDAgQCBgcDBAIGAnMBAgMRBAAFIRIxQVEGE2EicYEUMpGhBxWxQiPB
UtHhMxZi8CRygvElQzRTkqKyY3PCNUQnk6OzNhdUZHTD0uIIJoMJChgZhJRFRqS0VtNVKBry4/PE
1OT0ZXWFlaW1xdXl9WZ2hpamtsbW5vY3R1dnd4eXp7fH1+f3OEhYaHiImKi4yNjo+Ck5SVlpeYmZ
qbnJ2en5KjpKWmp6ipqqusra6voRAAICAQIDBQUEBQYECAMDbQEAAhEDBCESMUEFURNhIgZxgZEy
obHwFMHR4SNCFVJicvEzJDRDghaSUyWiY7LCB3PSNeJEgxdUkwgJChgZJjZFGidkdFU38qOzwygp
0+PzhJSktMTU5PRldYWVpbXF1eX1RlZmdoaWprbG1ub2R1dnd4eXp7fH1+f3OEhYaHiImKi4yNjo
+DlJWWl5iZmpucnZ6fkqOkpaanqKmqq6ytrq+v/aAAwDAQACEQMRAD8A9U4q7FXYq7FXYq7FXYq7
FXYq7FXYqgNd13StC0ybUtUuFtrSEVZ26k9lUdWY9gMWM5iIsvmz8wfzo8weZZpLXTpJNM0UGiwx
txllHjM6+P8AINvn1w06rNqpT2GwYj5c82eY/Lt0J9FvpbVyatEp5Rv7PGao30jC0wySidi+mfy4
83edNdtQfMPl6TTxxql+CIo37isErestR+0Kg+2RdrgyTl9Qpm+LkOxV2KuxV2KuxV2KuxV2KuxV
2KuxV2KuxV2KuxV2KuxV2KuxV2KuxV2KuxV2KuxV2Kpd5h8w6T5f0mbVNUmEFpANz1Z2P2URf2mb
sMWM5iIsvlP8wvzC1bzlq31i4rBp8BIsbEGqxqf2m/mdu5/hknTZsxmfJryN+XHmLzhd8LCP0bGN
qXOoSgiJPED+d6fsj6aDfFcWCUztyfR3kn8q/KvlONJLaD63qYHx6jcANJXv6Y6Rj/V38Sci7TFp
4w97MMW92KuxV2KuxV2KuxV2KuxV2KuxV2KuxV2KuxV2KuxV2KuxV2KuxV2Ku6Yqkt55r0+BikIa
4Yd12X/gj/AZptR23hgaj6z9nzc3HoZy57JxFIskaSL9l1DL8iK5t4TEogjkXDkKNMQ17znqVhq0
9nbxQtFFxAZ1ctUoGNaMvc5qNV2jPHkMQBQ/He4uTMQaTDXPNb6N5RXXprcXEvCFjbo3pqTMVH2i
HIpy8Dm1wTMoAnmQyyZuCHFSR+X/AM39D1MXjXkDabFY2zXc80jq0fBHVOII4ksS4oKb5bTVh1sZ
3Yqg8F/Mr8xdR85auZDyh0m2Yiwsz2B29R6dXbv4dB7rg585mfJP/wArPyavPMpj1bWg9roQNY03
WW5p/J/LH4v37eIbbdPpjPc8n0hp+n2OnWcVlYwJbWkC8IoYwFVQPYYHaRiAKCIxS7FXYq7FXYq7
FXYq7FXYq7FXYq7FXYq7FXYq7FXYq7FXYq7FXYq7FUPqGoWmn2r3V3II4U6nuT2AHcnKs2aOOPFI
0GzFilklwxG7Wm30d/Yw3kalUmXkqt1HzpjgyjJASHVc2I45GJ6MAu4vSu5ounpyMv3EjPP88OHJ
KPcSHoMcriD5M10i+thpNqZJVUiMLQkV+H4en0Z3XZlz08CB0+7Z0GrkI5JWerz7zRKkuvXciGqM
y0P+wHjmi7RiRnkD+NnVZJAysJz5wF1qP5c3UUdtxjjtYpfVc70hKSEqKfyqc6fBGIxRN78I+5Oc
yliIrZ8760rtYPxJABBYDuK9/wBeTdTE7s+/KH8mm1Qxa/5lgK6bs1lYSAqZ/CSQdRH4D9r/AFeo
JdlptLfqlyfQiIiIqIoVFACqBQADYAAYHZt4q7FXYq7FXYq7FXYq7FXYq7FXYq7FXYq7FXYq7FXY
q7FXYq7FXYq7FXYq85/MmW5/StvEzH6uIQ8aduRYhj89hnL9uSl4gB+mnoux4x8Mnraa+UNeji8u
pBTnPA7oF/ySeYJP+ypm47BHi4a/mmv0uq7aPh5b/nD9iV6gzPezSMKNIxc02Hxb5y/bGHw9VOPn
fz3c/QZOPDEp35d0yK8tC7yEBHKlFG/Y9T8/DOn7A1Z/LcP80n9f6XUdpaYHNxd4Y95z09LPWKRg
iOWNXUnfcfCf+I5ru1gfG4j/ABAfqdZlgImg86/NT8xtVfTrPyraBra2iiV72atDPQ/u0Wn7C8d/
E/Lfb9nz4sI8tmjPmJAix/0b61+rvd2z28siJOkU6UqrDkrcXFGU/jma68xMTu950Pz9Dr+mwyW1
IbmML9dgB3Vx4f5B7HMjBiB3LtPzfEBTNwQQCOh3zFdi7FXYq7FXYq7FXYq7FXYq7FXYq7FXYq7F
XYq7FXYq7FXYq7FXYq7FXYqhv0jafX/qHP8A0nh6nH28Pn3yfAeHi6MPEHFw9WLfmTbRPZW04/vo
XII/4rfqT/sgM0fbenMsQyD+E/e7jsjUCOQwP8Q+5j/ka4t11lba5FY7gUQHp6i7rX8Rmv7E1ZxZ
DDpP73N7Y0oyYxLrD7mTecLThcQ3KiiOvA06Ar0/A4O38NTjPvFfJw+zp+kx7mO3vnS58qaNe6hF
ZG/ChSYefphTWnMmjbCu9BkOwtTwZDA8pfeGPaoIx8YF8LFdM8xfmR5qvZNQ1fSHg0aOJmgkSEwx
x7g1DSfHICBvQn6N83famDihxDnH7nmePJPcjZNdH0byvdeZLK/1y3Wf6sGWAybxByQVaRejBTWl
dhWua7s7VjHLhl9JTCMeIGTO/PXkay806eKEQ6lApNpddt9+D06ofw6+x6MFyNRpxkHm8Hu7LX/L
GrGOZZLG+i+yw6Mvip+y6n7snGRG4dLKEoGjsXtH5XedtR8y2l5FfxRrNp4hX1o6j1BJz6qa0I9P
tkS7fR6g5AQejOMDmOxV2KuxVLte8w6PoGntf6tcC2tgwQMQWZnPRVVQWY7dstw4ZZJcMRZas2eG
KPFI0GvL/mPRvMFh9f0m4Fxb8ijGhVlcAEqysAQd8c2CWM1IUUYM8MseKJsJllTcxPzV+Z/lXy1f
Cwv5JZLziHeGBOZQNuvIkqBXwrmZp9BkyjijycHU9oYsMuGXPySX/lfXkf8A33e/8iU/6qZkfyTm
8nH/AJZw/wBL5ftd/wAr68j/AO+73/kSn/VTH+Sc3kv8s4f6Xy/avg/PbyLJMkbm7hVjQyvCOK+5
4MzfcMB7JzAdPmkdsYSevyZvf6xpthpcmq3VwsenxRiVrivJeB6EUrXlUUp1zXwxylLhA3djPLGM
eIn0sFP58+RwSAl6QO4hXf73zYfyTm8nW/yzh/pfJ3/K+vI/++73/kSn/VTD/JObyX+WcP8AS+X7
Xf8AK+vI/wDvu9/5Ep/1Ux/knN5L/LOH+l8v2so8p+d9A80wTSaVK5e3KieGVeEi8q8TTcEGh6HM
TUaWeE+rq5um1cMwPD0S/wA0fmn5T8uaidOvpJZbxVDSxW6B+AYVXkSVFSN6ZZg0GTLHiHJq1HaO
LFLhlz8kn/5X15H/AN93v/IlP+qmX/yTm8nH/lnD/S+X7UVp/wCdvkK7mET3E1pyNA9xEQtfcoXp
9OQn2XmA5As4drYJGrI94Zzb3EFxAk9vIs0EoDRyoQysp6EEbEZryCDRdlGQIscl+BLTlgjFByYA
8VrSp7CuIUvMpL2+h1RruQlbxJCz17MDutPDtm2EQY10dKZyEr6sztLS21qzlurmjpdoyKg39Mbr
/wAEM12qgDA4uhG7tdLIiQy9ejyti1reMIZld7aVlWaJgy842pVSK9GXPPckJYpkHaUS9zjyRyws
bxkjPLXlbz/5i8wS+YtV1xXsIWlitbPchlI2X0l4RxfsnluxpnUTEdbpv6X3SH4+ReP8DLptSTI+
n74n8fMJyRLBMQQUljb6QynONIlCXdIF6HaQ8izbRtYg1K39OSguAKSxnow8QPA52nZ3aEdRGj9Y
5jv83SanTHGf6LEPM3lKexd7uzUyWJPIqN2i+fivv9+YGt0BgTKP0/c6nJircclPy75tudNK29zW
ay6BerR/6te3tkdJr5Y9pbx+5GPKY7HknN5ZaX5nuwlxCl1ZuduQ6IvUg/aUn2zrsc4HDxDcFhKI
yz35Jh5X8l6P5akvW0z1Al6Yy8cjcwvp8qBTQGnxnqTmK5OHTxx3XVPsW9KtR80aFp0hiurtRKNj
EgLsD7hQafTmJm12HGalLf5uVi0WXILiNkPB548szSBBd8CehkR1H/BEUH05VDtTBI1xfe2S7NzA
Xwp4jpIivGwdGFVZTUEHuCMzwQRYcIgjYvJv+chv+OLpP/MTJ/ybzddjfXL3Oi7c+iPvd/zjx/xx
tX/5iY/+IY9s/XH3L2H9Eve9azTO8eY+f/ybfzJr0ms2WoLbTXCoLmGVCylo0CBlZTt8KgUpm20f
aXhQ4CLp0+t7L8WfGDVsD81/k1qfl3QLrWZtRhnitfT5RIjhj6kixihO2xeubDT9pxyzEACLdZqe
ypYoGZkDTHfI3k25826tLptvcJbPFbtcGSQFgQrolNv+MmZWq1Iwx4iL3pxdHpTnlwg1tbPIP+ce
NSMyfWNYhWGv7wxxOWp7AkDNce2Y1tEuzHYcr3kGbfmraRWf5V6hZw19G2jtIY+RqeMdxCoqfkMw
Oz5GWoBPW/uLsO0oiOmIHSvvDw3yN5NufNurS6bb3CWzxW7XBkkBYEK6JTb/AIyZ0Gq1Iwx4iL3p
5zR6U55cINbWzn/oXjWf+rvbf8i3zX/yzD+aXY/yHP8AnB3/AELxrP8A1d7b/kW+P8sw/mlf5Dn/
ADgzv8tfy1XyeLuea7F5eXYVCUUoiIlTQVJJJJ3Oa/Xa7xqAFAOz0Gg8CyTZLxf82P8AyYWs/wDG
SP8A5Mpm87P/ALiP46vP9pf38vx0ZJpv5C6vfada3qapbot1DHMqFHJAkUMAflXMWfa8YyI4Ts5e
Psacog8Q3CXea/yZ8w6BpUmqLcQ31vAOVysQZXRP5+LDdR332y3T9pwyS4aolp1PZWTFHisEBNfy
J823dvrR8tzuXsrxXktUJr6c0al24+AdQajx+nKe1tODDxBzDf2PqSJ+GeR5e97xnPPSvOPPv5rD
yz5r07TY0E9qq+pq6gVcLKQE4H+ZQC9O9Rmz0mg8XGZdejqtZ2j4OUR5j+JN/NNhbXlnFrlgyywy
orO6bh0cDhIPvyrTzMTwSbdTjEhxxYld2WvaxaR6Bp2rfom2vZgLyYKS5j4kFEIIILbClRXxyWpx
2L7mjFKR9ANAphqX5aab5c8vQjRvVkW1qbtpWLu/LrJT7K07hQB+Ocl2zo+IeLHmOfues7FzDH+6
PI8veh/J/mH9E6hwmP8AoVxRZv8AJPZ/o7+2avs3W+DOj9Euf63a9oaTxYbfUOX6mca9oS3yfW7S
huKAkAiki9t/HNt2p2YMw8TH9f3/ALXSaXVcB4ZcvuYmGmt5qgtFNGfcMCM5MGWOXWMg7YgSHeGT
aT5qjcCHUPhbtOBsf9YDpnTaDtoSqGXY/wA7p8e51eo0Nbw+TH9f0i2uLkz6VEV5dYR0Y+KKOnyz
Ya3sa48ePn3fqeenIGWwS7QtcutHvOajlEx4zwnaoHh4EZptLq54T/R6hMJ8JeowyiWFJVBCyKGA
YUIDCu4zqYysAucCxzz1r82l6ekFs3C6uyVVx1RFpyI996DNX2rqzihUfqk7Ps3SjJO5fTFh/lvy
bea1G108wt7XkQJCOTOR14io++uaXRdmyzjiJqLttX2hHCeEC5Jnqf5a3EFq81ldfWJEBPosnAsB
/KQTv7ZlZ+xJRjcJWe5x8Pa4lKpCh3qf5d65PFqH6LlYtb3AYwqf2JFBY09mAOR7G1RE/DPI8ven
tXTAw8Qcwln/ADkP/wAcbSP+YmT/AIhnoHY31y9zwXbn0R97v+ceP+ONq/8AzEx/8Qx7Z+uPuXsP
6Je961mmd47FWGfnH/5LjV/+jf8A6ioszuzf7+Px+4uv7U/xeXw+8PMv+cfv+Uyvf+2dL/yfhzbd
sf3Q/rfoLp+xf74/1f0h9AZzb1DDPzj/APJcav8A9G//AFFRZndm/wB/H4/cXX9qf4vL4feHiX5Z
ecbHynr0+o3sEs8Utq9uqQ8eQZpI3qeRUUpGc32u0xzQEQa3t57s/VRwTMiL2r7npv8A0MJ5Z/6t
t7/yS/5rzVfyPk7w7f8AlvH/ADZfYi9J/Pbyrf6jBZyW11aC4cRrPKIyisxoOXFiQK96ZDJ2TkjE
mwabMfbGKUgKIt6Rmrds+X/zY/8AJhaz/wAZI/8AkymdZ2f/AHEfx1eO7S/v5fjo9p0H8x/I9r5e
02GfWIElgtIElj+IsGWNQwoAehzRZtFmMyRE8y9Bh1+GOOIMhsAk3nv83vKMnlq+stJuf0he30Ul
qqCORERZVKM7GRVBoDsBWp9sv0nZ2XxAZCgN3H1naeI4yIniJFPPPyW0ue98+Wc6KfRsElnncdAC
hjUV93cZs+08gjhI73V9lYzLOD/N3fSecs9a8J/Pfyb9Uv4/M1qCYL5hFfLueMwWiMPZ1WnzHvnQ
dlamx4Z6cnnO2NLwy8Qcjz96Yfk1cN5j0Z9C1K5c2WjSJPFZoShlDsXT1HB5MkUikhBQbitQKZjd
q4uGYmOv3hv7JyeJAwl/Cm2o2j2GoS24beF/gcdadVOMJcUbZZI8MiGaab5js7qwT6yCZSvCdeNQ
TSh+g5g5NKbI6Owx6oUCebz7zFpUVneNJacjZSmsdRuhP7B/hnFdq9mS00rH0Hl5eT1/ZvaUdRGv
4x9vmm3lbzpLZQDT7oepENreVjTh/kn/ACfDwzJ7I7RESMeQ1Hoe7yPk4/amhJByYxcuo/SnOoc9
TcMYQJRsGjUkn5+OdBruxcOeO/pn/O/X3vO6ftHJA7C49yUXdhd2hAniZA32SRsc4PWaLJp5cMvn
0L02DPHLGwi9F1j6hPWRPUibYn9pfdczez+18mH0S9WPu7vd+po1GijM8Q2mnd35b0jVru31KIjg
W5ThR8MoHj4GvXOgOlxZzHJE7fe6LLp6lvsU/wA2TN5t+Zpf9M2wP2Bbgr8y71/hnL9uX4o/q/pL
0XY9eGf636Ak9l/i76rH9R/SH1Xf0vQ9b06VNePH4euYWL8zwjg4+Hy4qczJ+X4vVwcXnVq//O9/
9rT/AKeMs/wz/bP9k1/4L/tf+xRXlLQdaXzBazzWk8EUTF5JZUZBSh7sBWp2y3s/SZfGiTEgDvFN
eu1OPwiBIEnuQv8AzkP/AMcbSP8AmJk/4hnovY31y9z57259Efe7/nHj/jjav/zEx/8AEMe2frj7
l7D+iXvetZpneOxVhn5x/wDkuNX/AOjf/qKizO7N/v4/H7i6/tT/ABeXw+8PMv8AnH7/AJTK9/7Z
0v8Ayfhzbdsf3Q/rfoLp+xf74/1f0h9AZzb1DDPzj/8AJcav/wBG/wD1FRZndm/38fj9xdf2p/i8
vh94eG/l15Mi83a3Ppsl01msNs1yJVQSElZETjQlf9+Z0Gt1PgwEqvennNDpBnmY3W1vRf8AoXaz
/wCr5J/0jr/1UzWfyyf5v2u1/kMfzvs/ai9J/IHSLPUre6utTlu4YHEhtvSWMOVNQGbk21eu2Qyd
rylEgRpsxdixjIEyunquad3T5f8AzY/8mFrP/GSP/kymdZ2f/cR/HV47tL+/l+OiNsvyY873lnBd
wxW5huI0ljJmAPF1DCop4HIS7TxRJBvbybIdlZpAEVv5sS1rRdS0XUptO1KEwXcBo6GhBB3DKRsQ
R0IzMxZYzjxR5ODlxSxyMZCiH0H+TNv5ZTylHPowP1mUgam0hBl9dR9lqU+EV+D2PjXOb7TOTxal
y6e56jsqOPwrhz6+/wDHJk/mvzHZeW/L97rN5vFaRllStC8h+GOMe7MQMwsOIzkIjq5+bKIRMj0Y
/wCZpoPM/wCUtzqDKoF1pi6gFHRXjjE9B16MtMydPePUAf0q/Q4uqrLpif6N/peV/kRdGLzu1uT8
F3aSxstaAlSsg27/AGM3Pasf3V9xdH2RKs1d4er+eLOOKe1njUKHVkYKAB8JqOn+tmo0syQQXc6y
ABBCE8pXiRaj6EqB4bii7ivF/wBk/T0yeoieGx0a9LICVHqzafTrC4haGa3jeNxRlKjNZkHHExlu
C7bGeCXFHYh5x5n8m3Wls9zagz2HUnq8Y/y/b3zktf2ZLF6o7w+56bRdoRy+mW0/vVvKvnG8sQlp
dRvc2QPFGUEvH7D+Ye2Wdn9pzx+mQMofaGGu7PjP1R9MvvegEWeo2YqBLbyioqCD9xoQRnRzhjzw
oi4l5+5Y5dxCSx+ToRdM0kxNsDVEAox9ic0kOwI8dmXo7urnHtE8Ow9TIIYYoIliiQJGooqjpm/x
44wiIxFAOvlIyNlfk2LEPzG0eW6sIr+FSz2hIlAFT6bU3/2JGaXtnTGcBMfw/c7bsnOIzMD/ABfe
k3k7znb6ZbfUL8N9XDFoZUFePI1KkeFd9swuze044o8E/p6FzNf2eckuOHNPdS/MXRoIW+o8rucj
4PhZEB/yi1D9wzPz9s4oj0eouDh7JyE+r0hKfJGr+YdQ112mnkmtOLNcqxqi1B4cR0U8vDtmJ2Xq
M2TMbJMerl9o4MWPFsAJdEm/5yH/AOONpH/MTJ/xDO87G+uXueE7c+iPvYT+XH5mweT7K8tpNPa8
N1KsgZZBHx4rxpQq2Z+t0JzEG6p1+g7QGAEVdsw/6GJs/wDqxyf9JC/9U8wv5GP877HO/lwfzft/
YnPlH86tL8wa3BpMmnyWUlzVYJTIJFLgE8WoqkVptlGo7LljgZXdORpu1o5ZiNVaafnH/wCS41f/
AKN/+oqLKezf7+Px+4t3an+Ly+H3h5l/zj9/ymV7/wBs6X/k/Dm27Y/uh/W/QXT9i/3x/q/pD6Az
m3qGGfnH/wCS41f/AKN/+oqLM7s3+/j8fuLr+1P8Xl8PvDw38uvOcXlHW59SktWvFmtmthEriMgt
Ij8qkN/vvOg1um8aAjdb285odWMEzKr2p6L/ANDE2f8A1Y5P+khf+qeaz+Rj/O+x2v8ALg/m/b+x
3/QxNn/1Y5P+khf+qeP8jH+d9i/y4P5v2/sZb5B/M7TvN89zax2r2d3boJfSdhIGjqFLBgF6Eiop
mFq9DLCAbsFztF2hHOSKoh4l+bH/AJMLWf8AjJH/AMmUzfdn/wBxH8dXnu0v7+X46Po3yv8A8ozp
H/MFb/8AJpc5jP8A3kveXq9P/dx/qj7mLfmx5BXzLpBvLKMfpqxUtBTrLGN2hPv3X3+eZnZ+s8KV
H6T+LcPtLReNCx9Y+3yeNflx50n8qeYVmlLfo65Ih1GH/Jrs4H80ZNfvHfN5rdKM0K/iHJ5/Qas4
cln6TzZD+d2uav5s8zweS/LsEl8unN6l3HAOQa5Ip8R6BYlahJIoSa9M1mgxxxw8SW1/c7jX5JZJ
+HHevvem+SPJ+o2v5cW/ljzEV9T0pYZxbuSRFK7OE506hW4mm3gcwM2ceNxwc/Dpz4PhzTLQPy/8
oaBOtzpenJDdKCFuGZ5JByFDRnZqVHhkc2ry5BUjsnDosWM3EbsgKqaVANOlcxnKbxV2KuxV2Kux
V2KuxV2KuIBFDuD1GKsV1T8u9Iu5GltnazdtyqANH9CmhH0HNRn7GxTNxPD9ztMPauSIqXq+9CWv
5Y2SODdXskyj9lEEdfpJfKcfYcAfVIn7P1ts+2JH6Ygfb+plmn6dZafbi3s4lhiHYdSfEk7k/PNx
hwwxx4Yig6rLllkNyNlLfN3k/SPNWmCw1Lmqo4lhmiIWRHAIqKhhuDQgjM3TamWGXFFwtTpY5o8M
mD/9C9+Wf+rle/8AJL/mjM/+WMncHXfyJj/nS+x3/Qvfln/q5Xv/ACS/5ox/ljJ3Bf5Ex/zpfYnH
lX8nvLXl3Vo9VimuLu6gB9ATlOCMwILURVqaHauUajtLJljw0AHI03ZePFLiBJIZbrei6frelXGl
6ghktLpQsiglTsQykEd1ZQRmHiyyxyEo8w52bFHJExlyKSeTvy38u+U557jTjNNc3C+m09y6sypU
EovBYwASATtmRqdbPMAJVQ7nG0ugx4CTG7PeynMNzUFrWjWGtaXcaXfp6lpdLxkUGh2IZSD2KsAR
lmLKYSEo8w15cUckTGXIvOT/AM49+WKmmo3oHYExH/jTNn/LGTuH2up/kTH/ADpfY7/oXvyz/wBX
K9/5Jf8ANGP8sZO4L/ImP+dL7Hf9C9+Wf+rle/8AJL/mjH+WMncF/kTH/Ol9jKfJP5caF5Ra4lsX
muLm5ASSecqSEBrxUKqgAnc5iarWzzUDsA5uk0EMFmNklD+Y/wAp/KXmDWf0terOly/H6wkMgRJe
ICjmCrH7Ip8JGSw9oZMcOEVTHP2biyz4zd/ezCKKOGJIYlCRRqERBsAqigA+QzCJs2XOAoUF2BLB
NU/JryhqOvvrEwnT1X9WezjZVhd61Yn4eQDftUbNhj7Tyxhwivf1dbk7KxTnxm/d0ZZo+g6Ro0Dw
6bbJbrKxkncbySudy8shq7sa9WJOYU8kpHcufDHGI2CPyDN2KuxV2KuxV2KuxV2KuxV2KuxV2Kux
V2KuxV2KuxV2KuxV2KuxV2KuxV2KuxV2KuxV2KuxV2KuxV2KuxV2KuxV2KuxV2KuxV2KuxV2KuxV
2KuxV2KuxV2KuxV2KuxV2KuxV2KuxV2KuxV2KuxV2KuxV2KuxV2KuxV2KuxV2KuxV2KuxV2KuxV2
KuxV2KuxV2KuxV2KuxV2KuxV2KuxV2KuxV2KuxV2KuxV2KuxV2KuxV2KuxV2KuxV2KuxV2KuxV2K
uxV2KuxV2KuxV2KuxV2KuxV2KuxV2KuxV2KuxV2KuxV2KuxV2KuxV2KuxV2KuxV2KuxV2KuxV2Ku
xV2KuxV2KuxV2KuxV2KuxV2KuxV2KuxV2KuxV2KuxV2KuxV2KuxV2KuxV2KuxV//2Q==
								</xmpGImg:image>
						</rdf:li>
					</rdf:Alt>
				</xmp:Thumbnails>
				<xmpMM:InstanceID>xmp.iid:85974057-f37a-477a-9269-4b28f7b6a850</xmpMM:InstanceID>
				<xmpMM:DocumentID>xmp.did:85974057-f37a-477a-9269-4b28f7b6a850</xmpMM:DocumentID>
				<xmpMM:OriginalDocumentID>uuid:5D20892493BFDB11914A8590D31508C8</xmpMM:OriginalDocumentID>
				<xmpMM:RenditionClass>default</xmpMM:RenditionClass>
				<xmpMM:DerivedFrom
   rdf:parseType="Resource">
					<stRef:instanceID>xmp.iid:e00606ca-6a77-4c3d-a421-46cf657b5dbe</stRef:instanceID>
					<stRef:documentID>xmp.did:e00606ca-6a77-4c3d-a421-46cf657b5dbe</stRef:documentID>
					<stRef:originalDocumentID>uuid:5D20892493BFDB11914A8590D31508C8</stRef:originalDocumentID>
					<stRef:renditionClass>default</stRef:renditionClass>
				</xmpMM:DerivedFrom>
				<xmpMM:History>
					<rdf:Seq>
						<rdf:li
   rdf:parseType="Resource">
							<stEvt:action>saved</stEvt:action>
							<stEvt:instanceID>xmp.iid:987685d5-766f-4c65-9bc0-5fdff6b3c471</stEvt:instanceID>
							<stEvt:when>2020-02-06T10:11:24+02:00</stEvt:when>
							<stEvt:softwareAgent>Adobe Illustrator 24.0 (Macintosh)</stEvt:softwareAgent>
							<stEvt:changed>/</stEvt:changed>
						</rdf:li>
						<rdf:li
   rdf:parseType="Resource">
							<stEvt:action>saved</stEvt:action>
							<stEvt:instanceID>xmp.iid:85974057-f37a-477a-9269-4b28f7b6a850</stEvt:instanceID>
							<stEvt:when>2020-03-27T16:21:52+02:00</stEvt:when>
							<stEvt:softwareAgent>Adobe Illustrator 24.0 (Macintosh)</stEvt:softwareAgent>
							<stEvt:changed>/</stEvt:changed>
						</rdf:li>
					</rdf:Seq>
				</xmpMM:History>
				<illustrator:StartupProfile>Print</illustrator:StartupProfile>
				<illustrator:CreatorSubTool>Adobe Illustrator</illustrator:CreatorSubTool>
				<pdf:Producer>Adobe PDF library 15.00</pdf:Producer>
				<xmpTPg:MaxPageSize
   rdf:parseType="Resource">
					<stDim:w>637.696011</stDim:w>
					<stDim:h>267.473840</stDim:h>
					<stDim:unit>Millimeters</stDim:unit>
				</xmpTPg:MaxPageSize>
				<xmpTPg:NPages>1</xmpTPg:NPages>
				<xmpTPg:HasVisibleTransparency>False</xmpTPg:HasVisibleTransparency>
				<xmpTPg:HasVisibleOverprint>False</xmpTPg:HasVisibleOverprint>
				<xmpTPg:PlateNames>
					<rdf:Seq>
						<rdf:li>Cyan</rdf:li>
						<rdf:li>Magenta</rdf:li>
						<rdf:li>Yellow</rdf:li>
						<rdf:li>Black</rdf:li>
					</rdf:Seq>
				</xmpTPg:PlateNames>
				<xmpTPg:SwatchGroups>
					<rdf:Seq>
						<rdf:li
   rdf:parseType="Resource">
							<xmpG:groupName>Default Swatch Group</xmpG:groupName>
							<xmpG:groupType>0</xmpG:groupType>
							<xmpG:Colorants>
								<rdf:Seq>
									<rdf:li
   rdf:parseType="Resource">
										<xmpG:swatchName>White</xmpG:swatchName>
										<xmpG:mode>RGB</xmpG:mode>
										<xmpG:type>PROCESS</xmpG:type>
										<xmpG:red>255</xmpG:red>
										<xmpG:green>255</xmpG:green>
										<xmpG:blue>255</xmpG:blue>
									</rdf:li>
									<rdf:li
   rdf:parseType="Resource">
										<xmpG:swatchName>Black</xmpG:swatchName>
										<xmpG:mode>RGB</xmpG:mode>
										<xmpG:type>PROCESS</xmpG:type>
										<xmpG:red>35</xmpG:red>
										<xmpG:green>31</xmpG:green>
										<xmpG:blue>32</xmpG:blue>
									</rdf:li>
									<rdf:li
   rdf:parseType="Resource">
										<xmpG:swatchName>CMYK Red</xmpG:swatchName>
										<xmpG:mode>RGB</xmpG:mode>
										<xmpG:type>PROCESS</xmpG:type>
										<xmpG:red>236</xmpG:red>
										<xmpG:green>28</xmpG:green>
										<xmpG:blue>36</xmpG:blue>
									</rdf:li>
									<rdf:li
   rdf:parseType="Resource">
										<xmpG:swatchName>CMYK Yellow</xmpG:swatchName>
										<xmpG:mode>RGB</xmpG:mode>
										<xmpG:type>PROCESS</xmpG:type>
										<xmpG:red>255</xmpG:red>
										<xmpG:green>241</xmpG:green>
										<xmpG:blue>0</xmpG:blue>
									</rdf:li>
									<rdf:li
   rdf:parseType="Resource">
										<xmpG:swatchName>CMYK Green</xmpG:swatchName>
										<xmpG:mode>RGB</xmpG:mode>
										<xmpG:type>PROCESS</xmpG:type>
										<xmpG:red>0</xmpG:red>
										<xmpG:green>165</xmpG:green>
										<xmpG:blue>81</xmpG:blue>
									</rdf:li>
									<rdf:li
   rdf:parseType="Resource">
										<xmpG:swatchName>CMYK Cyan</xmpG:swatchName>
										<xmpG:mode>RGB</xmpG:mode>
										<xmpG:type>PROCESS</xmpG:type>
										<xmpG:red>0</xmpG:red>
										<xmpG:green>173</xmpG:green>
										<xmpG:blue>238</xmpG:blue>
									</rdf:li>
									<rdf:li
   rdf:parseType="Resource">
										<xmpG:swatchName>CMYK Blue</xmpG:swatchName>
										<xmpG:mode>RGB</xmpG:mode>
										<xmpG:type>PROCESS</xmpG:type>
										<xmpG:red>46</xmpG:red>
										<xmpG:green>49</xmpG:green>
										<xmpG:blue>145</xmpG:blue>
									</rdf:li>
									<rdf:li
   rdf:parseType="Resource">
										<xmpG:swatchName>CMYK Magenta</xmpG:swatchName>
										<xmpG:mode>RGB</xmpG:mode>
										<xmpG:type>PROCESS</xmpG:type>
										<xmpG:red>235</xmpG:red>
										<xmpG:green>0</xmpG:green>
										<xmpG:blue>139</xmpG:blue>
									</rdf:li>
									<rdf:li
   rdf:parseType="Resource">
										<xmpG:swatchName>C=15 M=100 Y=90 K=10</xmpG:swatchName>
										<xmpG:mode>RGB</xmpG:mode>
										<xmpG:type>PROCESS</xmpG:type>
										<xmpG:red>190</xmpG:red>
										<xmpG:green>30</xmpG:green>
										<xmpG:blue>45</xmpG:blue>
									</rdf:li>
									<rdf:li
   rdf:parseType="Resource">
										<xmpG:swatchName>C=0 M=90 Y=85 K=0</xmpG:swatchName>
										<xmpG:mode>RGB</xmpG:mode>
										<xmpG:type>PROCESS</xmpG:type>
										<xmpG:red>238</xmpG:red>
										<xmpG:green>64</xmpG:green>
										<xmpG:blue>54</xmpG:blue>
									</rdf:li>
									<rdf:li
   rdf:parseType="Resource">
										<xmpG:swatchName>C=0 M=80 Y=95 K=0</xmpG:swatchName>
										<xmpG:mode>RGB</xmpG:mode>
										<xmpG:type>PROCESS</xmpG:type>
										<xmpG:red>240</xmpG:red>
										<xmpG:green>90</xmpG:green>
										<xmpG:blue>40</xmpG:blue>
									</rdf:li>
									<rdf:li
   rdf:parseType="Resource">
										<xmpG:swatchName>C=0 M=50 Y=100 K=0</xmpG:swatchName>
										<xmpG:mode>RGB</xmpG:mode>
										<xmpG:type>PROCESS</xmpG:type>
										<xmpG:red>246</xmpG:red>
										<xmpG:green>146</xmpG:green>
										<xmpG:blue>30</xmpG:blue>
									</rdf:li>
									<rdf:li
   rdf:parseType="Resource">
										<xmpG:swatchName>C=0 M=35 Y=85 K=0</xmpG:swatchName>
										<xmpG:mode>RGB</xmpG:mode>
										<xmpG:type>PROCESS</xmpG:type>
										<xmpG:red>250</xmpG:red>
										<xmpG:green>175</xmpG:green>
										<xmpG:blue>64</xmpG:blue>
									</rdf:li>
									<rdf:li
   rdf:parseType="Resource">
										<xmpG:swatchName>C=5 M=0 Y=90 K=0</xmpG:swatchName>
										<xmpG:mode>RGB</xmpG:mode>
										<xmpG:type>PROCESS</xmpG:type>
										<xmpG:red>249</xmpG:red>
										<xmpG:green>236</xmpG:green>
										<xmpG:blue>49</xmpG:blue>
									</rdf:li>
									<rdf:li
   rdf:parseType="Resource">
										<xmpG:swatchName>C=20 M=0 Y=100 K=0</xmpG:swatchName>
										<xmpG:mode>RGB</xmpG:mode>
										<xmpG:type>PROCESS</xmpG:type>
										<xmpG:red>214</xmpG:red>
										<xmpG:green>222</xmpG:green>
										<xmpG:blue>35</xmpG:blue>
									</rdf:li>
									<rdf:li
   rdf:parseType="Resource">
										<xmpG:swatchName>C=50 M=0 Y=100 K=0</xmpG:swatchName>
										<xmpG:mode>RGB</xmpG:mode>
										<xmpG:type>PROCESS</xmpG:type>
										<xmpG:red>139</xmpG:red>
										<xmpG:green>197</xmpG:green>
										<xmpG:blue>63</xmpG:blue>
									</rdf:li>
									<rdf:li
   rdf:parseType="Resource">
										<xmpG:swatchName>C=75 M=0 Y=100 K=0</xmpG:swatchName>
										<xmpG:mode>RGB</xmpG:mode>
										<xmpG:type>PROCESS</xmpG:type>
										<xmpG:red>55</xmpG:red>
										<xmpG:green>179</xmpG:green>
										<xmpG:blue>74</xmpG:blue>
									</rdf:li>
									<rdf:li
   rdf:parseType="Resource">
										<xmpG:swatchName>C=85 M=10 Y=100 K=10</xmpG:swatchName>
										<xmpG:mode>RGB</xmpG:mode>
										<xmpG:type>PROCESS</xmpG:type>
										<xmpG:red>0</xmpG:red>
										<xmpG:green>147</xmpG:green>
										<xmpG:blue>69</xmpG:blue>
									</rdf:li>
									<rdf:li
   rdf:parseType="Resource">
										<xmpG:swatchName>C=90 M=30 Y=95 K=30</xmpG:swatchName>
										<xmpG:mode>RGB</xmpG:mode>
										<xmpG:type>PROCESS</xmpG:type>
										<xmpG:red>0</xmpG:red>
										<xmpG:green>104</xmpG:green>
										<xmpG:blue>56</xmpG:blue>
									</rdf:li>
									<rdf:li
   rdf:parseType="Resource">
										<xmpG:swatchName>C=75 M=0 Y=75 K=0</xmpG:swatchName>
										<xmpG:mode>RGB</xmpG:mode>
										<xmpG:type>PROCESS</xmpG:type>
										<xmpG:red>41</xmpG:red>
										<xmpG:green>180</xmpG:green>
										<xmpG:blue>115</xmpG:blue>
									</rdf:li>
									<rdf:li
   rdf:parseType="Resource">
										<xmpG:swatchName>C=80 M=10 Y=45 K=0</xmpG:swatchName>
										<xmpG:mode>RGB</xmpG:mode>
										<xmpG:type>PROCESS</xmpG:type>
										<xmpG:red>0</xmpG:red>
										<xmpG:green>166</xmpG:green>
										<xmpG:blue>156</xmpG:blue>
									</rdf:li>
									<rdf:li
   rdf:parseType="Resource">
										<xmpG:swatchName>C=70 M=15 Y=0 K=0</xmpG:swatchName>
										<xmpG:mode>RGB</xmpG:mode>
										<xmpG:type>PROCESS</xmpG:type>
										<xmpG:red>37</xmpG:red>
										<xmpG:green>169</xmpG:green>
										<xmpG:blue>224</xmpG:blue>
									</rdf:li>
									<rdf:li
   rdf:parseType="Resource">
										<xmpG:swatchName>C=85 M=50 Y=0 K=0</xmpG:swatchName>
										<xmpG:mode>RGB</xmpG:mode>
										<xmpG:type>PROCESS</xmpG:type>
										<xmpG:red>27</xmpG:red>
										<xmpG:green>117</xmpG:green>
										<xmpG:blue>187</xmpG:blue>
									</rdf:li>
									<rdf:li
   rdf:parseType="Resource">
										<xmpG:swatchName>C=100 M=95 Y=5 K=0</xmpG:swatchName>
										<xmpG:mode>RGB</xmpG:mode>
										<xmpG:type>PROCESS</xmpG:type>
										<xmpG:red>43</xmpG:red>
										<xmpG:green>56</xmpG:green>
										<xmpG:blue>143</xmpG:blue>
									</rdf:li>
									<rdf:li
   rdf:parseType="Resource">
										<xmpG:swatchName>C=100 M=100 Y=25 K=25</xmpG:swatchName>
										<xmpG:mode>RGB</xmpG:mode>
										<xmpG:type>PROCESS</xmpG:type>
										<xmpG:red>38</xmpG:red>
										<xmpG:green>34</xmpG:green>
										<xmpG:blue>97</xmpG:blue>
									</rdf:li>
									<rdf:li
   rdf:parseType="Resource">
										<xmpG:swatchName>C=75 M=100 Y=0 K=0</xmpG:swatchName>
										<xmpG:mode>RGB</xmpG:mode>
										<xmpG:type>PROCESS</xmpG:type>
										<xmpG:red>101</xmpG:red>
										<xmpG:green>45</xmpG:green>
										<xmpG:blue>144</xmpG:blue>
									</rdf:li>
									<rdf:li
   rdf:parseType="Resource">
										<xmpG:swatchName>C=50 M=100 Y=0 K=0</xmpG:swatchName>
										<xmpG:mode>RGB</xmpG:mode>
										<xmpG:type>PROCESS</xmpG:type>
										<xmpG:red>144</xmpG:red>
										<xmpG:green>39</xmpG:green>
										<xmpG:blue>142</xmpG:blue>
									</rdf:li>
									<rdf:li
   rdf:parseType="Resource">
										<xmpG:swatchName>C=35 M=100 Y=35 K=10</xmpG:swatchName>
										<xmpG:mode>RGB</xmpG:mode>
										<xmpG:type>PROCESS</xmpG:type>
										<xmpG:red>158</xmpG:red>
										<xmpG:green>31</xmpG:green>
										<xmpG:blue>99</xmpG:blue>
									</rdf:li>
									<rdf:li
   rdf:parseType="Resource">
										<xmpG:swatchName>C=10 M=100 Y=50 K=0</xmpG:swatchName>
										<xmpG:mode>RGB</xmpG:mode>
										<xmpG:type>PROCESS</xmpG:type>
										<xmpG:red>217</xmpG:red>
										<xmpG:green>28</xmpG:green>
										<xmpG:blue>92</xmpG:blue>
									</rdf:li>
									<rdf:li
   rdf:parseType="Resource">
										<xmpG:swatchName>C=0 M=95 Y=20 K=0</xmpG:swatchName>
										<xmpG:mode>RGB</xmpG:mode>
										<xmpG:type>PROCESS</xmpG:type>
										<xmpG:red>236</xmpG:red>
										<xmpG:green>41</xmpG:green>
										<xmpG:blue>123</xmpG:blue>
									</rdf:li>
									<rdf:li
   rdf:parseType="Resource">
										<xmpG:swatchName>C=25 M=25 Y=40 K=0</xmpG:swatchName>
										<xmpG:mode>RGB</xmpG:mode>
										<xmpG:type>PROCESS</xmpG:type>
										<xmpG:red>193</xmpG:red>
										<xmpG:green>180</xmpG:green>
										<xmpG:blue>154</xmpG:blue>
									</rdf:li>
									<rdf:li
   rdf:parseType="Resource">
										<xmpG:swatchName>C=40 M=45 Y=50 K=5</xmpG:swatchName>
										<xmpG:mode>RGB</xmpG:mode>
										<xmpG:type>PROCESS</xmpG:type>
										<xmpG:red>154</xmpG:red>
										<xmpG:green>132</xmpG:green>
										<xmpG:blue>121</xmpG:blue>
									</rdf:li>
									<rdf:li
   rdf:parseType="Resource">
										<xmpG:swatchName>C=50 M=50 Y=60 K=25</xmpG:swatchName>
										<xmpG:mode>RGB</xmpG:mode>
										<xmpG:type>PROCESS</xmpG:type>
										<xmpG:red>113</xmpG:red>
										<xmpG:green>101</xmpG:green>
										<xmpG:blue>88</xmpG:blue>
									</rdf:li>
									<rdf:li
   rdf:parseType="Resource">
										<xmpG:swatchName>C=55 M=60 Y=65 K=40</xmpG:swatchName>
										<xmpG:mode>RGB</xmpG:mode>
										<xmpG:type>PROCESS</xmpG:type>
										<xmpG:red>90</xmpG:red>
										<xmpG:green>74</xmpG:green>
										<xmpG:blue>66</xmpG:blue>
									</rdf:li>
									<rdf:li
   rdf:parseType="Resource">
										<xmpG:swatchName>C=25 M=40 Y=65 K=0</xmpG:swatchName>
										<xmpG:mode>RGB</xmpG:mode>
										<xmpG:type>PROCESS</xmpG:type>
										<xmpG:red>195</xmpG:red>
										<xmpG:green>153</xmpG:green>
										<xmpG:blue>107</xmpG:blue>
									</rdf:li>
									<rdf:li
   rdf:parseType="Resource">
										<xmpG:swatchName>C=30 M=50 Y=75 K=10</xmpG:swatchName>
										<xmpG:mode>RGB</xmpG:mode>
										<xmpG:type>PROCESS</xmpG:type>
										<xmpG:red>168</xmpG:red>
										<xmpG:green>124</xmpG:green>
										<xmpG:blue>79</xmpG:blue>
									</rdf:li>
									<rdf:li
   rdf:parseType="Resource">
										<xmpG:swatchName>C=35 M=60 Y=80 K=25</xmpG:swatchName>
										<xmpG:mode>RGB</xmpG:mode>
										<xmpG:type>PROCESS</xmpG:type>
										<xmpG:red>138</xmpG:red>
										<xmpG:green>93</xmpG:green>
										<xmpG:blue>59</xmpG:blue>
									</rdf:li>
									<rdf:li
   rdf:parseType="Resource">
										<xmpG:swatchName>C=40 M=65 Y=90 K=35</xmpG:swatchName>
										<xmpG:mode>RGB</xmpG:mode>
										<xmpG:type>PROCESS</xmpG:type>
										<xmpG:red>117</xmpG:red>
										<xmpG:green>76</xmpG:green>
										<xmpG:blue>40</xmpG:blue>
									</rdf:li>
									<rdf:li
   rdf:parseType="Resource">
										<xmpG:swatchName>C=40 M=70 Y=100 K=50</xmpG:swatchName>
										<xmpG:mode>RGB</xmpG:mode>
										<xmpG:type>PROCESS</xmpG:type>
										<xmpG:red>96</xmpG:red>
										<xmpG:green>56</xmpG:green>
										<xmpG:blue>19</xmpG:blue>
									</rdf:li>
									<rdf:li
   rdf:parseType="Resource">
										<xmpG:swatchName>C=50 M=70 Y=80 K=70</xmpG:swatchName>
										<xmpG:mode>RGB</xmpG:mode>
										<xmpG:type>PROCESS</xmpG:type>
										<xmpG:red>59</xmpG:red>
										<xmpG:green>35</xmpG:green>
										<xmpG:blue>20</xmpG:blue>
									</rdf:li>
									<rdf:li
   rdf:parseType="Resource">
										<xmpG:swatchName>R=8 G=121 B=192</xmpG:swatchName>
										<xmpG:type>PROCESS</xmpG:type>
										<xmpG:tint>100.000000</xmpG:tint>
										<xmpG:mode>RGB</xmpG:mode>
										<xmpG:red>8</xmpG:red>
										<xmpG:green>121</xmpG:green>
										<xmpG:blue>192</xmpG:blue>
									</rdf:li>
									<rdf:li
   rdf:parseType="Resource">
										<xmpG:swatchName>R=241 G=153 B=52</xmpG:swatchName>
										<xmpG:type>PROCESS</xmpG:type>
										<xmpG:tint>100.000000</xmpG:tint>
										<xmpG:mode>RGB</xmpG:mode>
										<xmpG:red>241</xmpG:red>
										<xmpG:green>153</xmpG:green>
										<xmpG:blue>52</xmpG:blue>
									</rdf:li>
									<rdf:li
   rdf:parseType="Resource">
										<xmpG:swatchName>R=64 G=144 B=122</xmpG:swatchName>
										<xmpG:type>PROCESS</xmpG:type>
										<xmpG:tint>100.000000</xmpG:tint>
										<xmpG:mode>RGB</xmpG:mode>
										<xmpG:red>64</xmpG:red>
										<xmpG:green>144</xmpG:green>
										<xmpG:blue>122</xmpG:blue>
									</rdf:li>
								</rdf:Seq>
							</xmpG:Colorants>
						</rdf:li>
						<rdf:li
   rdf:parseType="Resource">
							<xmpG:groupName>Grays</xmpG:groupName>
							<xmpG:groupType>1</xmpG:groupType>
							<xmpG:Colorants>
								<rdf:Seq>
									<rdf:li
   rdf:parseType="Resource">
										<xmpG:swatchName>C=0 M=0 Y=0 K=100</xmpG:swatchName>
										<xmpG:mode>RGB</xmpG:mode>
										<xmpG:type>PROCESS</xmpG:type>
										<xmpG:red>35</xmpG:red>
										<xmpG:green>31</xmpG:green>
										<xmpG:blue>32</xmpG:blue>
									</rdf:li>
									<rdf:li
   rdf:parseType="Resource">
										<xmpG:swatchName>C=0 M=0 Y=0 K=90</xmpG:swatchName>
										<xmpG:mode>RGB</xmpG:mode>
										<xmpG:type>PROCESS</xmpG:type>
										<xmpG:red>64</xmpG:red>
										<xmpG:green>64</xmpG:green>
										<xmpG:blue>65</xmpG:blue>
									</rdf:li>
									<rdf:li
   rdf:parseType="Resource">
										<xmpG:swatchName>C=0 M=0 Y=0 K=80</xmpG:swatchName>
										<xmpG:mode>RGB</xmpG:mode>
										<xmpG:type>PROCESS</xmpG:type>
										<xmpG:red>88</xmpG:red>
										<xmpG:green>89</xmpG:green>
										<xmpG:blue>91</xmpG:blue>
									</rdf:li>
									<rdf:li
   rdf:parseType="Resource">
										<xmpG:swatchName>C=0 M=0 Y=0 K=70</xmpG:swatchName>
										<xmpG:mode>RGB</xmpG:mode>
										<xmpG:type>PROCESS</xmpG:type>
										<xmpG:red>109</xmpG:red>
										<xmpG:green>110</xmpG:green>
										<xmpG:blue>112</xmpG:blue>
									</rdf:li>
									<rdf:li
   rdf:parseType="Resource">
										<xmpG:swatchName>C=0 M=0 Y=0 K=60</xmpG:swatchName>
										<xmpG:mode>RGB</xmpG:mode>
										<xmpG:type>PROCESS</xmpG:type>
										<xmpG:red>128</xmpG:red>
										<xmpG:green>129</xmpG:green>
										<xmpG:blue>132</xmpG:blue>
									</rdf:li>
									<rdf:li
   rdf:parseType="Resource">
										<xmpG:swatchName>C=0 M=0 Y=0 K=50</xmpG:swatchName>
										<xmpG:mode>RGB</xmpG:mode>
										<xmpG:type>PROCESS</xmpG:type>
										<xmpG:red>146</xmpG:red>
										<xmpG:green>148</xmpG:green>
										<xmpG:blue>151</xmpG:blue>
									</rdf:li>
									<rdf:li
   rdf:parseType="Resource">
										<xmpG:swatchName>C=0 M=0 Y=0 K=40</xmpG:swatchName>
										<xmpG:mode>RGB</xmpG:mode>
										<xmpG:type>PROCESS</xmpG:type>
										<xmpG:red>166</xmpG:red>
										<xmpG:green>168</xmpG:green>
										<xmpG:blue>171</xmpG:blue>
									</rdf:li>
									<rdf:li
   rdf:parseType="Resource">
										<xmpG:swatchName>C=0 M=0 Y=0 K=30</xmpG:swatchName>
										<xmpG:mode>RGB</xmpG:mode>
										<xmpG:type>PROCESS</xmpG:type>
										<xmpG:red>187</xmpG:red>
										<xmpG:green>189</xmpG:green>
										<xmpG:blue>191</xmpG:blue>
									</rdf:li>
									<rdf:li
   rdf:parseType="Resource">
										<xmpG:swatchName>C=0 M=0 Y=0 K=20</xmpG:swatchName>
										<xmpG:mode>RGB</xmpG:mode>
										<xmpG:type>PROCESS</xmpG:type>
										<xmpG:red>208</xmpG:red>
										<xmpG:green>210</xmpG:green>
										<xmpG:blue>211</xmpG:blue>
									</rdf:li>
									<rdf:li
   rdf:parseType="Resource">
										<xmpG:swatchName>C=0 M=0 Y=0 K=10</xmpG:swatchName>
										<xmpG:mode>RGB</xmpG:mode>
										<xmpG:type>PROCESS</xmpG:type>
										<xmpG:red>230</xmpG:red>
										<xmpG:green>231</xmpG:green>
										<xmpG:blue>232</xmpG:blue>
									</rdf:li>
									<rdf:li
   rdf:parseType="Resource">
										<xmpG:swatchName>C=0 M=0 Y=0 K=5</xmpG:swatchName>
										<xmpG:mode>RGB</xmpG:mode>
										<xmpG:type>PROCESS</xmpG:type>
										<xmpG:red>241</xmpG:red>
										<xmpG:green>241</xmpG:green>
										<xmpG:blue>242</xmpG:blue>
									</rdf:li>
								</rdf:Seq>
							</xmpG:Colorants>
						</rdf:li>
						<rdf:li
   rdf:parseType="Resource">
							<xmpG:groupName>Brights</xmpG:groupName>
							<xmpG:groupType>1</xmpG:groupType>
							<xmpG:Colorants>
								<rdf:Seq>
									<rdf:li
   rdf:parseType="Resource">
										<xmpG:swatchName>C=0 M=100 Y=100 K=0</xmpG:swatchName>
										<xmpG:mode>RGB</xmpG:mode>
										<xmpG:type>PROCESS</xmpG:type>
										<xmpG:red>236</xmpG:red>
										<xmpG:green>28</xmpG:green>
										<xmpG:blue>36</xmpG:blue>
									</rdf:li>
									<rdf:li
   rdf:parseType="Resource">
										<xmpG:swatchName>C=0 M=75 Y=100 K=0</xmpG:swatchName>
										<xmpG:mode>RGB</xmpG:mode>
										<xmpG:type>PROCESS</xmpG:type>
										<xmpG:red>241</xmpG:red>
										<xmpG:green>101</xmpG:green>
										<xmpG:blue>34</xmpG:blue>
									</rdf:li>
									<rdf:li
   rdf:parseType="Resource">
										<xmpG:swatchName>C=0 M=10 Y=95 K=0</xmpG:swatchName>
										<xmpG:mode>RGB</xmpG:mode>
										<xmpG:type>PROCESS</xmpG:type>
										<xmpG:red>255</xmpG:red>
										<xmpG:green>221</xmpG:green>
										<xmpG:blue>21</xmpG:blue>
									</rdf:li>
									<rdf:li
   rdf:parseType="Resource">
										<xmpG:swatchName>C=85 M=10 Y=100 K=0</xmpG:swatchName>
										<xmpG:mode>RGB</xmpG:mode>
										<xmpG:type>PROCESS</xmpG:type>
										<xmpG:red>0</xmpG:red>
										<xmpG:green>161</xmpG:green>
										<xmpG:blue>75</xmpG:blue>
									</rdf:li>
									<rdf:li
   rdf:parseType="Resource">
										<xmpG:swatchName>C=100 M=90 Y=0 K=0</xmpG:swatchName>
										<xmpG:mode>RGB</xmpG:mode>
										<xmpG:type>PROCESS</xmpG:type>
										<xmpG:red>34</xmpG:red>
										<xmpG:green>64</xmpG:green>
										<xmpG:blue>153</xmpG:blue>
									</rdf:li>
									<rdf:li
   rdf:parseType="Resource">
										<xmpG:swatchName>C=60 M=90 Y=0 K=0</xmpG:swatchName>
										<xmpG:mode>RGB</xmpG:mode>
										<xmpG:type>PROCESS</xmpG:type>
										<xmpG:red>127</xmpG:red>
										<xmpG:green>63</xmpG:green>
										<xmpG:blue>151</xmpG:blue>
									</rdf:li>
								</rdf:Seq>
							</xmpG:Colorants>
						</rdf:li>
					</rdf:Seq>
				</xmpTPg:SwatchGroups>
			</rdf:Description>
		</rdf:RDF>
	</x:xmpmeta>
	<ns:sfw>
		<ns:slices />
		<ns:sliceSourceBounds
   bottomLeftOrigin="true"
   height="528.8"
   width="1500.99"
   x="153.33"
   y="128.85" />
	</ns:sfw>
</metadata>
<g
   id="g7746"
   transform="translate(-153.33,-100.54007)">
	<path
   fill="#badffd"
   d="m 663.36,292.92 c 0.18,0.71 7.86,25.61 7.86,54.04 -0.09,12.33 -1.32,24.65 -3.85,36.76 -14.59,70.79 -74.19,117.22 -142.17,133 -52.21,12.12 -108.46,10.36 -161.64,9.24 -28.95,-0.61 -60.3,-5.8 -87.02,8.42 8.83,-4.7 43.09,-22.88 53.03,-24.67 9.96,-1.76 289.92,11.57 310.48,-130.86 1.49,-10.31 1.88,-20.8 1.3,-31.22 -0.3,-5.21 -0.84,-10.4 -1.62,-15.52 -0.4,-2.56 -0.85,-5.09 -1.37,-7.58 -0.27,-1.23 -0.54,-2.47 -0.83,-3.66 l -0.45,-1.75 -0.23,-0.82 c -0.06,-0.22 -0.17,-0.59 -0.18,-0.56 z"
   id="path7706" />
	<path
   fill="#badffd"
   d="m 286.28,434.18 c 2.34,-7.25 5.37,-14.24 8.64,-21.1 3.27,-6.87 6.91,-13.57 10.77,-20.15 7.79,-13.12 16.71,-25.64 26.67,-37.44 10.01,-11.74 21.07,-22.79 33.45,-32.51 6.11,-4.95 12.69,-9.39 19.4,-13.65 6.86,-4.06 13.85,-7.97 21.29,-11.12 3.65,-1.7 7.49,-3.02 11.27,-4.46 l 1.43,-0.52 1.46,-0.45 2.92,-0.89 2.92,-0.88 c 0.97,-0.29 1.94,-0.61 2.94,-0.82 l 5.96,-1.38 c 0.97,-0.22 2.04,-0.48 2.93,-0.66 l 2.71,-0.54 10.86,-2.12 43.45,-8.64 c 14.5,-2.92 29,-5.91 43.57,-8.95 l 5.47,-1.12 c 1.82,-0.38 3.63,-0.81 5.46,-1.17 l 10.97,-2.3 22.09,-4.74 c -6.23,4.4 -12.82,8.17 -19.48,11.8 -6.68,3.59 -13.47,6.96 -20.35,10.12 -13.76,6.32 -27.86,11.84 -42.12,16.82 -14.26,5.03 -28.75,9.27 -43.34,13.15 l -10.97,2.77 -2.75,0.68 c -0.93,0.22 -1.66,0.45 -2.51,0.67 l -4.9,1.32 c -1.63,0.42 -3.23,1.04 -4.85,1.54 l -2.42,0.79 -1.21,0.39 -1.19,0.47 c -3.18,1.25 -6.39,2.36 -9.5,3.84 -1.57,0.7 -3.15,1.35 -4.71,2.08 l -4.63,2.31 -2.32,1.14 -2.28,1.26 -4.57,2.5 c -6,3.54 -11.98,7.19 -17.74,11.27 -11.63,8 -22.71,17.1 -33.51,26.71 -10.77,9.66 -21.15,19.96 -31.32,30.65 -10.16,10.73 -20.07,21.83 -29.96,33.33 z"
   id="path7708" />
	<path
   fill="#226654"
   d="m 779.11,101.34 64.83,30.94 C 714.57,164.22 575.64,356.18 530.32,366.34 388.43,398.17 262.31,503.84 262.31,503.84 375.52,371.28 501,360.67 530.32,332.74 559.63,304.81 729.23,85.68 779.11,101.34 Z"
   id="path7710" />
	<path
   fill="#40907a"
   d="m 689.49,400.53 c -12.76,-4.14 -24.22,-8.97 -34.52,-14.33 -30.47,-15.8 -50.73,-36.13 -64.21,-56.48 -8.4,-12.7 -14.16,-25.41 -18.1,-37.05 -0.35,-1.05 -0.7,-2.1 -1.03,-3.13 -2.37,-7.46 -4.09,-14.73 -5.32,-21.62 -3.97,-22.03 -2.97,-41.18 -2.1,-49.64 12.5,0.31 25.84,3.85 40.1,4.58 -0.03,0.18 -1.91,10.3 -0.12,27.51 0.88,8.54 2.67,18.34 6.05,28.56 2.19,6.64 4.87,12.96 8.03,18.94 8.54,16.19 20.61,29.94 36.13,41.2 10.61,7.7 22.82,14.23 36.63,19.57 4.58,21.07 -1.54,41.89 -1.54,41.89 z"
   id="path7712" />
	<path
   fill="#96ce58"
   d="m 674.34,463.65 v 0 c -5.18,14.04 -11.75,26.46 -19.58,37.41 -7.67,-8.28 -21.47,-22.29 -42.51,-40.61 -14.73,-12.84 -33.02,-27.79 -55.24,-44.38 -15.82,-11.81 -28.91,-27.07 -39.06,-45.4 -3.28,-5.92 -6.26,-12.16 -8.92,-18.71 -7.65,-18.81 -12.73,-40.15 -15.07,-63.7 -0.19,-1.87 -0.36,-3.77 -0.51,-5.67 -2.4,-30.07 0.07,-56.38 1.91,-70.22 12.24,-0.16 25.6,0.14 40.29,0.89 -1.38,9.15 -4.5,34.31 -2.49,63.52 1.1,16.09 3.76,33.41 9.14,49.95 3.24,9.99 7.47,19.69 12.93,28.67 6.62,10.86 15.03,20.65 25.71,28.62 21.87,16.33 40.14,31.16 55.15,44.13 16.52,14.26 29.11,26.27 38.25,35.5 z"
   id="path7714" />
	<path
   fill="#f7c545"
   d="m 636.12,522.29 c -12.53,11.65 -27.1,20.9 -43.42,28.01 -9.81,-8.6 -27.3,-22.99 -56.38,-44.2 -10.97,-7.99 -23.58,-16.96 -38.06,-26.95 -30.92,-21.34 -52.2,-45.5 -67.08,-70.28 -4.88,-8.14 -9.08,-16.34 -12.69,-24.53 -10.25,-23.19 -15.88,-46.29 -19.48,-67.52 -2.33,-13.71 -3.82,-26.63 -5.16,-38.31 -1.86,-16.14 -3.63,-31.55 -6.89,-41.08 13.73,-8.15 28.6,-14.31 46.47,-18.48 5.65,15.23 7.75,33.43 10.09,53.85 1,8.69 2.04,17.72 3.4,26.98 3.2,21.82 8.19,44.84 18.63,67.28 3.26,7.02 7.07,13.98 11.51,20.84 v 0.01 c 11.54,17.77 27.41,34.78 49.6,50.09 24.92,17.19 44.66,31.55 60.22,43.38 28.04,21.29 42.52,34.36 49.24,40.91 z"
   id="path7716" />
	<path
   fill="#f19934"
   d="m 536.84,565.83 v 0 l 3.71,-0.74 c -22.75,-13.55 -44.08,-29.65 -63.81,-48.15 -14.06,-13.16 -27.3,-27.55 -39.65,-43.09 -12.64,-15.9 -24.38,-33.02 -35.14,-51.22 -4.7,-7.95 -9.2,-16.1 -13.52,-24.45 -4.52,-8.76 -8.82,-17.73 -12.91,-26.9 -4.82,-10.82 -8.8,-20.91 -12.08,-30.22 -16.45,-46.78 -15.3,-73.81 -15.3,-73.81 0,0 -31.93,22.42 -37.97,40.07 0,0 -0.86,13.07 18.44,67.87 1.5,3.54 3.11,7.26 4.84,11.17 5.22,11.79 10.78,23.28 16.68,34.45 3.77,7.14 7.68,14.15 11.72,21.02 11.73,19.98 24.57,38.79 38.43,56.29 6.31,7.96 13.43,15.73 20.81,23.08 21.5,21.4 45.24,39.28 57.79,48.24 h 0.01 z"
   id="path7718" />
	<path
   fill="#95c5e5"
   d="m 381.96,567.74 c -22.71,0.42 -43.18,1.48 -61.64,3.03 -0.66,-14.05 -4.13,-29.79 -10.29,-46.87 -5.23,-14.54 -12.41,-30.03 -21.44,-46.27 -0.18,-0.31 -0.35,-0.63 -0.53,-0.95 -3.12,-5.57 -6.46,-11.23 -10.01,-16.97 -12.85,-20.74 -25.84,-38.12 -34.45,-49.02 0,0 16.93,-32.49 27.49,-45.27 0,0 12.68,21.29 28.16,47.94 5.97,10.28 12.4,21.4 18.78,32.52 2.59,4.52 5.17,9.03 7.72,13.49 16.46,28.92 31.12,55.38 34.54,63.75 0.01,0.02 0.02,0.04 0.02,0.06 6.53,15.98 16,30.95 21.65,44.56 z"
   id="path7720" />
	<path
   fill="#0877bd"
   d="m 228.25,442.14 c 29.57,29.77 42.22,65.74 47.58,92.84 4.69,23.73 3.8,40.65 3.8,40.65 l -41.11,9.04 c 0,-0.77 17.74,-42.97 -28.36,-102.38 z"
   id="path7722" />
	<polygon
   fill="#095a98"
   points="213.74,595.89 201.77,541.7 153.33,629.34 "
   id="polygon7724" />
	<g
   id="g7744">
		<path
   fill="#0879c0"
   d="m 1216.49,407.05 h -139.6 c -11.03,0 -19.97,-8.94 -19.97,-19.97 0,-11.03 8.94,-19.97 19.97,-19.97 h 139.6 c 11.03,0 19.97,8.94 19.97,19.97 -0.01,11.03 -8.94,19.97 -19.97,19.97 z"
   id="path7726" />
		<path
   fill="#0879c0"
   d="M 1061.65,587.65 H 951.16 c -11.03,0 -19.97,-8.94 -19.97,-19.97 V 389.31 c 0,-11.03 8.94,-19.97 19.97,-19.97 11.03,0 19.97,8.94 19.97,19.97 v 158.41 h 90.53 c 11.03,0 19.97,8.94 19.97,19.97 0,11.03 -8.95,19.96 -19.98,19.96 z"
   id="path7728" />
		<path
   fill="#0879c0"
   d="m 1146.69,585.96 c -11.03,0 -19.97,-8.94 -19.97,-19.97 v -175 c 0,-11.03 8.94,-19.97 19.97,-19.97 11.03,0 19.97,8.94 19.97,19.97 v 175 c -0.01,11.03 -8.94,19.97 -19.97,19.97 z"
   id="path7730" />
		<path
   fill="#0879c0"
   d="m 1427.7,587.65 h -139.9 c -11.03,0 -19.97,-8.94 -19.97,-19.97 v -180.6 c 0,-11.03 8.94,-19.97 19.97,-19.97 h 137.46 c 11.03,0 19.97,8.94 19.97,19.97 0,11.03 -8.94,19.97 -19.97,19.97 h -117.5 v 140.67 h 119.94 c 11.03,0 19.97,8.94 19.97,19.97 0,11.03 -8.94,19.96 -19.97,19.96 z"
   id="path7732" />
		<path
   fill="#0879c0"
   d="M 1397.18,497.35 H 1287.8 c -11.03,0 -19.97,-8.94 -19.97,-19.97 0,-11.03 8.94,-19.97 19.97,-19.97 h 109.38 c 11.03,0 19.97,8.94 19.97,19.97 -0.01,11.03 -8.94,19.97 -19.97,19.97 z"
   id="path7734" />
		<path
   fill="#0879c0"
   d="m 1497.46,586.54 c -11.03,0 -19.97,-8.94 -19.97,-19.97 v -79.09 c 0,-0.02 0,-0.05 0,-0.07 V 387.08 c 0,-11.03 8.94,-19.97 19.97,-19.97 h 75.83 c 38.49,0 69.81,31.32 69.81,69.81 0,18.53 -7.18,35.98 -20.23,49.14 -13.05,13.16 -30.43,20.5 -48.96,20.66 l -56.49,0.5 v 59.34 c 0.01,11.04 -8.93,19.98 -19.96,19.98 z m 19.97,-179.49 v 60.26 l 56.14,-0.5 c 16.33,-0.15 29.61,-13.55 29.61,-29.88 0,-16.48 -13.4,-29.88 -29.88,-29.88 z"
   id="path7736" />
		<path
   fill="#0879c0"
   d="m 1634.38,588.19 c -6.58,0 -13.03,-3.25 -16.84,-9.21 -33.21,-51.9 -58.01,-78.17 -58.25,-78.43 -7.59,-7.98 -7.29,-20.62 0.68,-28.22 7.97,-7.6 20.59,-7.32 28.2,0.65 1.11,1.16 27.48,28.96 63,84.48 5.94,9.29 3.23,21.63 -6.06,27.58 -3.32,2.13 -7.04,3.15 -10.73,3.15 z"
   id="path7738" />
		<path
   fill="#ed9633"
   d="m 816.32,591.98 c -1.1,0 -2.19,-0.02 -3.29,-0.06 -27.6,-1.04 -52.69,-15.33 -65.36,-39.21 -17.99,-33.92 -16.65,-72.47 0.28,-100.62 6.81,-11.32 16,-20.24 27.32,-26.52 11.82,-6.55 25.41,-9.87 40.4,-9.87 27.38,0 48.23,8.3 61.97,24.66 21.4,25.49 15.55,60.43 15.29,61.91 -1.42,8.07 -8.43,13.95 -16.62,13.95 H 771.64 c 1.66,6.98 3.27,13.97 6.83,20.68 8.94,16.86 24.87,20.89 35.81,21.3 17.98,0.68 37.47,-8.2 45.31,-20.64 4.97,-7.88 15.39,-10.24 23.27,-5.27 7.88,4.97 10.24,15.39 5.27,23.27 -7.13,11.31 -18.26,20.78 -32.19,27.39 -12.49,5.93 -26.12,9.03 -39.62,9.03 z M 771.47,482.47 h 88.29 c -0.76,-6.64 -2.87,-14.42 -8.09,-20.55 -7.04,-8.28 -19.15,-12.47 -36.01,-12.47 -17.5,0 -30.91,6.93 -38.8,20.04 -2.37,3.94 -4.17,8.31 -5.39,12.98 z"
   id="path7740" />
		<path
   fill="#0879c0"
   d="m 1146.69,585.96 c -11.03,0 -19.97,-8.94 -19.97,-19.97 v -175 c 0,-11.03 8.94,-19.97 19.97,-19.97 11.03,0 19.97,8.94 19.97,19.97 v 175 c -0.01,11.03 -8.94,19.97 -19.97,19.97 z"
   id="path7742" />
	</g>
</g>
</svg>
