<?xml version="1.0" encoding="utf-8"?>
<!-- Generator: Adobe Illustrator 22.1.0, SVG Export Plug-In . SVG Version: 6.00 Build 0)  -->
<svg version="1.1" id="Layer_1" xmlns="http://www.w3.org/2000/svg" xmlns:xlink="http://www.w3.org/1999/xlink" x="0px" y="0px"
	 viewBox="0 0 451.9 360" style="enable-background:new 0 0 451.9 360;" xml:space="preserve">
<style type="text/css">
	.st0{fill:#101820;}
	.st1{fill:#009ADE;}
	.st2{fill:#FFCD00;}
</style>
<g>
	<g>
		<path class="st0" d="M61.8,201.2c-0.6-2.3-1.6-4.8-4.7-4.8c-2.8,0-4,2-4,3.9c0,2.6,1.7,3.8,4.5,5.3c2.8,1.4,6.2,3.1,6.2,7.1
			c0,3.8-3.2,6.8-7.9,6.8c-1.5,0-2.6-0.3-3.5-0.5c-0.9-0.3-1.4-0.6-1.8-0.8c-0.3-0.8-0.8-3.8-1-5.5l1-0.2c0.6,2.2,2.2,5.8,5.9,5.8
			c2.7,0,4.3-1.7,4.3-4.3c0-2.6-2-3.9-4.7-5.3c-2.3-1.2-5.9-3-5.9-7c0-3.4,2.8-6.4,7.4-6.4c1.6,0,3.1,0.4,4.5,0.8
			c0.1,1.3,0.3,2.7,0.6,4.9L61.8,201.2z"/>
		<path class="st0" d="M85.8,219v-0.9c2.1-0.2,2.5-0.4,2.5-2.9v-6c0-2.5-0.9-4.2-3.1-4.2c-1.3,0-2.6,0.7-4,1.9
			c0.1,0.4,0.1,0.8,0.1,1.5v7c0,2.3,0.3,2.5,2.3,2.7v0.9h-7.7v-0.9c2.2-0.2,2.5-0.4,2.5-2.8v-6.2c0-2.6-0.9-4.1-3.1-4.1
			c-1.4,0-2.8,1-3.9,1.9v8.4c0,2.3,0.3,2.5,2,2.8v0.9h-7.5v-0.9c2.4-0.2,2.7-0.4,2.7-2.8v-7.4c0-2.3-0.1-2.5-2.2-2.8v-0.8
			c1.6-0.3,3.4-0.8,5-1.5v2.9c0.8-0.5,1.5-1.1,2.6-1.8c0.9-0.6,1.8-1,2.9-1c1.7,0,3.3,1.1,4,2.9c1-0.8,2.1-1.5,3-2
			c0.8-0.5,1.7-0.9,2.7-0.9c2.8,0,4.5,2,4.5,5.5v6.9c0,2.4,0.3,2.5,2.3,2.8v0.9H85.8z"/>
		<path class="st0" d="M95.4,219v-0.9c2.3-0.2,2.5-0.4,2.5-2.9v-7.4c0-2.2-0.1-2.4-2.3-2.7v-0.9c1.8-0.3,3.5-0.8,5.1-1.4v12.3
			c0,2.4,0.3,2.6,2.5,2.9v0.9H95.4z M97.3,198c0-1.1,0.9-1.9,1.8-1.9c1,0,1.8,0.8,1.8,1.9c0,1-0.8,1.8-1.8,1.8
			C98.2,199.8,97.3,199,97.3,198z"/>
		<path class="st0" d="M111.6,219c-0.6,0.3-1.2,0.5-1.5,0.5c-2.3,0-3.5-1.4-3.5-4.3v-10.4h-2.5l-0.1-0.4l1-1h1.6v-2.6l2.3-2.4
			l0.5,0.1v4.9h4c0.3,0.4,0.2,1.1-0.2,1.4h-3.8v9.2c0,2.9,1.2,3.4,2.1,3.4s1.7-0.4,2.2-0.6l0.3,0.9L111.6,219z"/>
		<path class="st0" d="M125.3,219v-0.9c2.1-0.2,2.4-0.4,2.4-2.8v-5.9c0-2.9-1.1-4.4-3.5-4.4c-1.4,0-2.7,0.7-3.7,1.8v8.5
			c0,2.3,0.2,2.5,2.3,2.8v0.9h-7.6v-0.9c2.1-0.2,2.5-0.4,2.5-2.8v-17.1c0-2.3-0.1-2.4-2.4-2.6v-0.8c1.7-0.2,3.9-0.8,5.3-1.3v12
			c1.3-1.3,3.2-2.6,5.1-2.6c2.9,0,4.9,1.8,4.9,6.1v6.3c0,2.4,0.3,2.6,2.4,2.8v0.9H125.3z"/>
		<path class="st0" d="M143.9,207.6c-0.7-2.1-1.9-3.5-3.7-3.5c-1.4,0-2.3,1.1-2.3,2.5c0,1.6,1.4,2.4,3,3.1c2.7,1.1,4.5,2.4,4.5,4.9
			c0,3.3-3,4.9-5.9,4.9c-1.8,0-3.5-0.7-4.1-1.2c-0.3-0.5-0.6-2.9-0.6-4.2l0.9-0.2c0.6,2.4,2.3,4.4,4.4,4.4c1.3,0,2.5-1,2.5-2.5
			c0-1.6-1-2.4-2.8-3.3c-2.1-1-4.5-2.2-4.5-4.9c0-2.5,2.1-4.6,5.4-4.6c1.5,0,2.4,0.3,3.2,0.6c0.3,0.8,0.7,2.9,0.8,3.8L143.9,207.6z"
			/>
		<path class="st0" d="M163.7,210.9c0,5.8-4.2,8.5-7.8,8.5c-4.9,0-7.8-3.9-7.8-7.9c0-5.9,4.6-8.6,7.8-8.6
			C160.4,202.9,163.7,206.5,163.7,210.9z M151.4,210.4c0,4.5,2,7.9,4.9,7.9c2.2,0,4-1.6,4-6.5c0-4.2-1.7-7.6-4.8-7.6
			C153.4,204.1,151.4,206.3,151.4,210.4z"/>
		<path class="st0" d="M175.9,219v-0.9c2.1-0.2,2.4-0.5,2.4-3v-6c0-2.5-0.9-4.1-3.3-4.1c-1.4,0-2.8,0.9-3.9,1.8v8.4
			c0,2.4,0.2,2.6,2.3,2.8v0.9h-7.8v-0.9c2.4-0.2,2.6-0.4,2.6-2.8v-7.4c0-2.3-0.2-2.4-2.1-2.8v-0.8c1.7-0.3,3.4-0.8,5-1.5v2.9
			c0.7-0.5,1.5-1.1,2.4-1.7c1-0.6,1.9-1.1,3-1.1c2.8,0,4.6,2,4.6,5.4v6.9c0,2.4,0.2,2.6,2.3,2.8v0.9H175.9z"/>
		<path class="st0" d="M185.3,219v-0.9c2.3-0.2,2.5-0.4,2.5-2.9v-7.4c0-2.2-0.1-2.4-2.3-2.7v-0.9c1.8-0.3,3.5-0.8,5.1-1.4v12.3
			c0,2.4,0.3,2.6,2.5,2.9v0.9H185.3z M187.2,198c0-1.1,0.9-1.9,1.8-1.9c1,0,1.8,0.8,1.8,1.9c0,1-0.8,1.8-1.8,1.8
			C188.1,199.8,187.2,199,187.2,198z"/>
		<path class="st0" d="M206.3,219.4c-0.5,0-1.3-0.3-1.7-0.7c-0.5-0.5-0.7-1-0.9-1.6c-1.4,1-3.1,2.3-4.2,2.3c-2.5,0-4.3-2.1-4.3-4.4
			c0-1.8,0.9-2.9,2.9-3.5c2.1-0.7,4.8-1.7,5.5-2.3v-0.6c0-2.6-1.2-4-3-4c-0.7,0-1.3,0.3-1.6,0.7c-0.5,0.5-0.8,1.3-1.1,2.4
			c-0.1,0.6-0.5,0.8-1,0.8c-0.6,0-1.6-0.7-1.6-1.5c0-0.5,0.5-0.9,1.1-1.4c1-0.7,3.3-2.1,5.4-2.5c1.1,0,2.1,0.3,2.9,1
			c1.3,1,1.6,2.5,1.6,4.4v6.7c0,1.6,0.6,2.1,1.3,2.1c0.4,0,0.9-0.2,1.3-0.4l0.4,0.9L206.3,219.4z M203.7,210.4
			c-0.8,0.4-2.5,1.1-3.2,1.5c-1.4,0.6-2.2,1.3-2.2,2.6c0,1.9,1.4,2.8,2.5,2.8c0.9,0,2.2-0.6,2.9-1.3V210.4z"/>
		<path class="st0" d="M220.5,219v-0.9c2.1-0.2,2.4-0.5,2.4-3v-6c0-2.5-0.9-4.1-3.3-4.1c-1.4,0-2.8,0.9-3.9,1.8v8.4
			c0,2.4,0.2,2.6,2.3,2.8v0.9h-7.8v-0.9c2.4-0.2,2.6-0.4,2.6-2.8v-7.4c0-2.3-0.2-2.4-2.1-2.8v-0.8c1.7-0.3,3.4-0.8,5-1.5v2.9
			c0.7-0.5,1.5-1.1,2.4-1.7c1-0.6,1.9-1.1,3-1.1c2.8,0,4.6,2,4.6,5.4v6.9c0,2.4,0.2,2.6,2.3,2.8v0.9H220.5z"/>
		<path class="st0" d="M238.3,219v-1c2.9-0.2,3.2-0.4,3.2-3.5v-14.3c0-3-0.3-3.3-3.2-3.5v-1h9.5v1c-2.9,0.2-3.2,0.4-3.2,3.5v14.3
			c0,3.1,0.3,3.3,3.2,3.5v1H238.3z"/>
		<path class="st0" d="M259.8,219v-0.9c2.1-0.2,2.4-0.5,2.4-3v-6c0-2.5-0.9-4.1-3.3-4.1c-1.4,0-2.8,0.9-3.9,1.8v8.4
			c0,2.4,0.2,2.6,2.3,2.8v0.9h-7.8v-0.9c2.4-0.2,2.6-0.4,2.6-2.8v-7.4c0-2.3-0.2-2.4-2.1-2.8v-0.8c1.7-0.3,3.4-0.8,5-1.5v2.9
			c0.7-0.5,1.5-1.1,2.4-1.7c1-0.6,1.9-1.1,3-1.1c2.8,0,4.6,2,4.6,5.4v6.9c0,2.4,0.2,2.6,2.3,2.8v0.9H259.8z"/>
		<path class="st0" d="M278.3,207.6c-0.7-2.1-1.9-3.5-3.7-3.5c-1.4,0-2.3,1.1-2.3,2.5c0,1.6,1.4,2.4,3,3.1c2.7,1.1,4.5,2.4,4.5,4.9
			c0,3.3-3,4.9-5.9,4.9c-1.8,0-3.5-0.7-4.1-1.2c-0.3-0.5-0.6-2.9-0.6-4.2l0.9-0.2c0.6,2.4,2.3,4.4,4.4,4.4c1.3,0,2.5-1,2.5-2.5
			c0-1.6-1-2.4-2.8-3.3c-2.1-1-4.5-2.2-4.5-4.9c0-2.5,2.1-4.6,5.4-4.6c1.5,0,2.4,0.3,3.2,0.6c0.3,0.8,0.7,2.9,0.8,3.8L278.3,207.6z"
			/>
		<path class="st0" d="M289,219c-0.6,0.3-1.2,0.5-1.5,0.5c-2.3,0-3.5-1.4-3.5-4.3v-10.4h-2.5l-0.1-0.4l1-1h1.6v-2.6l2.3-2.4l0.5,0.1
			v4.9h4c0.3,0.4,0.2,1.1-0.2,1.4h-3.8v9.2c0,2.9,1.2,3.4,2.1,3.4s1.7-0.4,2.2-0.6l0.3,0.9L289,219z"/>
		<path class="st0" d="M293,219v-0.9c2.3-0.2,2.5-0.4,2.5-2.9v-7.4c0-2.2-0.1-2.4-2.3-2.7v-0.9c1.8-0.3,3.5-0.8,5.1-1.4v12.3
			c0,2.4,0.3,2.6,2.5,2.9v0.9H293z M294.9,198c0-1.1,0.9-1.9,1.8-1.9c1,0,1.8,0.8,1.8,1.9c0,1-0.8,1.8-1.8,1.8
			C295.8,199.8,294.9,199,294.9,198z"/>
		<path class="st0" d="M309.3,219c-0.6,0.3-1.2,0.5-1.5,0.5c-2.3,0-3.5-1.4-3.5-4.3v-10.4h-2.5l-0.1-0.4l1-1h1.6v-2.6l2.3-2.4
			l0.5,0.1v4.9h4c0.3,0.4,0.2,1.1-0.2,1.4h-3.8v9.2c0,2.9,1.2,3.4,2.1,3.4s1.7-0.4,2.2-0.6l0.3,0.9L309.3,219z"/>
		<path class="st0" d="M330.1,218.1c-1.6,0.2-3.5,0.8-5.3,1.3l-0.2-0.2v-2.5c-0.8,0.6-1.6,1.3-2.6,1.9c-1,0.6-1.8,0.9-2.8,0.9
			c-2.4,0-4.4-1.5-4.4-5.3v-7c0-2-0.1-2.1-2.2-2.5v-0.8c1.7-0.1,3.4-0.3,5.1-0.6c-0.1,1.1-0.1,2.8-0.1,5.2v4.8c0,3.2,1.5,4,3.1,4
			c1.3,0,2.6-0.5,3.9-1.7v-8.3c0-2-0.2-2.2-2.8-2.5v-0.8c1.9-0.1,3.7-0.2,5.6-0.6v12c0,1.8,0.3,2,1.6,2.1l1,0.1V218.1z"/>
		<path class="st0" d="M338.4,219c-0.6,0.3-1.2,0.5-1.5,0.5c-2.3,0-3.5-1.4-3.5-4.3v-10.4h-2.5l-0.1-0.4l1-1h1.6v-2.6l2.3-2.4
			l0.5,0.1v4.9h4c0.3,0.4,0.2,1.1-0.2,1.4h-3.8v9.2c0,2.9,1.2,3.4,2.1,3.4s1.7-0.4,2.2-0.6l0.3,0.9L338.4,219z"/>
		<path class="st0" d="M342.4,219v-0.9c2.3-0.2,2.5-0.4,2.5-2.9v-7.4c0-2.2-0.1-2.4-2.3-2.7v-0.9c1.8-0.3,3.5-0.8,5.1-1.4v12.3
			c0,2.4,0.3,2.6,2.5,2.9v0.9H342.4z M344.3,198c0-1.1,0.9-1.9,1.8-1.9c1,0,1.8,0.8,1.8,1.9c0,1-0.8,1.8-1.8,1.8
			C345.1,199.8,344.3,199,344.3,198z"/>
		<path class="st0" d="M367.7,210.9c0,5.8-4.2,8.5-7.8,8.5c-4.9,0-7.8-3.9-7.8-7.9c0-5.9,4.6-8.6,7.8-8.6
			C364.4,202.9,367.7,206.5,367.7,210.9z M355.5,210.4c0,4.5,2,7.9,4.9,7.9c2.2,0,4-1.6,4-6.5c0-4.2-1.7-7.6-4.8-7.6
			C357.4,204.1,355.5,206.3,355.5,210.4z"/>
		<path class="st0" d="M379.9,219v-0.9c2.1-0.2,2.4-0.5,2.4-3v-6c0-2.5-0.9-4.1-3.3-4.1c-1.4,0-2.8,0.9-3.9,1.8v8.4
			c0,2.4,0.2,2.6,2.3,2.8v0.9h-7.8v-0.9c2.4-0.2,2.6-0.4,2.6-2.8v-7.4c0-2.3-0.2-2.4-2.1-2.8v-0.8c1.7-0.3,3.4-0.8,5-1.5v2.9
			c0.7-0.5,1.5-1.1,2.4-1.7c1-0.6,1.9-1.1,3-1.1c2.8,0,4.6,2,4.6,5.4v6.9c0,2.4,0.2,2.6,2.3,2.8v0.9H379.9z"/>
	</g>
	<g>
		<circle class="st1" cx="218.2" cy="154.8" r="28.5"/>
		<path class="st2" d="M235.4,160.6c-1.8-3.2-4.7-3.2-5.1-3.2c0,0,0,0,0,0l12.3-2.5l-12.3-2.6l0,0c0.1-0.1,2.5-2.2,6.1-2.3
			c2.7,0,5-3.3,3.6-5.9c0,0-0.5,4-5.5,2.7c-3.5-0.9-5.6,1.1-5.9,1.3l0,0l6.9-10.5l-10.5,6.9c0,0,0,0,0,0c0-0.2,0.2-3.3,2.7-5.9
			c1.9-1.9,1.2-5.9-1.6-6.7c0,0,2.5,3.1-2,5.8c-3.2,1.8-3.2,4.7-3.2,5.1l0,0l-2.5-12.3l-2.6,12.3c0,0,0,0,0,0
			c-0.1-0.1-2.2-2.5-2.3-6.1c0-2.7-3.3-5-5.9-3.6c0,0,4,0.5,2.7,5.5c-0.9,3.6,1.1,5.6,1.3,5.9l0,0l-10.5-6.9l0,0l0,0l5.6,8.6
			l1.3,1.9c0,0,0,0,0,0c-0.1,0-3.3-0.2-5.9-2.7c-1.9-1.9-5.9-1.2-6.7,1.6c0,0,3.1-2.5,5.8,2c1.8,3.2,4.8,3.2,5.1,3.2c0,0,0,0,0,0
			l-12.3,2.5l12.3,2.6v0c-0.1,0.1-2.5,2.2-6.1,2.3c-2.7,0-5,3.3-3.6,5.9c0,0,0.5-4,5.5-2.7c3.6,0.9,5.6-1.1,5.9-1.3c0,0,0,0,0,0
			L201,172l10.5-6.9c0,0.1-0.2,3.3-2.7,5.9c-1.9,1.9-1.2,5.9,1.6,6.7c0,0-2.5-3.1,2-5.8c3.2-1.8,3.2-4.8,3.2-5.1c0,0,0,0,0,0
			l2.5,12.3l2.6-12.3l0,0c0.1,0.1,2.2,2.5,2.3,6.1c0,2.7,3.3,5,5.9,3.6c0,0-4-0.4-2.7-5.5c0.9-3.6-1.1-5.6-1.3-5.9c0,0,0,0,0,0
			l10.5,6.9l-3.6-5.5l-3.2-5l0,0c0.1,0,3.3,0.2,5.9,2.7c1.9,1.9,5.9,1.2,6.7-1.6C241.1,162.6,238,165.1,235.4,160.6z"/>
	</g>
</g>
</svg>
