<svg id="Layer_1" data-name="Layer 1" xmlns="http://www.w3.org/2000/svg" viewBox="0 0 178.23 128.25"><defs><style>.cls-1{fill:#101820;}.cls-2{fill:#009cde;}.cls-3{fill:#ffcd00;}</style></defs><title>si-institution_logo-condensed_clr</title><path class="cls-1" d="M141.81,165.25c-.64-2.29-1.57-4.75-4.69-4.75a3.75,3.75,0,0,0-4,3.93c0,2.61,1.72,3.83,4.55,5.3s6.19,3.11,6.19,7.12c0,3.75-3.19,6.76-7.95,6.76a12.36,12.36,0,0,1-3.5-.54,11.74,11.74,0,0,1-1.76-.75,44.59,44.59,0,0,1-1-5.54l1-.25c.58,2.18,2.19,5.79,5.87,5.79a4,4,0,0,0,4.3-4.29c0-2.65-2-3.9-4.66-5.33-2.29-1.22-5.9-3-5.9-7,0-3.44,2.76-6.37,7.37-6.37a14.82,14.82,0,0,1,4.51.82c.14,1.29.32,2.69.61,4.94Z" transform="translate(-129.72 -90.45)"/><path class="cls-1" d="M165.82,183.07v-.93c2.11-.21,2.5-.35,2.5-2.9v-6c0-2.54-.89-4.15-3.15-4.15a6.56,6.56,0,0,0-4,1.86,7.59,7.59,0,0,1,.11,1.5v7c0,2.25.32,2.47,2.29,2.68v.93H155.9v-.93c2.22-.21,2.55-.39,2.55-2.75v-6.16c0-2.65-.93-4.11-3.12-4.11a6.64,6.64,0,0,0-3.9,1.86v8.41c0,2.32.29,2.54,2,2.75v.93h-7.55v-.93c2.36-.21,2.69-.43,2.69-2.75V172c0-2.29-.11-2.47-2.19-2.79v-.82a21.86,21.86,0,0,0,5-1.47v2.9c.75-.5,1.54-1.15,2.61-1.83a5.33,5.33,0,0,1,2.93-1,4.26,4.26,0,0,1,4,2.93,32.33,32.33,0,0,1,3-2,5,5,0,0,1,2.69-.93c2.79,0,4.54,2,4.54,5.47v6.91c0,2.4.29,2.54,2.33,2.75v.93Z" transform="translate(-129.72 -90.45)"/><path class="cls-1" d="M175.4,183.07v-.93c2.25-.21,2.5-.43,2.5-2.86v-7.37c0-2.22-.1-2.36-2.25-2.72v-.86a23,23,0,0,0,5.08-1.39v12.34c0,2.43.25,2.65,2.54,2.86v.93Zm1.9-21a1.84,1.84,0,0,1,1.82-1.86,1.79,1.79,0,0,1,1.79,1.86,1.83,1.83,0,0,1-1.83,1.82A1.86,1.86,0,0,1,177.3,162.07Z" transform="translate(-129.72 -90.45)"/><path class="cls-1" d="M191.64,183a3.64,3.64,0,0,1-1.5.46c-2.26,0-3.51-1.43-3.51-4.26V168.83h-2.47l-.14-.36,1-1h1.64v-2.62l2.33-2.36.5.07v4.91h4a1,1,0,0,1-.21,1.39h-3.83V178c0,2.9,1.18,3.43,2.07,3.43a5,5,0,0,0,2.22-.61l.33.94Z" transform="translate(-129.72 -90.45)"/><path class="cls-1" d="M205.34,183.07v-.93c2.08-.21,2.37-.43,2.37-2.75v-5.94c0-2.94-1.11-4.4-3.51-4.4a5.05,5.05,0,0,0-3.72,1.82v8.52c0,2.29.18,2.54,2.29,2.75v.93h-7.59v-.93c2.15-.18,2.47-.39,2.47-2.75V162.32c0-2.25-.07-2.43-2.43-2.65v-.82a39.11,39.11,0,0,0,5.26-1.25v12a7.8,7.8,0,0,1,5.11-2.61c2.9,0,4.94,1.82,4.94,6.12v6.26c0,2.36.25,2.57,2.36,2.75v.93Z" transform="translate(-129.72 -90.45)"/><path class="cls-1" d="M223.87,171.66c-.68-2.11-1.93-3.54-3.68-3.54a2.33,2.33,0,0,0-2.33,2.46c0,1.62,1.43,2.44,3,3.12,2.69,1.11,4.51,2.4,4.51,4.86,0,3.26-3,4.94-5.9,4.94a7.26,7.26,0,0,1-4.12-1.21,17,17,0,0,1-.57-4.23l.93-.18c.65,2.37,2.26,4.44,4.4,4.44a2.49,2.49,0,0,0,2.54-2.5c0-1.58-1-2.44-2.82-3.26-2.15-1-4.48-2.18-4.48-4.94,0-2.5,2.15-4.61,5.44-4.61a8.26,8.26,0,0,1,3.19.61,28.11,28.11,0,0,1,.79,3.82Z" transform="translate(-129.72 -90.45)"/><path class="cls-1" d="M243.69,175c0,5.76-4.22,8.51-7.76,8.51a7.75,7.75,0,0,1-7.84-7.91,8.15,8.15,0,0,1,7.84-8.58A7.75,7.75,0,0,1,243.69,175Zm-12.27-.54c0,4.51,2,7.87,4.9,7.87,2.22,0,4.05-1.64,4.05-6.55,0-4.18-1.68-7.58-4.8-7.58C233.35,168.19,231.42,170.41,231.42,174.45Z" transform="translate(-129.72 -90.45)"/><path class="cls-1" d="M255.86,183.07v-.93c2.11-.21,2.36-.5,2.36-3v-6c0-2.47-.86-4.08-3.26-4.08a6.39,6.39,0,0,0-3.9,1.82v8.41c0,2.44.22,2.58,2.33,2.79v.93h-7.77v-.93c2.44-.25,2.61-.43,2.61-2.79V172c0-2.29-.21-2.4-2.14-2.76v-.82a21.57,21.57,0,0,0,5-1.47v2.86c.72-.53,1.5-1.07,2.4-1.68a5.5,5.5,0,0,1,3-1.07c2.83,0,4.61,2,4.61,5.44v6.9c0,2.44.18,2.58,2.26,2.79v.93Z" transform="translate(-129.72 -90.45)"/><path class="cls-1" d="M265.3,183.07v-.93c2.25-.21,2.5-.43,2.5-2.86v-7.37c0-2.22-.1-2.36-2.25-2.72v-.86a23,23,0,0,0,5.08-1.39v12.34c0,2.43.25,2.65,2.54,2.86v.93Zm1.9-21a1.84,1.84,0,0,1,1.82-1.86,1.79,1.79,0,0,1,1.79,1.86,1.83,1.83,0,0,1-1.83,1.82A1.86,1.86,0,0,1,267.2,162.07Z" transform="translate(-129.72 -90.45)"/><path class="cls-1" d="M286.3,183.5a2.88,2.88,0,0,1-1.68-.68,3.67,3.67,0,0,1-.86-1.61c-1.43,1-3.15,2.29-4.22,2.29a4.32,4.32,0,0,1-4.3-4.36c0-1.76.93-2.87,2.9-3.55a25.65,25.65,0,0,0,5.55-2.32v-.65c0-2.57-1.22-4-3-4a2,2,0,0,0-1.61.72,5.15,5.15,0,0,0-1.07,2.36,1,1,0,0,1-1,.82,1.74,1.74,0,0,1-1.57-1.54c0-.53.46-.93,1.14-1.43a16,16,0,0,1,5.37-2.5,4.69,4.69,0,0,1,2.93,1c1.25,1,1.61,2.51,1.61,4.37V179c0,1.61.65,2.15,1.26,2.15a2.77,2.77,0,0,0,1.28-.39l.36.93Zm-2.61-9c-.75.39-2.47,1.14-3.22,1.5-1.4.64-2.19,1.32-2.19,2.61a2.63,2.63,0,0,0,2.55,2.76,5.2,5.2,0,0,0,2.86-1.29Z" transform="translate(-129.72 -90.45)"/><path class="cls-1" d="M300.5,183.07v-.93c2.11-.21,2.36-.5,2.36-3v-6c0-2.47-.86-4.08-3.25-4.08a6.39,6.39,0,0,0-3.9,1.82v8.41c0,2.44.21,2.58,2.32,2.79v.93h-7.76v-.93c2.43-.25,2.61-.43,2.61-2.79V172c0-2.29-.21-2.4-2.15-2.76v-.82a21.8,21.8,0,0,0,5-1.47v2.86c.71-.53,1.5-1.07,2.39-1.68a5.56,5.56,0,0,1,3-1.07c2.83,0,4.62,2,4.62,5.44v6.9c0,2.44.18,2.58,2.25,2.79v.93Z" transform="translate(-129.72 -90.45)"/><path class="cls-1" d="M144.22,218.27v-1c2.94-.21,3.22-.43,3.22-3.47V199.49c0-3-.28-3.26-3.22-3.47v-1h9.48v1c-2.93.21-3.22.43-3.22,3.47V213.8c0,3.08.29,3.26,3.22,3.47v1Z" transform="translate(-129.72 -90.45)"/><path class="cls-1" d="M165.76,218.27v-.93c2.11-.21,2.36-.5,2.36-3v-6c0-2.47-.86-4.08-3.25-4.08a6.37,6.37,0,0,0-3.9,1.82v8.41c0,2.44.21,2.58,2.32,2.79v.93h-7.76v-.93c2.43-.25,2.61-.43,2.61-2.79v-7.4c0-2.29-.22-2.4-2.15-2.76v-.82a21.31,21.31,0,0,0,5-1.47V205c.71-.53,1.5-1.07,2.39-1.68a5.56,5.56,0,0,1,3-1.07c2.83,0,4.62,2,4.62,5.44v6.9c0,2.44.18,2.58,2.25,2.79v.93Z" transform="translate(-129.72 -90.45)"/><path class="cls-1" d="M184.29,206.86c-.68-2.11-1.93-3.54-3.68-3.54a2.34,2.34,0,0,0-2.33,2.47c0,1.61,1.43,2.43,3,3.11,2.68,1.11,4.51,2.4,4.51,4.86,0,3.26-3,4.94-5.9,4.94a7.26,7.26,0,0,1-4.12-1.21,17,17,0,0,1-.57-4.23l.93-.18c.64,2.37,2.25,4.44,4.4,4.44a2.5,2.5,0,0,0,2.54-2.5c0-1.58-1-2.44-2.83-3.26-2.14-1-4.47-2.18-4.47-4.94,0-2.5,2.15-4.61,5.44-4.61a8.2,8.2,0,0,1,3.18.61,26.67,26.67,0,0,1,.79,3.82Z" transform="translate(-129.72 -90.45)"/><path class="cls-1" d="M195,218.24a3.64,3.64,0,0,1-1.5.46c-2.26,0-3.51-1.43-3.51-4.26V204h-2.47l-.14-.36,1-1h1.64V200l2.33-2.36.5.07v4.91h4a1,1,0,0,1-.21,1.39h-3.83v9.2c0,2.9,1.18,3.43,2.07,3.43a5,5,0,0,0,2.22-.61l.33.94Z" transform="translate(-129.72 -90.45)"/><path class="cls-1" d="M199,218.27v-.93c2.25-.21,2.5-.43,2.5-2.86v-7.37c0-2.22-.11-2.36-2.25-2.72v-.86a22.59,22.59,0,0,0,5.08-1.39v12.34c0,2.43.25,2.65,2.54,2.86v.93Zm1.89-21a1.84,1.84,0,0,1,1.83-1.86,1.79,1.79,0,0,1,1.79,1.86,1.83,1.83,0,0,1-1.83,1.82A1.87,1.87,0,0,1,200.85,197.27Z" transform="translate(-129.72 -90.45)"/><path class="cls-1" d="M215.2,218.24a3.64,3.64,0,0,1-1.5.46c-2.26,0-3.51-1.43-3.51-4.26V204h-2.47l-.14-.36,1-1h1.65V200l2.33-2.36.5.07v4.91h4a1,1,0,0,1-.21,1.39H213v9.2c0,2.9,1.18,3.43,2.07,3.43a5,5,0,0,0,2.22-.61l.32.94Z" transform="translate(-129.72 -90.45)"/><path class="cls-1" d="M236.06,217.42a40.89,40.89,0,0,0-5.26,1.28l-.22-.21V216c-.82.61-1.64,1.25-2.64,1.86a5.1,5.1,0,0,1-2.76.89c-2.4,0-4.44-1.46-4.44-5.33v-7c0-2-.14-2.11-2.18-2.51V203a43.66,43.66,0,0,0,5.12-.64c-.11,1.11-.11,2.79-.11,5.22v4.8c0,3.18,1.54,4,3.15,4a5.54,5.54,0,0,0,3.86-1.72v-8.34c0-2-.21-2.18-2.79-2.54V203a39,39,0,0,0,5.62-.64v12c0,1.79.29,2,1.65,2.11l1,.07Z" transform="translate(-129.72 -90.45)"/><path class="cls-1" d="M244.32,218.24a3.64,3.64,0,0,1-1.5.46c-2.26,0-3.51-1.43-3.51-4.26V204h-2.47l-.14-.36,1-1h1.65V200l2.33-2.36.5.07v4.91h4A1,1,0,0,1,246,204h-3.83v9.2c0,2.9,1.18,3.43,2.07,3.43a5,5,0,0,0,2.22-.61l.32.94Z" transform="translate(-129.72 -90.45)"/><path class="cls-1" d="M248.32,218.27v-.93c2.26-.21,2.51-.43,2.51-2.86v-7.37c0-2.22-.11-2.36-2.26-2.72v-.86a22.53,22.53,0,0,0,5.09-1.39v12.34c0,2.43.25,2.65,2.54,2.86v.93Zm1.9-21a1.84,1.84,0,0,1,1.83-1.86,1.78,1.78,0,0,1,1.78,1.86,1.82,1.82,0,0,1-1.82,1.82A1.87,1.87,0,0,1,250.22,197.27Z" transform="translate(-129.72 -90.45)"/><path class="cls-1" d="M273.69,210.19c0,5.76-4.22,8.51-7.76,8.51a7.75,7.75,0,0,1-7.84-7.91,8.15,8.15,0,0,1,7.84-8.58A7.76,7.76,0,0,1,273.69,210.19Zm-12.27-.54c0,4.51,2,7.87,4.9,7.87,2.22,0,4-1.64,4-6.55,0-4.18-1.68-7.58-4.79-7.58C263.35,203.39,261.42,205.61,261.42,209.65Z" transform="translate(-129.72 -90.45)"/><path class="cls-1" d="M285.85,218.27v-.93c2.11-.21,2.36-.5,2.36-3v-6c0-2.47-.85-4.08-3.25-4.08a6.39,6.39,0,0,0-3.9,1.82v8.41c0,2.44.21,2.58,2.32,2.79v.93h-7.76v-.93c2.43-.25,2.61-.43,2.61-2.79v-7.4c0-2.29-.21-2.4-2.15-2.76v-.82a21.31,21.31,0,0,0,5-1.47V205c.71-.53,1.5-1.07,2.4-1.68a5.5,5.5,0,0,1,3-1.07c2.83,0,4.62,2,4.62,5.44v6.9c0,2.44.18,2.58,2.25,2.79v.93Z" transform="translate(-129.72 -90.45)"/><circle class="cls-2" cx="89.11" cy="28.46" r="28.46"/><path class="cls-3" d="M236,124.71a6,6,0,0,0-5.1-3.21h0L243.16,119l-12.27-2.58h0a9.91,9.91,0,0,1,6.1-2.26c2.7,0,5-3.34,3.56-5.88,0,0-.46,4-5.49,2.65a6,6,0,0,0-5.88,1.35h0l6.89-10.48-10.51,6.85h0a9.9,9.9,0,0,1,2.71-5.91c1.89-1.94,1.21-5.93-1.64-6.68,0,0,2.5,3.14-2,5.76a6,6,0,0,0-3.2,5.1h0l-2.53-12.28-2.59,12.27h0a9.91,9.91,0,0,1-2.27-6.1c0-2.7-3.33-5-5.88-3.56,0,0,4,.46,2.65,5.49a6,6,0,0,0,1.35,5.88h0l-10.48-6.9h0l5.58,8.56,1.27,2h0a9.88,9.88,0,0,1-5.92-2.71c-1.93-1.89-5.93-1.21-6.67,1.64,0,0,3.14-2.5,5.75,2a6,6,0,0,0,5.11,3.2h0l-12.28,2.53,12.27,2.59h0a9.94,9.94,0,0,1-6.1,2.27c-2.7,0-5,3.33-3.56,5.88,0,0,.45-4,5.49-2.65a6,6,0,0,0,5.88-1.35h0l-6.9,10.47,10.51-6.85a10,10,0,0,1-2.71,5.92c-1.89,1.93-1.21,5.93,1.64,6.67,0,0-2.51-3.14,2-5.75a6,6,0,0,0,3.21-5.11h0l2.53,12.28L221.37,131h0a9.9,9.9,0,0,1,2.26,6.1c0,2.7,3.34,5.05,5.88,3.56,0,0-4-.45-2.65-5.49a5.93,5.93,0,0,0-1.35-5.88h0l10.48,6.9-3.62-5.55-3.23-5h0a9.94,9.94,0,0,1,5.92,2.72c1.93,1.88,5.92,1.2,6.67-1.65C241.74,126.71,238.6,129.22,236,124.71Z" transform="translate(-129.72 -90.45)"/></svg>